<svg width="60" height="60" viewBox="0 0 60 60" fill="none" xmlns="http://www.w3.org/2000/svg">
<path d="M31.4197 48.6649L7.39746 46.72V28.112H9.86802C10.4813 28.5325 11.7288 29.6363 11.8129 30.6876C11.897 31.7389 11.848 37.889 11.8129 40.8327H25.6375V30.6876C26.1106 29.8291 27.2776 28.112 28.1606 28.112C29.0437 28.112 44.8238 28.6727 52.6034 28.953M31.4197 48.6649L52.6034 44.7751V28.953M31.4197 48.6649C31.4197 37.6438 31.4197 15.4122 31.4197 14.6553C31.4197 13.8983 32.1906 13.5689 32.5761 13.4989C38.0604 12.833 49.3759 11.4699 50.7636 11.3437C52.1513 11.2176 52.5683 12.4826 52.6034 13.1309V28.953" stroke="#633510" stroke-width="0.750008"/>
</svg>
