<svg width="28" height="28" viewBox="0 0 28 28" fill="none" xmlns="http://www.w3.org/2000/svg">
<path d="M15.3777 7.20416C15.3777 7.47025 15.3777 8.33754 15.3777 9.5697H19.6141L19.1548 13.3461H15.3777C15.3777 19.1701 15.3777 26.9746 15.3777 26.9746H10.3643C10.3643 26.9746 10.3643 19.2734 10.3643 13.3461H7.75195V9.5697H10.3643C10.3643 8.07206 10.3643 7.00713 10.3643 6.71061C10.3643 5.29788 10.2579 4.62757 10.8581 3.53282C11.4587 2.43813 13.1528 0.991172 16.0828 1.02601C19.0136 1.06211 20.2489 1.34405 20.2489 1.34405L19.6141 5.36882C19.6141 5.36882 17.7427 4.87467 16.8241 5.05078C15.9067 5.22694 15.3777 5.79203 15.3777 7.20416Z" fill="#633510"/>
</svg>
