<svg width="18" height="17" viewBox="0 0 18 17" fill="none" xmlns="http://www.w3.org/2000/svg">
<path d="M14.9231 6.83631C14.9231 4.99073 13.5564 3.11453 11.6568 3.11429C10.5527 3.11429 9.83501 3.67816 9.40759 4.19085C9.3053 4.31356 9.15661 4.3843 9 4.3843C8.84339 4.3843 8.6947 4.31356 8.59241 4.19085C8.16499 3.67816 7.4473 3.11429 6.34322 3.11429C4.44357 3.11453 3.07692 4.99073 3.07692 6.83631C3.077 7.73391 3.41787 8.62389 3.97716 9.47597C4.53604 10.3274 5.29258 11.1102 6.07025 11.78C6.84574 12.4479 7.62734 12.9911 8.22222 13.3673C8.51931 13.5551 8.76822 13.6993 8.94298 13.7958C8.96293 13.8068 8.98226 13.8161 9 13.8257C9.01774 13.8161 9.03707 13.8068 9.05702 13.7958C9.23178 13.6993 9.48069 13.5551 9.77778 13.3673C10.3727 12.9911 11.1543 12.4479 11.9298 11.78C12.7074 11.1102 13.464 10.3274 14.0228 9.47597C14.5821 8.62389 14.923 7.73391 14.9231 6.83631ZM16 6.83631C15.9999 8.0295 15.5478 9.13575 14.9137 10.1018C14.2791 11.0686 13.442 11.9269 12.6187 12.636C11.7933 13.3469 10.9661 13.9214 10.3387 14.3181C10.0247 14.5166 9.75798 14.6723 9.5637 14.7795C9.46711 14.8327 9.38549 14.8755 9.32345 14.9062C9.29327 14.9211 9.26311 14.9359 9.23558 14.9478C9.22243 14.9534 9.203 14.9615 9.18136 14.969C9.17078 14.9727 9.15316 14.9782 9.13181 14.9836C9.11856 14.9869 9.06659 15 9 15C8.93341 15 8.88144 14.9869 8.86819 14.9836C8.84684 14.9782 8.82922 14.9727 8.81864 14.969C8.797 14.9615 8.77757 14.9534 8.76442 14.9478C8.73689 14.9359 8.70673 14.9211 8.67655 14.9062C8.61451 14.8755 8.53289 14.8327 8.4363 14.7795C8.24203 14.6723 7.9753 14.5166 7.66132 14.3181C7.03393 13.9214 6.20671 13.3469 5.38128 12.636C4.558 11.9269 3.72092 11.0686 3.08627 10.1018C2.45221 9.13575 2.00008 8.0295 2 6.83631C2 4.55184 3.69148 2.00024 6.34322 2C7.53899 2 8.40963 2.49531 9 3.0369C9.59037 2.49531 10.461 2 11.6568 2C14.3085 2.00024 16 4.55184 16 6.83631Z" fill="#A37932"/>
</svg>
