<svg width="32" height="2" viewBox="0 0 32 2" fill="none" xmlns="http://www.w3.org/2000/svg">
<g clip-path="url(#clip0_2381_804)">
<path d="M30.9052 0C31.5096 0.000227546 32 0.447856 32 1C32 1.55214 31.5096 1.99977 30.9052 2H30.0948C29.4901 2 29 1.55228 29 1C29 0.447715 29.4901 0 30.0948 0H30.9052Z" fill="#633510"/>
<path d="M21.7178 0C22.27 7.11191e-05 22.7178 0.447759 22.7178 1C22.7178 1.55224 22.27 1.99993 21.7178 2H1C0.447715 2 0 1.55228 0 1C0 0.447715 0.447715 0 1 0H21.7178Z" fill="#633510"/>
</g>
<defs>
<clipPath id="clip0_2381_804">
<rect width="32" height="2" fill="white"/>
</clipPath>
</defs>
</svg>
