<svg width="28" height="28" viewBox="0 0 28 28" fill="none" xmlns="http://www.w3.org/2000/svg">
<path d="M14.191 25.1838C11.8339 25.1838 10.1377 25.1826 8.81521 25.0543C7.5079 24.9276 6.67162 24.6841 6.00423 24.2647C5.24144 23.7855 4.59644 23.1405 4.11714 22.3778C3.69791 21.7104 3.45424 20.8741 3.32766 19.5668C3.19941 18.2443 3.19824 16.5481 3.19824 14.191C3.19824 11.8339 3.19941 10.1377 3.32766 8.81521C3.45424 7.5079 3.69791 6.67162 4.11714 6.00423C4.59642 5.24142 5.24142 4.59642 6.00423 4.11714C6.67162 3.69791 7.5079 3.45424 8.81521 3.32766C10.1375 3.19941 11.8337 3.19824 14.191 3.19824C16.5481 3.19824 18.2443 3.19941 19.5668 3.32766C20.8741 3.45424 21.7104 3.69791 22.3778 4.11714C23.1405 4.59644 23.7855 5.24144 24.2647 6.00423C24.6841 6.67162 24.9276 7.5079 25.0543 8.81521C25.1826 10.1377 25.1838 11.8339 25.1838 14.191C25.1838 16.5481 25.1826 18.2443 25.0543 19.5668C24.9276 20.8741 24.6841 21.7104 24.2647 22.3778C23.7854 23.1405 23.1405 23.7854 22.3778 24.2647C21.7104 24.6841 20.8741 24.9276 19.5668 25.0543C18.2443 25.1826 16.5481 25.1838 14.191 25.1838Z" fill="#633510" stroke="#633510" stroke-width="3.29783"/>
<path d="M14.3971 19.0921C16.8256 19.0921 18.7942 17.1234 18.7942 14.695C18.7942 12.2665 16.8256 10.2979 14.3971 10.2979C11.9686 10.2979 10 12.2665 10 14.695C10 17.1234 11.9686 19.0921 14.3971 19.0921Z" fill="#633510" stroke="white" stroke-width="3.29783"/>
<path d="M19.7562 9.47337C20.4392 9.47337 20.9929 8.91969 20.9929 8.23668C20.9929 7.55368 20.4392 7 19.7562 7C19.0732 7 18.5195 7.55368 18.5195 8.23668C18.5195 8.91969 19.0732 9.47337 19.7562 9.47337Z" fill="white"/>
</svg>
