<svg width="28" height="28" viewBox="0 0 28 28" fill="none" xmlns="http://www.w3.org/2000/svg">
<path d="M12.6069 11.2353V15.1573C12.244 15.1117 11.9039 15.0434 11.5637 15.032C9.69284 14.9978 8.15078 16.4003 7.9807 18.2815C7.82196 20.0601 9.10322 21.7357 10.8834 22.0549C12.9697 22.4425 14.9653 20.8695 15.022 18.7375C15.0787 16.8334 15.0447 14.9177 15.0447 13.0022C15.0447 9.44501 15.0447 5.87679 15.0447 2.31955V2H18.8658C19.0019 2.63848 19.0812 3.27685 19.274 3.88112C20.0337 6.24121 22.256 7.8948 24.7165 7.9746C24.932 7.9746 25 8.04275 25 8.27077C24.9887 9.38811 25 10.5057 25 11.6344V11.8966C23.8888 11.908 22.8457 11.7254 21.8252 11.3833C20.7934 11.0413 19.8636 10.5281 18.9452 9.84403C18.9452 9.96945 18.9452 10.0493 18.9452 10.1291C18.9452 12.854 18.9452 15.5789 18.9678 18.3038C18.9678 19.672 18.7297 20.995 18.0267 22.1807C16.4393 24.8372 14.0922 26.1368 11.0081 25.9886C7.8333 25.8404 5.12337 23.6057 4.26163 20.5273C3.1958 16.6622 5.48621 12.5689 9.31867 11.4629C10.3051 11.1779 11.3029 11.087 12.3234 11.1896C12.3574 11.1896 12.4028 11.1896 12.4368 11.2124C12.4821 11.2124 12.5275 11.235 12.5955 11.2464L12.6069 11.2353Z" fill="#633510"/>
</svg>
