<svg width="200" height="68" viewBox="0 0 200 68" fill="none" xmlns="http://www.w3.org/2000/svg">
<path d="M107.5 46.3999L116.3 19.8999H109.3L103.5 40.6999H103.4L97.7004 19.8999H90.4004L99.1004 46.3999H107.5Z" fill="#EABF98"/>
<path d="M78.2002 46.9C80.4002 46.9 84.7002 46.6 87.8002 43.4C90.9002 40.3 91.2002 35.8 91.2002 33.2C91.2002 30.6 90.8002 26.2 87.8002 23C84.7002 19.8 80.5002 19.5 78.3002 19.5H78.1002C75.9002 19.5 71.7002 19.9 68.6002 23C65.5002 26.1 65.2002 30.6 65.2002 33.2C65.2002 35.8 65.6002 40.2 68.6002 43.4C71.7002 46.6 76.0002 46.9 78.2002 46.9ZM73.9002 26.9C74.7002 25.7 76.1002 24.7 78.2002 24.7C80.3002 24.7 81.7002 25.7 82.5002 26.9C83.9002 28.8 84.1002 31.5 84.1002 33.2C84.1002 34.9 83.9002 37.6 82.5002 39.5C81.7002 40.7 80.3002 41.7 78.2002 41.7C76.1002 41.7 74.7002 40.7 73.9002 39.5C72.5002 37.6 72.3002 34.9 72.3002 33.2C72.3002 31.5 72.5002 28.8 73.9002 26.9Z" fill="#EABF98"/>
<path d="M129.3 46.8999C131.6 46.8999 135.7 46.5999 138.4 43.5999C140.5 41.2999 140.8 38.3999 140.8 36.3999V19.8999H133.9V35.0999C133.9 35.9999 133.8 37.9999 133.2 39.3999C132.3 41.0999 130.8 41.5999 129.5 41.5999C128.2 41.5999 126.6 41.0999 125.8 39.3999C125.1 37.9999 125 35.9999 125 35.0999V19.8999H118.1V36.2999C118.1 38.2999 118.4 41.0999 120.5 43.4999C122.9 46.4999 127 46.8999 129.3 46.8999Z" fill="#EABF98"/>
<path d="M44.7 28.2998C44.8 28.2998 49.7 38.0998 51.1 40.7998C53.1 44.6998 55.9 46.3998 59.6 46.3998H62.6V19.7998H56.2L56.3 37.7998H56.2C56.2 37.7998 52.1 29.3998 50.2 25.5998C48.4 21.7998 44.6 19.7998 41.2 19.7998H38.5V46.2998H45L44.7 28.2998Z" fill="#EABF98"/>
<path d="M148.8 34.9999L149.9 35.2999C151.8 35.8999 153.3 36.1999 154.3 36.9999C154.9 37.4999 155.3 38.0999 155.3 38.9999C155.3 39.8999 154.8 40.4999 154.4 40.7999C153.6 41.3999 152.1 41.5999 151 41.5999C149.2 41.5999 146.2 40.8999 143.8 38.2999C143.8 38.2999 143 40.5999 143.4 42.2999C143.8 44.0999 145.3 45.1999 146.7 45.7999C148.2 46.4999 150.1 46.7999 151.6 46.7999C154.2 46.7999 157.1 46.3999 159.4 44.5999C160.9 43.4999 162.4 41.4999 162.4 37.9999C162.4 36.0999 162 33.9999 160.1 32.3999C158.7 31.2999 156.2 30.3999 154.9 30.0999L154.5 29.9999C152.3 29.3999 151.1 28.8999 150.5 28.1999C150.3 27.8999 150.1 27.4999 150.1 26.9999C150.1 26.3999 150.4 25.5999 151.4 25.0999C152.5 24.5999 153.7 24.5999 154.6 24.5999C156.1 24.6999 158.9 25.3999 160.3 26.8999C160.3 26.8999 161.3 24.8999 160.8 23.2999C160.3 21.3999 158.9 20.3999 157.4 19.8999C156.3 19.4999 154.6 19.3999 153.7 19.3999H153.5C151.1 19.3999 149 19.7999 147 20.7999C144 22.2999 142.8 24.6999 142.8 27.5999C142.8 28.5999 143 29.8999 143.4 30.7999C144.6 32.9999 146.8 34.3999 148.8 34.9999Z" fill="#EABF98"/>
</svg>
