<svg width="200" height="68" viewBox="0 0 200 68" fill="none" xmlns="http://www.w3.org/2000/svg">
<path d="M41 42.3998C49.7 42.3998 58.3 42.3998 67 42.3998C67 33.6998 67 24.9998 67 16.2998C58.3 16.2998 49.7 16.2998 41 16.2998C41 24.9998 41 33.6998 41 42.3998ZM46.9 22.1998C51.6 22.1998 56.3 22.1998 61 22.1998C61 26.8998 61 31.6998 61 36.4998C56.3 36.4998 51.6 36.4998 46.9 36.4998C46.9 31.6998 46.9 26.9998 46.9 22.1998Z" fill="#EABF98"/>
<path d="M79.7996 40.2997C80.4996 40.7997 81.1996 41.4997 82.0996 41.7997C84.4996 42.6997 86.8996 42.5997 89.0996 41.3997C95.1996 38.1997 95.5996 29.2997 89.8996 25.2997C88.1996 24.0997 86.2996 23.6997 84.2996 23.8997C82.4996 24.0997 80.8996 24.5997 79.7996 26.2997C79.7996 25.3997 79.7996 24.7997 79.7996 24.1997C77.9996 24.1997 76.2996 24.1997 74.5996 24.1997C74.5996 32.3997 74.5996 40.5997 74.5996 48.7997C76.3996 48.7997 78.0996 48.7997 79.8996 48.7997C79.7996 45.8997 79.7996 42.9997 79.7996 40.2997ZM84.1996 28.6997C86.6996 28.6997 88.6996 30.6997 88.6996 33.1997C88.6996 35.6997 86.6996 37.5997 84.0996 37.5997C81.4996 37.5997 79.3996 35.5997 79.4996 33.0997C79.4996 30.5997 81.5996 28.6997 84.1996 28.6997Z" fill="#EABF98"/>
<path d="M114.4 24.8997C109.3 27.5997 107.8 34.0997 111.2 38.5997C113.7 41.9997 117.3 42.9997 121.3 42.3997C126.9 41.4997 130.4 35.6997 128.7 30.2997C127.5 26.4997 123.6 23.6997 119.3 23.6997C117.6 23.6997 116 24.0997 114.4 24.8997ZM124 33.1997C124 35.7997 121.9 37.7997 119.3 37.7997C116.7 37.7997 114.7 35.7997 114.7 33.0997C114.7 30.4997 116.7 28.3997 119.4 28.4997C121.9 28.4997 124 30.5997 124 33.1997Z" fill="#EABF98"/>
<path d="M105.7 28.7997C106.6 28.6997 107.5 28.7997 108.4 28.7997C108.4 27.0997 108.4 25.5997 108.4 23.9997C105.6 23.5997 104 24.1997 101.9 26.4997C101.9 25.6997 101.9 24.9997 101.9 24.2997C100.1 24.2997 98.4002 24.2997 96.7002 24.2997C96.7002 30.1997 96.7002 36.0997 96.7002 42.0997C98.4002 42.0997 100.1 42.0997 101.9 42.0997C101.9 40.3997 101.9 38.7997 101.9 37.1997C101.9 35.6997 101.9 34.1997 102 32.6997C102.2 30.3997 103.6 29.0997 105.7 28.7997Z" fill="#EABF98"/>
<path d="M137.3 41.2998C137.3 38.2998 137.3 35.3998 137.3 32.3998C137.3 31.5998 137.5 30.6998 137.9 29.9998C138.4 28.8998 139.6 28.3998 140.7 28.5998C141.8 28.7998 142.5 29.4998 142.7 30.5998C142.8 31.0998 142.9 31.6998 142.9 32.1998C142.9 35.1998 142.9 38.1998 142.9 41.1998C142.9 41.4998 142.9 41.6998 142.9 41.9998C144.7 41.9998 146.4 41.9998 148.2 41.9998C148.2 41.6998 148.2 41.4998 148.2 41.1998C148.2 38.1998 148.2 35.1998 148.2 32.1998C148.2 31.3998 148.4 30.5998 148.8 29.8998C149.3 28.7998 150.4 28.3998 151.6 28.4998C152.7 28.5998 153.4 29.2998 153.7 30.4998C153.8 30.9998 153.9 31.5998 153.9 32.0998C153.9 35.0998 153.9 38.0998 153.9 41.0998C153.9 41.3998 153.9 41.5998 153.9 41.8998C155.7 41.8998 157.4 41.8998 159.1 41.8998C159.1 41.6998 159.1 41.4998 159.1 41.2998C159.1 37.8998 159.1 34.4998 159.1 30.9998C159.1 30.3998 159 29.6998 158.9 29.0998C158.5 26.2998 156.9 24.3998 154.4 23.8998C151.5 23.3998 148.7 23.6998 146.8 26.3998C145.9 24.4998 144.3 23.6998 142.3 23.6998C140.3 23.5998 138.6 24.2998 137.4 25.9998C137.4 25.3998 137.4 24.7998 137.4 24.0998C135.6 24.0998 133.9 24.0998 132.2 24.0998C132.2 29.9998 132.2 35.8998 132.2 41.7998C133.9 41.7998 135.6 41.7998 137.4 41.7998C137.3 41.6998 137.3 41.4998 137.3 41.2998Z" fill="#EABF98"/>
</svg>
