<svg width="200" height="68" viewBox="0 0 200 68" fill="none" xmlns="http://www.w3.org/2000/svg">
<path d="M39.9994 42.2002C39.5994 42.2002 39.2994 42.3002 38.9994 42.5002C38.6994 42.7002 38.5994 42.9002 38.4994 43.3002L37.9994 46.3002C37.8994 46.7002 37.9994 47.0002 38.2994 47.2002C38.4994 47.4002 38.8994 47.5002 39.3994 47.5002C40.3994 47.5002 41.1994 47.5002 41.5994 47.4002H41.7994V46.5002H39.4994C39.2994 46.5002 39.2994 46.5002 39.2994 46.5002C39.2994 46.5002 39.2994 46.5002 39.2994 46.3002L39.4994 45.2002H41.7994L41.8994 44.2002H39.5994L39.6994 43.4002C39.6994 43.3002 39.6994 43.2002 39.7994 43.2002C39.7994 43.2002 39.8994 43.1002 39.9994 43.1002H42.2994L42.4994 42.2002H42.2994C41.7994 42.2002 40.9994 42.2002 39.9994 42.2002Z" fill="#EABF98"/>
<path d="M48 35.0002C47.8 35.0002 47.4 35.0002 47.2 35.0002C47.1 35.0002 47.1 35.0002 47 35.0002C45.9 35.0002 43.6 35.0002 42.6 35.0002C42.3 35.0002 42.1 34.7002 42.2 34.5002C42.3 34.1002 42.3 33.7002 42.4 33.3002C42.5 32.9002 42.8 32.6002 43.2 32.6002C43.3 32.6002 43.5 32.6002 43.9 32.6002C45 32.6002 46.7 32.6002 47.5 32.6002C48 32.6002 48.1 32.5002 48.1 32.1002C48.2 31.5002 48.3 30.5002 48.3 29.9002C48.3 29.7002 48.2 29.6002 48 29.6002C47.1 29.6002 44.5 29.6002 43.4 29.6002C43.1 29.6002 42.9 29.3002 43 29.1002C43.1 28.7002 43.1 28.3002 43.2 27.9002C43.3 27.5002 43.6 27.2002 44 27.2002C44.2 27.2002 47.6 27.2002 49 27.2002C49.5 27.2002 49.6 27.1002 49.7 26.6002C49.8 26.0002 50 24.6002 50.1 24.0002C50.1 23.9002 50 23.7002 49.9 23.7002C48.3 23.7002 42.4 23.7002 42 23.7002C40.3 23.9002 39.2 24.9002 38.9 26.6002C38.8 27.3002 38 32.8002 37.7 34.9002C37.4 37.1002 38.7 38.7002 40.9 38.7002C43.1 38.7002 45.3 38.7002 47.4 38.7002C48 38.7002 48 38.7002 48.1 38.1002C48.2 37.5002 48.4 36.2002 48.4 35.6002C48.4 35.2002 48.2 35.0002 48 35.0002Z" fill="#EABF98"/>
<path d="M24.3996 42.2002C23.5996 42.2002 22.9996 42.2002 22.5996 42.3002H22.3996L21.5996 47.6002H21.7996C22.2996 47.6002 22.9996 47.7002 23.8996 47.7002C24.5996 47.7002 25.0996 47.6002 25.3996 47.4002C25.6996 47.2002 25.8996 46.8002 25.9996 46.3002C26.0996 45.8002 25.9996 45.4002 25.7996 45.1002C25.6996 45.0002 25.6996 44.9002 25.5996 44.9002C25.6996 44.8002 25.7996 44.8002 25.7996 44.7002C25.9996 44.5002 26.0996 44.2002 26.1996 43.8002C26.2996 43.2002 26.1996 42.8002 25.7996 42.6002C25.5996 42.3002 25.0996 42.2002 24.3996 42.2002ZM24.7996 45.9002C24.7996 46.2002 24.6996 46.3002 24.5996 46.4002C24.4996 46.5002 24.2996 46.5002 23.7996 46.5002H22.8996L23.0996 45.2002H24.0996C24.5996 45.2002 24.7996 45.3002 24.7996 45.3002C24.8996 45.5002 24.8996 45.7002 24.7996 45.9002ZM25.0996 43.7002C25.0996 44.0002 24.9996 44.1002 24.8996 44.2002C24.7996 44.3002 24.5996 44.3002 24.1996 44.3002H23.2996L23.4996 43.2002H24.3996C24.8996 43.2002 25.0996 43.3002 25.0996 43.3002C25.0996 43.3002 25.0996 43.5002 25.0996 43.7002Z" fill="#EABF98"/>
<path d="M50.1996 42.2002C49.7996 42.2002 49.4996 42.3002 49.1996 42.5002C48.8996 42.7002 48.7996 42.9002 48.6996 43.3002L48.1996 46.3002C48.0996 46.7002 48.1996 47.0002 48.4996 47.2002C48.6996 47.4002 49.0996 47.5002 49.5996 47.5002C50.5996 47.5002 51.3996 47.5002 51.7996 47.4002H51.9996V46.5002H49.6996C49.4996 46.5002 49.4996 46.5002 49.4996 46.5002C49.4996 46.5002 49.4996 46.5002 49.4996 46.3002L49.6996 45.2002H51.9996L52.0996 44.2002H49.7996L49.8996 43.4002C49.8996 43.3002 49.8996 43.2002 49.9996 43.2002C49.9996 43.2002 50.0996 43.1002 50.1996 43.1002H52.4996L52.6996 42.2002H52.4996C52.0996 42.2002 51.2996 42.2002 50.1996 42.2002Z" fill="#EABF98"/>
<path d="M33.4992 43.3001C33.2992 44.2001 33.0992 44.9001 32.9992 45.2001C32.8992 45.5001 32.7992 45.8001 32.5992 46.1001C32.4992 46.3001 32.3992 46.4001 32.2992 46.4001C32.1992 46.5001 31.9992 46.5001 31.8992 46.6001H31.6992L31.7992 47.5001H31.9992C32.6992 47.5001 33.2992 47.2001 33.6992 46.5001C33.7992 46.3001 33.9992 46.0001 34.0992 45.7001C34.1992 45.4001 34.2992 45.1001 34.3992 44.9001C34.4992 44.7001 34.5992 44.2001 34.7992 43.5001C34.7992 43.4001 34.8992 43.3001 34.8992 43.2001C34.8992 43.2001 34.9992 43.1001 35.1992 43.1001H35.8992L35.1992 47.4001H36.3992L37.1992 42.1001H34.9992C33.9992 42.2001 33.5992 42.8001 33.4992 43.3001Z" fill="#EABF98"/>
<path d="M28.8998 42.2002C28.4998 42.2002 28.1998 42.3002 27.8998 42.5002C27.5998 42.7002 27.4998 42.9002 27.3998 43.3002L26.8998 46.3002C26.7998 46.7002 26.8998 47.0002 27.1998 47.2002C27.3998 47.4002 27.7998 47.5002 28.2998 47.5002C29.2998 47.5002 30.0998 47.5002 30.4998 47.4002H30.6998V46.5002H28.3998C28.1998 46.5002 28.1998 46.5002 28.1998 46.5002C28.1998 46.5002 28.1998 46.5002 28.1998 46.3002L28.3998 45.2002H30.6998L30.7998 44.2002H28.4998L28.5998 43.4002C28.5998 43.3002 28.5998 43.2002 28.6998 43.2002C28.6998 43.2002 28.7998 43.1002 28.8998 43.1002H31.1998L31.3998 42.2002H31.1998C30.6998 42.2002 29.8998 42.2002 28.8998 42.2002Z" fill="#EABF98"/>
<path d="M43.0996 43.3002H44.8996L44.1996 47.5002H45.3996L46.0996 43.3002H47.7996L47.9996 42.2002H43.2996L43.0996 43.3002Z" fill="#EABF98"/>
<path d="M72.7996 44.2002H70.8996L71.1996 42.2002H69.9996L69.0996 47.5002H70.2996L70.6996 45.2002H72.6996L72.2996 47.5002H73.4996L74.3996 42.2002H73.1996L72.7996 44.2002Z" fill="#EABF98"/>
<path d="M69.4997 37.6999C69.7997 35.6999 70.9997 28.7999 71.2997 27.3999C71.2997 27.2999 71.2997 26.9999 71.4997 26.9999C71.5997 26.9999 71.6997 27.1999 71.6997 27.1999C71.7997 28.1999 71.9997 31.5999 72.0997 33.2999C72.1997 34.6999 72.1997 35.9999 72.2997 37.3999C72.3997 38.1999 72.5997 38.3999 73.3997 38.4999C74.1997 38.4999 74.9997 38.4999 75.7997 38.4999C76.6997 38.4999 76.8997 38.2999 77.1997 37.3999C77.1997 37.2999 79.9997 28.8999 80.4997 27.1999C80.5997 26.9999 80.5997 26.9999 80.6997 26.9999C80.7997 26.9999 80.8997 27.0999 80.7997 27.1999C80.6997 28.2999 80.1997 33.0999 79.9997 35.0999C79.8997 35.9999 79.7997 36.8999 79.6997 37.7999C79.5997 38.3999 79.6997 38.3999 80.1997 38.3999C81.2997 38.3999 82.2997 38.3999 83.3997 38.3999C83.8997 38.3999 83.8997 38.2999 83.9997 37.8999C84.0997 36.7999 85.1997 25.9999 85.2997 25.0999C85.3997 24.1999 84.8997 23.5999 83.9997 23.3999C83.7997 23.3999 80.8997 23.3999 79.5997 23.3999C78.3997 23.3999 77.8997 23.7999 77.4997 24.8999C76.7997 27.0999 75.2997 31.7999 75.2997 31.9999C75.0997 30.6999 74.7997 25.7999 74.6997 24.6999C74.5997 23.9999 74.1997 23.5999 73.4997 23.3999C73.2997 23.3999 73.0997 23.3999 72.8997 23.3999C71.5997 23.3999 70.3997 23.3999 69.0997 23.3999C68.8997 23.3999 68.6997 23.3999 68.3997 23.3999C67.7997 23.4999 67.2997 23.7999 67.0997 24.2999C66.9997 24.4999 66.9997 24.6999 66.8997 24.8999C66.4997 27.0999 65.2997 35.6999 64.9997 37.6999C64.8997 38.2999 64.9997 38.2999 65.4997 38.2999C66.4997 38.2999 67.3997 38.2999 68.3997 38.2999C69.2997 38.3999 69.3997 38.3999 69.4997 37.6999Z" fill="#EABF98"/>
<path d="M76.5 45.6002L77 42.2002H75.9L75 47.5002H76.2L79 44.2002L78.4 47.5002H79.6L80.5 42.2002H79.3L76.5 45.6002Z" fill="#EABF98"/>
<path d="M61.6992 44.2003H60.8992L61.1992 42.3003H59.9992L59.1992 47.6003H59.3992C59.8992 47.6003 60.5992 47.7003 61.4992 47.7003C62.1992 47.7003 62.6992 47.6003 62.9992 47.3003C63.2992 47.1003 63.4992 46.6003 63.5992 46.0003C63.6992 45.4003 63.5992 44.9003 63.2992 44.6003C62.8992 44.3003 62.3992 44.2003 61.6992 44.2003ZM62.2992 45.8003C62.1992 46.2003 62.0992 46.3003 61.9992 46.4003C61.8992 46.5003 61.6992 46.5003 61.1992 46.5003H60.3992L60.5992 45.1003H61.4992C61.9992 45.1003 62.0992 45.2003 62.0992 45.2003C62.2992 45.3003 62.2992 45.4003 62.2992 45.8003Z" fill="#EABF98"/>
<path d="M56.8992 44.2002H54.8992L55.1992 42.2002H53.9992L53.1992 47.5002H54.3992L54.7992 45.2002H56.7992L56.3992 47.5002H57.5992L58.3992 42.2002H57.1992L56.8992 44.2002Z" fill="#EABF98"/>
<path d="M64.8996 23.5C64.7996 23.5 59.5996 23.5 57.9996 23.5C55.0996 23.5 54.5996 26.4 54.4996 26.8C54.2996 27.5 53.3996 31.6 52.7996 33.2C52.3996 34.2 51.4996 34.9 50.3996 35C49.7996 35.1 49.7996 35.2 49.6996 35.7C49.5996 36.2 49.5996 36.7 49.4996 37.2C49.3996 37.9 49.4996 38.1 50.1996 38.3C50.8996 38.5 51.4996 38.5 52.1996 38.5C52.7996 38.5 53.4996 38.3 53.9996 38C55.2996 37.4 55.9996 36.2 56.8996 33.3C57.3996 31.4 57.8996 29.5 58.3996 27.6C58.5996 26.7 59.1996 26.3 60.0996 26.5C60.2996 26.5 60.3996 26.7 60.3996 26.9C60.2996 27.8 59.1996 35.8 58.8996 37.8C58.7996 38.2 58.8996 38.3 59.2996 38.4C60.5996 38.4 61.7996 38.4 63.0996 38.4C63.4996 38.4 63.5996 38.3 63.6996 37.9C63.8996 36.8 65.4996 25.2 65.6996 24C65.5996 23.5 65.4996 23.5 64.8996 23.5Z" fill="#EABF98"/>
<path d="M84.8992 42.5002C84.5992 42.3002 84.0992 42.2002 83.3992 42.2002C82.7992 42.2002 82.2992 42.2002 81.7992 42.3002H81.5992V43.2002H81.7992C82.3992 43.1002 82.8992 43.1002 83.2992 43.1002C83.7992 43.1002 83.8992 43.2002 83.9992 43.2002C83.9992 43.2002 84.0992 43.4002 83.9992 43.6002C83.9992 43.8002 83.8992 44.0002 83.7992 44.1002C83.6992 44.2002 83.4992 44.2002 83.0992 44.2002H81.9992L81.8992 45.2002H83.0992C83.5992 45.2002 83.6992 45.3002 83.7992 45.3002C83.8992 45.4002 83.8992 45.6002 83.8992 45.8002C83.8992 46.1002 83.7992 46.2002 83.5992 46.3002C83.4992 46.4002 83.2992 46.4002 82.7992 46.4002C82.2992 46.4002 81.6992 46.4002 81.0992 46.3002H80.8992L80.6992 47.2002H80.8992C81.3992 47.3002 82.0992 47.4002 82.8992 47.4002C83.5992 47.4002 84.0992 47.3002 84.3992 47.1002C84.6992 46.9002 84.8992 46.5002 84.9992 46.0002C85.0992 45.5002 84.9992 45.1002 84.7992 44.8002C84.6992 44.7002 84.6992 44.6002 84.5992 44.6002C84.6992 44.5002 84.7992 44.5002 84.8992 44.4002C85.0992 44.2002 85.1992 43.9002 85.2992 43.5002C85.2992 43.2002 85.1992 42.7002 84.8992 42.5002Z" fill="#EABF98"/>
<path d="M36.5996 28.0999C36.6996 27.4999 36.7996 26.8999 36.7996 26.2999C36.7996 24.8999 36.1996 23.8999 34.7996 23.4999C34.5996 23.3999 34.2996 23.3999 34.0996 23.3999H26.3996C25.3996 23.3999 25.3996 23.3999 25.1996 24.3999C24.5996 28.3999 23.3996 36.1999 23.0996 37.9999C23.0996 38.1999 23.1996 38.2999 23.3996 38.3999C23.5996 38.3999 28.7996 38.3999 31.2996 38.3999C31.8996 38.3999 32.5996 38.2999 33.1996 38.1999C34.3996 37.9999 35.4996 37.4999 35.9996 36.2999C36.3996 35.1999 36.5996 33.9999 36.3996 32.8999C36.2996 32.1999 35.8996 31.5999 35.3996 31.2999C35.1996 31.0999 34.8996 30.9999 34.5996 30.9999C34.0996 30.8999 33.5996 30.7999 33.5996 30.7999C33.5996 30.7999 34.2996 30.5999 34.4996 30.5999C35.6996 30.1999 36.3996 29.3999 36.5996 28.0999ZM31.4996 34.5999C31.3996 35.0999 30.9996 35.2999 30.4996 35.3999C29.9996 35.3999 29.3996 35.3999 28.7996 35.3999C28.5996 35.3999 28.3996 35.1999 28.3996 34.9999C28.4996 34.1999 28.5996 33.3999 28.7996 32.5999C28.7996 32.3999 28.9996 32.1999 29.1996 32.1999C29.7996 32.1999 30.4996 32.1999 31.0996 32.1999C31.5996 32.1999 31.7996 32.4999 31.7996 32.8999C31.6996 33.4999 31.5996 33.9999 31.4996 34.5999ZM31.9996 28.5999C31.8996 28.8999 31.6996 29.0999 31.3996 29.0999C30.7996 29.1999 30.0996 29.1999 29.4996 29.0999C29.3996 29.0999 29.2996 28.9999 29.2996 28.7999C29.3996 28.0999 29.4996 27.3999 29.5996 26.6999C29.5996 26.4999 29.7996 26.3999 29.9996 26.3999C30.5996 26.3999 31.1996 26.3999 31.7996 26.3999C32.0996 26.3999 32.2996 26.6999 32.2996 26.9999C32.1996 27.6999 32.0996 28.0999 31.9996 28.5999Z" fill="#EABF98"/>
<path d="M175.199 29.3002C173.399 30.6002 171.199 31.4002 168.999 31.6002C168.299 31.7002 167.799 32.3002 167.899 33.0002C167.999 33.7002 168.499 34.1002 169.199 34.1002H169.299C171.899 33.8002 174.499 32.9002 176.699 31.4002C177.299 31.0002 177.399 30.2002 176.999 29.6002C176.599 29.1002 175.799 28.9002 175.199 29.3002Z" fill="#EABF98"/>
<path d="M177.499 14.9001C176.799 15.1001 176.399 15.8001 176.599 16.5001C176.799 17.3001 176.899 18.1001 176.899 19.0001C176.899 23.9001 172.899 27.9001 167.999 27.9001C167.299 27.9001 166.699 28.5001 166.699 29.2001C166.699 29.9001 167.299 30.5001 167.999 30.5001C174.299 30.5001 179.499 25.4001 179.499 19.0001C179.499 17.9001 179.399 16.8001 179.099 15.8001C178.899 15.1001 178.199 14.7001 177.499 14.9001Z" fill="#EABF98"/>
<path d="M166 35.0001C164.9 35.6001 163.7 36.0001 162.5 36.0001C158.7 36.0001 155.6 32.9001 155.6 29.1001C155.6 25.3001 158.7 22.2001 162.5 22.2001C163.2 22.2001 163.8 21.6001 163.8 20.9001C163.8 20.2001 163.2 19.6001 162.5 19.6001C157.3 19.6001 153.1 23.8001 153.1 29.0001C153.1 34.2001 157.3 38.4001 162.5 38.4001C164.2 38.4001 165.9 37.9001 167.4 37.1001C168 36.7001 168.2 36.0001 167.8 35.4001C167.4 34.8001 166.6 34.7001 166 35.0001Z" fill="#EABF98"/>
<path d="M160.6 39.2002C160 39.5002 159.7 40.2002 160 40.9002C160.8 42.6002 161.2 44.4002 161.2 46.3002C161.2 47.0002 161.8 47.6002 162.5 47.6002C163.2 47.6002 163.8 47.0002 163.8 46.3002C163.8 44.0002 163.3 41.9002 162.4 39.8002C162 39.2002 161.3 38.9002 160.6 39.2002Z" fill="#EABF98"/>
<path d="M101 42.2002L98.1998 45.6002L98.7998 42.2002H97.5998L96.7998 47.5002H97.9998L100.7 44.2002L100.2 47.5002H101.4L102.2 42.2002H101Z" fill="#EABF98"/>
<path d="M114.499 30.7999C114.999 29.3999 115.199 27.8999 115.099 26.3999C114.899 24.3999 112.899 23.7999 112.799 23.7999C111.999 23.5999 111.199 23.3999 110.299 23.3999C108.399 23.3999 105.199 23.3999 104.199 23.3999C103.399 23.3999 103.299 23.3999 103.199 24.1999C103.199 24.2999 101.599 35.7999 101.299 37.6999C101.199 38.3999 101.299 38.4999 101.999 38.4999C103.099 38.4999 104.099 38.4999 105.199 38.4999C105.899 38.4999 105.999 38.3999 106.099 37.6999C106.299 36.3999 106.499 35.0999 106.699 33.8999C106.799 33.3999 106.799 33.2999 107.299 33.3999C107.799 33.3999 110.899 33.4999 111.999 33.1999C113.199 32.7999 114.099 31.9999 114.499 30.7999ZM110.199 29.1999C110.099 29.6999 109.799 29.8999 109.199 29.8999C108.999 29.8999 108.699 29.8999 108.499 29.8999C108.199 29.8999 107.899 29.8999 107.599 29.8999C107.399 29.8999 107.199 29.7999 107.299 29.4999C107.399 28.6999 107.499 27.8999 107.599 27.0999C107.599 26.7999 107.799 26.6999 108.099 26.6999C108.699 26.6999 109.199 26.6999 109.799 26.6999C110.299 26.6999 110.599 26.9999 110.499 27.4999C110.399 28.0999 110.299 28.6999 110.199 29.1999Z" fill="#EABF98"/>
<path d="M148 34.3999C141.4 34.3999 136.1 39.7999 136.1 46.2999C136.1 46.9999 136.7 47.5999 137.4 47.5999C138.1 47.5999 138.7 46.9999 138.7 46.2999C138.7 41.0999 142.9 36.8999 148.1 36.8999C153.3 36.8999 157.5 41.0999 157.5 46.2999C157.5 46.9999 158.1 47.5999 158.8 47.5999C159.5 47.5999 160.1 46.9999 160.1 46.2999C160 39.6999 154.6 34.3999 148 34.3999Z" fill="#EABF98"/>
<path d="M95.0996 42.5002C94.8996 42.9002 94.6996 43.1002 94.6996 43.3002C94.5996 43.4002 94.4996 43.6002 94.2996 43.8002C94.0996 44.0002 93.9996 44.1002 93.8996 44.2002C93.7996 44.3002 93.5996 44.3002 93.3996 44.3002H93.1996C93.1996 44.2002 93.1996 44.1002 93.2996 44.0002L93.5996 42.2002H92.3996L91.5996 47.5002H92.7996L93.0996 45.6002C93.0996 45.5002 93.0996 45.4002 93.0996 45.3002H93.4996C93.5996 45.3002 93.6996 45.3002 93.6996 45.3002C93.7996 45.3002 93.7996 45.3002 93.8996 45.4002C93.8996 45.4002 93.9996 45.4002 93.9996 45.5002L94.1996 45.7002C94.1996 45.7002 94.1996 45.7002 94.2996 45.9002C94.2996 46.0002 94.3996 46.1002 94.3996 46.1002C94.3996 46.1002 94.3996 46.2002 94.4996 46.4002C94.4996 46.5002 94.5996 46.7002 94.5996 46.7002C94.5996 46.8002 94.6996 46.9002 94.6996 47.1002C94.6996 47.3002 94.7996 47.4002 94.7996 47.5002V47.7002H95.9996V47.5002C95.9996 47.4002 95.9996 47.3002 95.8996 47.1002C95.6996 46.3002 95.4996 45.8002 95.3996 45.5002C95.2996 45.3002 95.0996 45.1002 94.8996 45.0002C94.9996 44.9002 95.0996 44.9002 95.0996 44.9002C95.1996 44.9002 95.2996 44.8002 95.3996 44.7002C95.4996 44.6002 95.4996 44.5002 95.5996 44.5002C95.6996 44.4002 95.6996 44.3002 95.7996 44.2002C95.8996 44.1002 95.8996 44.0002 95.9996 43.9002C95.9996 43.8002 96.0996 43.7002 96.1996 43.5002C96.2996 43.3002 96.3996 43.2002 96.3996 43.1002C96.3996 43.0002 96.4996 42.9002 96.5996 42.7002L96.7996 42.4002H95.4996L95.0996 42.5002Z" fill="#EABF98"/>
<path d="M94.8 35.3C95.3 35.3 95.3 35.3 95.4 35.9C95.5 36.6 95.5 37.2 95.6 37.9C95.7 38.4 95.7 38.5 96.3 38.5H99.8C100.3 38.5 100.4 38.4 100.3 37.9C100.3 37.6 99.1 29.8 98.6 25.8C98.4 24.7 97.8 23.5 95.7 23.5C94.4 23.5 95.7 23.5 94.4 23.5C91.9 23.5 91.1 24.3 90.3 26.2C88.7 30.1 86 36.6 85.3 38.3C85.2 38.5 85.3 38.6 85.5 38.6C86.3 38.6 88.5 38.6 89.6 38.6C90 38.6 90.2 38.4 90.3 38.1C90.6 37.4 90.8 36.7 91.1 36C91.2 35.6 91.4 35.5 91.8 35.5C92.8 35.3 93.8 35.3 94.8 35.3ZM92.8 31.5L94.4 27.2C94.4 27.1 94.5 27.1 94.5 27.2L95 31.5C95 31.6 94.9 31.8 94.8 31.8H93C92.8 31.8 92.7 31.6 92.8 31.5Z" fill="#EABF98"/>
<path d="M88.6992 44.2003H87.8992L88.1992 42.3003H86.9992L86.1992 47.6003H86.3992C86.8992 47.6003 87.5992 47.7003 88.4992 47.7003C89.1992 47.7003 89.6992 47.6003 89.9992 47.3003C90.2992 47.1003 90.4992 46.6003 90.5992 46.0003C90.6992 45.4003 90.5992 44.9003 90.2992 44.6003C89.8992 44.3003 89.3992 44.2003 88.6992 44.2003ZM89.2992 45.8003C89.1992 46.2003 89.0992 46.3003 89.0992 46.4003C88.9992 46.5003 88.7992 46.5003 88.2992 46.5003H87.4992L87.6992 45.1003H88.5992C89.0992 45.1003 89.1992 45.2003 89.1992 45.2003C89.2992 45.3003 89.2992 45.4003 89.2992 45.8003Z" fill="#EABF98"/>
<path d="M106.799 42.2002L105.299 44.3002L104.399 42.2002H103.199L104.299 44.8002L102.199 47.5002H103.599L105.199 45.3002L106.199 47.5002H107.499L106.299 44.8002L108.199 42.2002H106.799Z" fill="#EABF98"/>
<path d="M129 23.3999C128.9 23.3999 118.2 23.3999 117.3 23.3999C116.8 23.3999 116.7 23.4999 116.6 23.9999C116.6 24.1999 116.3 25.7999 116.3 26.3999C116.2 26.7999 116.3 26.8999 116.7 26.8999C116.9 26.8999 117 26.8999 117.2 26.8999C118.1 26.8999 118.9 26.8999 119.8 26.8999C120.3 26.8999 120.4 26.9999 120.3 27.4999C119.9 30.1999 118.9 37.0999 118.9 37.8999C118.9 38.2999 118.9 38.3999 119.3 38.3999C120.6 38.3999 121.8 38.3999 123.1 38.3999C123.4 38.3999 123.6 38.2999 123.6 37.9999C123.6 37.8999 124.6 30.9999 125 27.6999C125.1 26.9999 125.2 26.9999 125.9 26.8999C126.8 26.8999 127.7 26.8999 128.7 26.8999C129.3 26.8999 129.3 26.8999 129.4 26.2999C129.5 25.5999 129.6 24.7999 129.7 23.9999C129.7 23.4999 129.6 23.4999 129 23.3999Z" fill="#EABF98"/>
<path d="M117 42.2002L116.3 46.6002H114.4L115.1 42.2002H113.9L113 47.5002H117L116.9 48.6002H117.9L118.2 46.6002H117.6L118.2 42.2002H117Z" fill="#EABF98"/>
<path d="M148 33.2002C149.1 33.2002 150.1 33.3002 151.2 33.6002C151.9 33.8002 152.6 33.4002 152.7 32.7002C152.9 32.0002 152.5 31.3002 151.8 31.2002C150.6 30.9002 149.3 30.7002 148 30.7002C139.4 30.7002 132.3 37.7002 132.3 46.4002C132.3 47.1002 132.9 47.7002 133.6 47.7002C134.3 47.7002 134.9 47.1002 134.9 46.4002C134.9 39.1002 140.8 33.2002 148 33.2002Z" fill="#EABF98"/>
<path d="M119.1 47.5002H120.3L121.2 42.2002H120L119.1 47.5002Z" fill="#EABF98"/>
<path d="M125.6 44.2002H123.6L123.9 42.2002H122.7L121.8 47.5002H123.1L123.4 45.2002H125.4L125 47.5002H126.2L127.1 42.2002H125.9L125.6 44.2002Z" fill="#EABF98"/>
<path d="M157 29.1003C157 32.2003 159.5 34.7003 162.6 34.7003C164.1 34.7003 165.5 34.1003 166.6 33.0003C167.1 32.5003 167.1 31.7003 166.6 31.2003C166.1 30.7003 165.3 30.7003 164.8 31.2003C164.2 31.8003 163.4 32.1003 162.6 32.1003C160.9 32.1003 159.5 30.7003 159.5 29.0003C159.5 27.3003 160.9 25.9003 162.6 25.9003C163 25.9003 163.4 26.0003 163.8 26.1003C164.4 26.4003 165.2 26.1003 165.5 25.4003C165.8 24.8003 165.5 24.0003 164.8 23.7003C164.1 23.4003 163.4 23.3003 162.6 23.3003C159.5 23.5003 157 26.0003 157 29.1003Z" fill="#EABF98"/>
</svg>
