<svg width="200" height="68" viewBox="0 0 200 68" fill="none" xmlns="http://www.w3.org/2000/svg">
<path d="M150.2 31.7001C153.1 29.2001 156 26.7001 159 24.2001C158.8 24.2001 158.7 24.1001 158.6 24.1001C156.1 24.1001 153.7 24.1001 151.2 24.1001C151 24.1001 150.7 24.3001 150.5 24.4001C148.6 26.1001 146.7 27.8001 144.7 29.5001C144.2 29.9001 143.8 30.3001 143.2 30.8001C143.2 28.5001 143.2 26.3001 143.2 24.1001C141.1 24.1001 139.1 24.1001 137 24.1001C137 30.3001 137 36.4001 137 42.6001C139.1 42.6001 141.1 42.6001 143.2 42.6001C143.2 42.4001 143.2 42.1001 143.2 41.9001C143.2 40.6001 143.2 39.3001 143.2 38.0001C143.2 37.8001 143.2 37.5001 143.4 37.4001C144.1 36.8001 144.8 36.2001 145.6 35.5001C145.8 35.8001 146 36.0001 146.2 36.3001C147.7 38.3001 149.1 40.2001 150.6 42.2001C150.8 42.4001 151.1 42.6001 151.4 42.6001C153.6 42.6001 155.8 42.6001 158 42.6001C158.2 42.6001 158.3 42.6001 158.6 42.5001C155.9 38.9001 153.1 35.3001 150.2 31.7001Z" fill="#EABF98"/>
<path d="M111.5 38.0002C107.1 38.0002 102.8 38.0002 98.3998 38.0002C98.3998 37.0002 98.3998 36.1002 98.3998 35.2002C102 35.2002 105.6 35.2002 109.2 35.2002C109.2 33.9002 109.2 32.7002 109.2 31.5002C105.6 31.5002 102 31.5002 98.3998 31.5002C98.3998 30.6002 98.3998 29.7002 98.3998 28.8002C102.6 28.8002 106.8 28.8002 111 28.8002C111 27.2002 111 25.7002 111 24.2002C104.7 24.2002 98.4998 24.2002 92.2998 24.2002C92.2998 30.4002 92.2998 36.5002 92.2998 42.7002C98.6998 42.7002 105.1 42.7002 111.5 42.7002C111.5 41.1002 111.5 39.6002 111.5 38.0002Z" fill="#EABF98"/>
<path d="M79.1998 37.3002C82.4998 34.2002 85.7998 31.0002 89.0998 27.9002C89.2998 27.7002 89.4998 27.5002 89.4998 27.4002C89.4998 26.3002 89.4998 25.3002 89.4998 24.2002C82.5998 24.2002 75.8998 24.2002 69.0998 24.2002C69.0998 25.8002 69.0998 27.3002 69.0998 28.9002C72.6998 28.9002 76.2998 28.9002 79.7998 28.9002C79.7998 29.0002 79.8998 29.0002 79.8998 29.1002C79.7998 29.2002 79.6998 29.3002 79.4998 29.4002C76.0998 32.6002 72.5998 35.8002 69.1998 39.1002C68.9998 39.3002 68.7998 39.5002 68.7998 39.7002C68.7998 40.7002 68.7998 41.7002 68.7998 42.7002C75.6998 42.7002 82.5998 42.7002 89.4998 42.7002C89.4998 41.1002 89.4998 39.5002 89.4998 37.9002C85.8998 37.9002 82.2998 37.9002 78.6998 37.9002C78.8998 37.5002 78.9998 37.4002 79.1998 37.3002Z" fill="#EABF98"/>
<path d="M134.8 24.1001C127.6 24.1001 120.4 24.1001 113.2 24.1001C113.2 25.7001 113.2 27.2001 113.2 28.9001C115.8 28.9001 118.3 28.9001 120.8 28.9001C120.8 33.5001 120.8 38.1001 120.8 42.6001C122.9 42.6001 125 42.6001 127.1 42.6001C127.1 38.0001 127.1 33.5001 127.1 28.9001C129.7 28.9001 132.2 28.9001 134.8 28.9001C134.8 27.2001 134.8 25.7001 134.8 24.1001Z" fill="#EABF98"/>
<path d="M61.7997 24.7C57.0997 23.1 52.2997 23.1 47.5997 24.7C43.8997 25.9 41.7997 28.6 41.4997 32.6C41.1997 37.3 43.4997 40.7 47.9997 42.2C50.1997 42.9 52.3997 43.1 54.6997 43.1C54.6997 43.2 54.6997 43.2 54.6997 43.3C56.5997 43 58.5997 42.9 60.4997 42.4C64.9997 41.3 67.4997 38.4 67.7997 34.1C68.1997 29.6 66.0997 26.2 61.7997 24.7ZM57.9997 37.8C56.9997 38.1 55.8997 38.2 54.8997 38.3C53.7997 38.2 52.8997 38.1 51.8997 37.9C49.1997 37.3 47.8997 35.2 48.2997 32.5C48.5997 30.6 49.6997 29.4 51.4997 28.8C53.5997 28.2 55.7997 28.2 57.8997 28.8C60.0997 29.4 61.1997 30.9 61.1997 33.2C61.2997 35.7 60.1997 37.2 57.9997 37.8Z" fill="#EABF98"/>
<path d="M37.0998 25.5C35.6998 24.5 33.9998 24.1 32.2998 24.1C27.7998 24 23.1998 24.1 18.6998 24C18.5998 24 18.4998 24 18.2998 24C18.2998 30.2 18.2998 36.3 18.2998 42.5C20.3998 42.5 22.3998 42.5 24.4998 42.5C24.4998 40.8 24.4998 39.1 24.4998 37.3C25.6998 37.3 26.8998 37.3 27.9998 37.3C28.2998 37.3 28.5998 37.5 28.7998 37.7C30.0998 39.1 31.2998 40.6 32.5998 42.1C32.7998 42.3 33.1998 42.5 33.4998 42.5C35.6998 42.5 37.8998 42.5 40.0998 42.5C40.2998 42.5 40.3998 42.5 40.6998 42.4C38.8998 40.4 37.2998 38.5 35.5998 36.5C36.2998 36 36.9998 35.6 37.5998 35.1C40.5998 32.6 40.3998 27.7 37.0998 25.5ZM31.7998 33C31.4998 33.1 31.0998 33.2 30.7998 33.2C28.6998 33.2 26.6998 33.2 24.4998 33.2C24.4998 31.6 24.4998 30.1 24.4998 28.5L24.5998 28.4C26.7998 28.4 28.9998 28.4 31.1998 28.4C32.2998 28.4 33.0998 29.2 33.1998 30.2C33.3998 31.6 32.8998 32.6 31.7998 33Z" fill="#EABF98"/>
<path d="M176.7 24.7001C176.5 24.2001 176.3 24.1001 175.7 24.1001C173.4 24.1001 171.1 24.1001 168.9 24.1001C168.3 24.1001 168 24.3001 167.8 24.8001C165.2 30.5001 162.5 36.2001 159.8 42.0001C159.7 42.2001 159.6 42.4001 159.5 42.7001C161.8 42.7001 163.9 42.7001 166.1 42.7001C166.3 42.7001 166.5 42.4001 166.5 42.3001C166.9 41.4001 167.3 40.5001 167.6 39.6001C167.7 39.2001 167.9 39.1001 168.3 39.1001C170.9 39.1001 173.5 39.1001 176 39.1001C176.4 39.1001 176.5 39.2001 176.7 39.5001C177.1 40.4001 177.4 41.3001 177.8 42.2001C177.9 42.4001 178.1 42.6001 178.3 42.6001C180.5 42.6001 182.7 42.6001 184.9 42.6001V42.5001C184.8 42.3001 184.6 42.1001 184.5 41.8001C182 36.1001 179.3 30.4001 176.7 24.7001ZM169.4 35.3001C170.3 33.0001 171.2 30.8001 172.2 28.4001C173.2 30.8001 174.1 33.0001 175 35.3001C173.1 35.3001 171.3 35.3001 169.4 35.3001Z" fill="#EABF98"/>
</svg>
