<svg width="200" height="68" viewBox="0 0 200 68" fill="none" xmlns="http://www.w3.org/2000/svg">
<path d="M114.7 52.7999H137.8C139.2 52.7999 140.6 52.3999 141.9 51.7999C143.2 51.0999 144.3 50.1999 145.3 48.9999C146.3 47.7999 147 46.4999 147.6 45.0999C148.1 43.5999 148.4 41.9999 148.4 40.4999C148.4 38.7999 148.1 37.0999 147.6 35.4999C147.1 34.0999 146.3 32.7999 145.4 31.6999C144.5 30.6999 143.3 29.7999 142 29.2999C140.7 28.6999 139.3 28.3999 137.9 28.3999H127V37.9999H135.8C136.1 37.9999 136.5 37.9999 136.8 38.1999C137.1 38.2999 137.4 38.4999 137.6 38.7999C138 39.2999 138.3 39.9999 138.3 40.6999C138.3 41.1999 138.2 41.6999 138 42.0999C137.8 42.4999 137.5 42.7999 137.1 43.0999C136.7 43.3999 136.2 43.4999 135.8 43.4999H124.8V22.8999H145.1L155.2 13.3999H124.9L114.8 22.8999V52.7999H114.7Z" fill="#EABF98"/>
<path d="M73.0004 37.3999H65.1004L54.9004 46.9999H73.0004V52.2999H83.2004V12.8999H73.0004L44.9004 39.2999V53.2999L73.0004 26.8999V37.3999Z" fill="#EABF98"/>
<path d="M94.2004 52.7999H105.1V23.6999H111.3L122.2 13.3999H85.9004V23.6999H94.2004V52.7999Z" fill="#EABF98"/>
</svg>
