<svg width="200" height="68" viewBox="0 0 200 68" fill="none" xmlns="http://www.w3.org/2000/svg">
<path d="M97.9998 24.7002C95.9998 24.9002 93.3998 25.1002 91.4998 25.9002C89.2998 26.8002 87.7998 28.7002 87.7998 31.5002C87.7998 35.1002 90.0998 36.9002 92.9998 36.9002C95.4998 36.9002 96.7998 36.3002 98.6998 34.4002C99.2998 35.3002 99.4998 35.7002 100.7 36.7002C101 36.8002 101.3 36.8002 101.5 36.6002C102.2 36.0002 103.4 34.9002 104.1 34.3002C104.4 34.1002 104.3 33.7002 104.1 33.4002C103.5 32.5002 102.8 31.8002 102.8 30.2002V24.8002C102.8 22.5002 103 20.4002 101.3 18.9002C99.9998 17.6002 97.7998 17.2002 96.0998 17.2002C92.7998 17.2002 89.1998 18.4002 88.3998 22.5002C88.2998 22.9002 88.5998 23.2002 88.8998 23.2002L92.1998 23.6002C92.4998 23.6002 92.6998 23.3002 92.7998 23.0002C93.0998 21.6002 94.2998 20.9002 95.5998 20.9002C96.2998 20.9002 97.0998 21.2002 97.4998 21.8002C97.9998 22.5002 97.8998 23.5002 97.8998 24.3002V24.7002H97.9998ZM97.3998 31.9002C96.8998 32.9002 95.9998 33.5002 94.9998 33.5002C93.6998 33.5002 92.8998 32.5002 92.8998 31.0002C92.8998 28.1002 95.4998 27.5002 97.9998 27.5002V28.2002C97.9998 29.6002 97.9998 30.7002 97.3998 31.9002Z" fill="#EABF98"/>
<path d="M148.999 17.4004C146.599 17.4004 145.299 18.6004 144.299 21.0004H144.199V18.3004C144.099 18.0004 143.899 17.8004 143.599 17.8004H140.399C140.099 17.8004 139.799 18.1004 139.699 18.4004V36.1004C139.699 36.4004 139.999 36.7004 140.299 36.7004H143.699C144.099 36.7004 144.399 36.4004 144.399 36.1004V26.6004C144.399 25.4004 144.499 24.3004 144.899 23.3004C145.299 22.4004 146.099 21.9004 146.899 21.9004C149.299 21.9004 149.099 24.7004 149.099 26.7004V36.3004C149.099 36.6004 149.399 36.8004 149.699 36.9004H153.199C153.499 36.9004 153.799 36.7004 153.899 36.3004V25.0004C153.899 23.3004 153.899 20.9004 152.999 19.5004C152.099 18.0004 150.599 17.4004 148.999 17.4004Z" fill="#EABF98"/>
<path d="M80.1 36.0004C80.1 36.3004 80.4 36.6004 80.7 36.6004H84.1C84.5 36.6004 84.8 36.3004 84.8 36.0004V24.8004C84.8 22.9004 85 20.7004 83.9 19.3004C82.9 18.0004 81.4 17.4004 79.9 17.4004C77.9 17.4004 76 18.4004 75.1 20.7004C74.1 18.5004 72.8 17.4004 70.6 17.4004C68.5 17.4004 66.9 18.4004 66.1 20.7004H66V18.4004C66 18.1004 65.7 17.8004 65.4 17.8004H62.2C61.8 17.8004 61.5 18.1004 61.5 18.4004V36.1004C61.5 36.4004 61.8 36.7004 62.1 36.7004H65.5C65.9 36.7004 66.2 36.4004 66.2 36.1004V26.7004C66.2 24.7004 66.1 21.8004 68.6 21.8004C71 21.8004 70.7 24.7004 70.7 26.7004V36.1004C70.7 36.4004 71 36.7004 71.3 36.7004H75C75.4 36.7004 75.7 36.4004 75.7 36.1004V26.7004C75.7 25.7004 75.7 24.2004 76 23.3004C76.4 22.4004 77.2 21.9004 78.1 21.9004C79.1 21.9004 79.9 22.2004 80.1 23.4004C80.3 24.1004 80.2 26.0004 80.2 26.7004V36.0004H80.1Z" fill="#EABF98"/>
<path d="M129.399 17.4004C124.399 17.4004 121.699 21.7004 121.699 27.2004C121.699 32.7004 124.399 37.1004 129.399 37.1004C134.199 37.1004 137.299 32.8004 137.299 27.4004C137.199 21.8004 134.499 17.4004 129.399 17.4004ZM129.399 33.4004C126.699 33.4004 126.699 28.8004 126.699 26.6004C126.699 24.4004 126.899 21.0004 129.399 21.0004C130.499 21.0004 131.299 21.5004 131.699 22.7004C132.199 24.1004 132.199 25.9004 132.199 27.4004C132.199 29.7004 131.999 33.4004 129.399 33.4004Z" fill="#EABF98"/>
<path d="M119.4 31.9002C117.4 30.8002 115.1 30.5002 112.9 30.5002L118.8 22.1002C119.3 21.3002 119.6 20.9002 119.7 20.5002V18.3002C119.7 17.9002 119.4 17.7002 119 17.7002H107.7C107.4 17.7002 107.1 18.0002 107.1 18.3002V20.8002C107.1 21.2002 107.4 21.4002 107.8 21.4002H113.7L106.9 31.1002C106.5 31.7002 106.5 32.4002 106.5 32.8002V35.4002C106.5 35.8002 106.9 36.2002 107.3 36.0002C111.1 34.0002 115.8 34.2002 119.3 36.0002C119.7 36.2002 120.1 35.8002 120.1 35.4002V32.7002C119.9 32.5002 119.8 32.1002 119.4 31.9002Z" fill="#EABF98"/>
<path d="M110.8 41.9003C103.6 45.0003 95.6996 46.5003 88.4996 46.5003C77.8996 46.5003 67.5996 43.6003 59.2996 38.8003C58.5996 38.4003 57.9996 39.1003 58.5996 39.7003C66.2996 46.7003 76.4996 50.8003 87.7996 50.8003C95.8996 50.8003 105.2 48.3003 111.7 43.5003C112.8 42.7003 111.9 41.5003 110.8 41.9003Z" fill="#EABF98"/>
<path d="M58.9996 33.4002C58.3996 32.5002 57.6996 31.8002 57.6996 30.2002V24.8002C57.6996 22.5002 57.8996 20.4002 56.1996 18.9002C54.8996 17.6002 52.6996 17.2002 50.9996 17.2002C47.6996 17.2002 44.0996 18.4002 43.2996 22.5002C43.1996 22.9002 43.4996 23.2002 43.7996 23.2002L47.0996 23.6002C47.3996 23.6002 47.5996 23.3002 47.6996 23.0002C47.9996 21.6002 49.1996 20.9002 50.4996 20.9002C51.1996 20.9002 51.9996 21.2002 52.3996 21.8002C52.8996 22.5002 52.7996 23.5002 52.7996 24.3002V24.7002C50.7996 24.9002 48.1996 25.1002 46.2996 25.9002C44.0996 26.8002 42.5996 28.7002 42.5996 31.5002C42.5996 35.1002 44.8996 36.9002 47.7996 36.9002C50.2996 36.9002 51.5996 36.3002 53.4996 34.4002C54.0996 35.3002 54.2996 35.7002 55.4996 36.7002C55.7996 36.8002 56.0996 36.8002 56.2996 36.6002C56.9996 36.0002 58.1996 34.9002 58.8996 34.3002C59.2996 34.1002 59.1996 33.7002 58.9996 33.4002ZM52.1996 31.9002C51.6996 32.9002 50.7996 33.5002 49.7996 33.5002C48.4996 33.5002 47.6996 32.5002 47.6996 31.0002C47.6996 28.1002 50.2996 27.5002 52.7996 27.5002V28.2002C52.8996 29.6002 52.8996 30.7002 52.1996 31.9002Z" fill="#EABF98"/>
<path d="M106.7 39.3001C106.1 39.7001 106.2 40.2001 106.9 40.2001C109 40.0001 113.6 39.4001 114.4 40.5001C115.2 41.6001 113.5 45.9001 112.7 47.9001C112.5 48.5001 113 48.7001 113.5 48.3001C117 45.4001 117.9 39.3001 117.2 38.4001C116.5 37.4001 110.4 36.7001 106.7 39.3001Z" fill="#EABF98"/>
</svg>
