<svg width="200" height="68" viewBox="0 0 200 68" fill="none" xmlns="http://www.w3.org/2000/svg">
<path d="M81.6002 41.6999C81.8002 41.1999 87.5002 29.0999 89.7002 24.2999C89.9002 23.9999 90.2002 23.4999 90.6002 23.4999V23.3999H83.1002V23.4999C83.3002 23.4999 83.7002 24.0999 83.5002 24.6999C83.4002 25.1999 82.7002 26.4999 82.4002 27.2999L80.3002 31.6999L77.1002 38.2999L74.0002 31.6999L71.9002 27.2999C71.6002 26.4999 70.9002 25.1999 70.8002 24.6999C70.6002 24.0999 71.0002 23.4999 71.2002 23.4999V23.3999H63.7002V23.4999C64.2002 23.4999 64.4002 23.9999 64.6002 24.2999C66.8002 28.9999 72.5002 41.0999 72.7002 41.6999C72.9002 42.3999 72.8002 42.9999 72.3002 42.9999V43.0999H77.2002H82.0002V42.9999C81.6002 42.8999 81.4002 42.2999 81.6002 41.6999Z" fill="#EABF98"/>
<path d="M92.0996 39.0998H92.1996H97.2996H97.3996H102.5H102.6C102.9 39.6998 103.9 41.7998 104.5 43.0998H111.1V42.9998C110.8 42.9998 110.1 42.4998 109.6 41.5998C107.3 36.7998 102.4 26.0998 101.9 24.9998C101.4 23.9998 101.7 23.4998 102.2 23.3998V23.2998H92.3996V23.3998C92.8996 23.4998 93.0996 23.9998 92.6996 24.9998C92.1996 26.0998 87.1996 36.7998 84.9996 41.5998C84.6996 42.4998 83.9996 42.9998 83.5996 42.9998V43.0998H90.1996C90.7996 41.7998 91.7996 39.5998 92.0996 39.0998ZM97.2996 27.9998L100.5 34.5998L97.3996 34.6998L94.1996 34.5998L97.2996 27.9998Z" fill="#EABF98"/>
<path d="M121.1 35.7C121.9 36.7 125.7 41.5 126.2 42C126.2 42 127.1 43.1 129.2 43.1H134.5V43C134 43 133.3 42.3 132.6 41.7L127.1 35.7C129.9 34.6 132.1 32.9 132.1 29.7C132.1 25.6 129.2 23.5 124.7 23.5H110.3V23.6C110.8 23.7 111.3 25 111.3 26.6V40.2C111.3 41.8 113.4 43.2 114.7 43.2H118.1V43C117.5 42.9 116.9 42.3 116.9 41.2V35.7H121.1ZM116.8 27.1H122.8C125.5 27.1 126.2 28.1 126.2 29.5C126.3 31.1 125.1 31.9 123.1 31.9H116.7V27.1H116.8Z" fill="#EABF98"/>
<path d="M133.4 26.4999V34.7999C133.4 39.4999 136 43.5999 143.9 43.5999C151.8 43.5999 154.4 39.5999 154.4 34.7999V26.4999C154.4 24.4999 155 23.5999 155.7 23.4999V23.3999H147.7V23.4999C148 23.5999 148.4 24.7999 148.4 26.4999V35.8999C148.4 38.1999 146.5 39.0999 143.9 39.0999C141.3 39.0999 139.4 38.1999 139.4 35.8999V26.4999C139.4 24.7999 139.9 23.5999 140.1 23.4999V23.3999H132.1V23.4999C132.8 23.4999 133.4 24.4999 133.4 26.4999Z" fill="#EABF98"/>
<path d="M27.9 34.1001C26.9 34.1001 26 34.2001 25 34.4001C25.3 39.7001 28.6 44.2001 33.3 46.2001C33.8 42.9001 35.3 40.0001 37.4 37.7001C34.8 35.4001 31.5 34.1001 27.9 34.1001Z" fill="#EABF98"/>
<path d="M36.7002 47.0997C36.0002 48.1997 35.3002 49.3997 34.7002 50.5997L35.6002 51.0997C36.1002 49.7997 36.7002 48.4997 37.4002 47.2997C37.9002 47.3997 38.2002 47.3997 38.7002 47.3997C46.1002 47.3997 52.2002 41.6997 52.5002 34.4997C51.6002 34.2997 50.6002 34.1997 49.6002 34.1997C42.1002 34.1997 36.0002 39.6997 35.0002 46.8997H35.1002C38.0002 42.6997 41.9002 39.4997 46.5002 37.8997C46.6002 37.7997 46.7002 37.7997 46.8002 37.7997C42.3002 40.1997 39.2002 43.4997 36.7002 47.0997Z" fill="#EABF98"/>
<path d="M24.7 32.3999C25.7 32.1999 26.8 32.0999 27.9 32.0999C32.1 32.0999 35.9 33.5999 38.8 36.1999C41.7 33.6999 45.5 32.0999 49.7 32.0999C50.8 32.0999 51.8 32.1999 52.9 32.3999C53.4 31.1999 53.6 29.9999 53.9 28.5999C54.3 25.7999 54.1 23.1999 54 22.7999C53.7 22.7999 51 23.1999 48.4 24.2999C46.9 24.8999 45.6 25.6999 44.4 26.4999C44 24.8999 43.4 23.1999 42.4 21.4999C41 19.0999 39.2 17.0999 39 16.8999C38.7 17.0999 36.9 18.9999 35.5 21.4999C34.5 23.1999 33.9 24.7999 33.5 26.4999C32.3 25.6999 31 24.8999 29.5 24.2999C26.9 23.1999 24.2 22.7999 23.9 22.7999C23.8 23.0999 23.6 25.7999 24 28.5999C23.9 29.9999 24.2 31.2999 24.7 32.3999Z" fill="#EABF98"/>
<path d="M166.7 39.3C163.7 39.3 159.5 38.5 158 37.5C157.9 37.5 157.9 37.4 157.9 37.4C157.8 37.3 157.8 37.3 157.8 37.3C157.3 37 157.1 36.6 157.1 36.6L155.7 41.7L155.9 41.8C156.2 41.6 156.6 41.6 157.1 41.7C157.4 41.8 162.5 43.3 166.9 43.3C173.7 43.4 176.6 40.4 176.5 36.9C176.2 29.1 161.6 32.4 161.6 29.2C161.5 27.2 165.6 27.2 166.7 27.2C169.6 27.2 172.2 27.8 173.6 29.5L175.9 24.2L175.7 24.1C175.5 24.2 175.2 24.3 174.6 24.2C173.6 24.1 169.9 23 165.6 23C158.2 23 155.8 26.9 155.8 29.7C156 37.3 170.6 33.8 170.7 37.3C170.8 39.1 167.8 39.3 166.7 39.3Z" fill="#EABF98"/>
</svg>
