<svg width="23" height="23" viewBox="0 0 23 23" fill="none" xmlns="http://www.w3.org/2000/svg">
<path d="M9.57013 22.4509C4.43013 21.7209 -0.0298495 17.3308 0.000150477 11.2006C0.0301505 4.89041 5.15013 0.0100623 11.2001 6.20172e-05C17.2701 -0.0199386 22.2701 4.80015 22.4501 10.9403C22.5401 13.9804 21.5801 16.6805 19.5101 18.9406C17.8501 20.7506 15.8302 21.941 13.4102 22.471V14.3906H15.6002C15.7702 13.3306 15.9302 12.2907 16.1002 11.2206H12.7801C12.7801 11.1306 12.7701 11.0704 12.7701 11.0004C12.7701 10.3604 12.7701 9.72019 12.7701 9.07017C12.7701 8.13014 13.3001 7.52023 14.2401 7.44023C14.8001 7.39023 15.3702 7.41019 15.9402 7.40019C16.1402 7.40019 16.3501 7.40019 16.5701 7.40019V4.62032C16.1601 4.57032 15.7501 4.51042 15.3301 4.47041C14.4101 4.39041 13.4901 4.34002 12.5801 4.57003C10.9801 4.98004 9.93013 6.15004 9.70013 7.78009C9.63013 8.2701 9.62014 8.77035 9.61014 9.27037C9.60014 9.90039 9.61014 10.5406 9.61014 11.2006H7.08014V14.3706H9.59015V22.4407L9.57013 22.4509Z" fill="#633510"/>
</svg>
