<svg width="22" height="22" viewBox="0 0 22 22" fill="none" xmlns="http://www.w3.org/2000/svg">
<path d="M10.7137 21.5044C9.12374 21.4644 7.54373 21.4541 5.95373 21.3741C4.32373 21.2941 2.84374 20.784 1.68374 19.564C0.803743 18.6339 0.313723 17.5239 0.163723 16.2738C0.0537233 15.3938 0.00375019 14.5039 0.00375019 13.6238C-0.00624981 11.3238 0.00374897 9.02379 0.033749 6.72372C0.043749 5.69369 0.153728 4.67364 0.543728 3.70361C1.28373 1.87355 2.64374 0.753592 4.55374 0.283578C5.64374 0.0135694 6.76374 0.0137842 7.86374 0.00378393C10.1237 -0.00621638 12.3937 0.00356908 14.6537 0.03357C15.6637 0.0435703 16.6637 0.143788 17.6237 0.503799C19.5237 1.22382 20.6737 2.59367 21.1637 4.55373C21.3537 5.33375 21.4137 6.14391 21.4137 6.94394C21.4137 9.40402 21.4137 11.864 21.4137 14.3241C21.4137 15.4041 21.3438 16.4743 20.9738 17.5043C20.2438 19.5344 18.7937 20.7441 16.7037 21.2041C15.5337 21.4642 14.3437 21.4242 13.1537 21.4542C12.3337 21.4742 11.5137 21.4542 10.7037 21.4542C10.7037 21.4642 10.7037 21.4842 10.7037 21.4942L10.7137 21.5044ZM10.7337 19.564C10.7337 19.564 10.7337 19.5442 10.7337 19.5342C11.3037 19.5342 11.8637 19.5542 12.4337 19.5342C13.6537 19.4942 14.8837 19.504 16.0937 19.354C17.7437 19.144 18.8637 18.1939 19.2637 16.5438C19.4237 15.8838 19.4837 15.174 19.4937 14.494C19.5337 12.3439 19.5337 10.1839 19.5237 8.03382C19.5237 7.17379 19.4737 6.30392 19.3737 5.44389C19.1537 3.69384 18.0837 2.52355 16.3637 2.18354C15.6337 2.03353 14.8637 1.99383 14.1137 1.98383C12.1037 1.95382 10.0837 1.95382 8.07373 1.98383C7.14373 1.99383 6.19374 2.02351 5.27374 2.16352C3.63374 2.40353 2.51374 3.46348 2.18374 5.08353C2.04374 5.78355 1.99375 6.51371 1.97375 7.22373C1.93375 8.96379 1.92372 10.7041 1.94372 12.4441C1.95372 13.6341 1.98373 14.8338 2.10373 16.0238C2.23373 17.3339 2.88375 18.3743 4.09375 18.9844C4.72375 19.3044 5.40375 19.4443 6.09375 19.4643C7.63375 19.5143 9.18375 19.544 10.7238 19.584L10.7337 19.564Z" fill="#633510"/>
<path d="M10.7339 16.2542C7.69386 16.2542 5.21387 13.7742 5.21387 10.7341C5.21387 7.69396 7.69387 5.21387 10.7439 5.21387C13.7939 5.21387 16.2439 7.67371 16.2539 10.7238C16.2639 13.7639 13.7839 16.2542 10.7439 16.2542H10.7339ZM7.15387 10.714C7.15387 12.6941 8.73387 14.2937 10.7139 14.2937C12.6939 14.2937 14.2939 12.7239 14.3039 10.7438C14.3139 8.75376 12.7239 7.15361 10.7339 7.14361C8.75386 7.14361 7.16387 8.72372 7.15387 10.7038V10.714Z" fill="#633510"/>
<path d="M16.4841 3.71436C17.2041 3.71436 17.7641 4.29418 17.7541 5.0142C17.7541 5.73422 17.1641 6.29426 16.4441 6.28426C15.7341 6.28426 15.1641 5.68442 15.1841 4.96439C15.1941 4.26437 15.7741 3.7041 16.4841 3.7041V3.71436Z" fill="#633510"/>
</svg>
