<svg width="19" height="22" viewBox="0 0 19 22" fill="none" xmlns="http://www.w3.org/2000/svg">
<path d="M7.59074 8.10035V11.5404C7.27074 11.5004 6.97074 11.4405 6.67074 11.4305C5.02074 11.4005 3.66074 12.6307 3.51074 14.2807C3.37074 15.8408 4.50074 17.3104 6.07074 17.5904C7.91074 17.9304 9.67075 16.5507 9.72075 14.6806C9.77075 13.0106 9.74075 11.3303 9.74075 9.6502C9.74075 6.5301 9.74075 3.40038 9.74075 0.280282V0H13.1107C13.2307 0.560017 13.3007 1.11994 13.4707 1.64995C14.1407 3.72002 16.1007 5.17039 18.2708 5.2404C18.4608 5.2404 18.5208 5.30016 18.5208 5.50017C18.5108 6.4802 18.5208 7.46043 18.5208 8.45046V8.68044C17.5408 8.69044 16.6207 8.53024 15.7207 8.23023C14.8107 7.93023 13.9907 7.48011 13.1807 6.8801C13.1807 6.9901 13.1807 7.0601 13.1807 7.1301C13.1807 9.52018 13.1807 11.9102 13.2007 14.3002C13.2007 15.5003 12.9907 16.6607 12.3707 17.7007C10.9707 20.0308 8.90074 21.1707 6.18074 21.0407C3.38074 20.9107 0.990742 18.9506 0.230742 16.2505C-0.709258 12.8604 1.31075 9.27009 4.69075 8.30006C5.56075 8.05005 6.44074 7.9703 7.34074 8.06031C7.37074 8.06031 7.41075 8.06033 7.44075 8.08033C7.48075 8.08033 7.52075 8.10011 7.58075 8.11011L7.59074 8.10035Z" fill="#633510"/>
</svg>
