<svg width="197" height="197" viewBox="0 0 197 197" fill="none" xmlns="http://www.w3.org/2000/svg">
<path d="M114.946 11.6778C114.505 11.5893 114.125 11.4065 113.806 11.1293C113.493 10.8533 113.263 10.5197 113.116 10.1283C112.976 9.73205 112.949 9.31345 113.037 8.87255C113.126 8.43175 113.311 8.05545 113.593 7.74395C113.882 7.43355 114.224 7.21465 114.618 7.08695C115.019 6.95435 115.44 6.93225 115.881 7.02075C116.291 7.10305 116.648 7.28145 116.955 7.55625C117.262 7.82465 117.484 8.15645 117.618 8.55155C117.758 8.94785 117.784 9.36645 117.696 9.80735C117.607 10.2482 117.422 10.6244 117.14 10.9359C116.865 11.2425 116.533 11.4634 116.144 11.5985C115.755 11.7336 115.356 11.7601 114.946 11.6778ZM127.827 18.7988L133.327 6.27355L138.277 8.44705C138.398 8.50055 138.541 8.57005 138.704 8.65545C138.87 8.73515 139.024 8.82385 139.168 8.92155C139.801 9.32395 140.268 9.80545 140.568 10.3661C140.874 10.9294 141.022 11.5374 141.012 12.1901C141.005 12.8371 140.854 13.494 140.561 14.1608C140.271 14.8219 139.886 15.3757 139.406 15.8221C138.935 16.2653 138.388 16.5677 137.763 16.7293C137.147 16.8877 136.48 16.8713 135.762 16.6803C135.595 16.6347 135.424 16.5808 135.251 16.5185C135.077 16.4563 134.931 16.3984 134.809 16.3449L131.408 14.8513L129.375 19.4787L127.827 18.7988ZM132.053 13.3813L135.402 14.852C135.512 14.9004 135.64 14.9494 135.784 14.9989C135.934 15.051 136.079 15.0905 136.22 15.1176C136.661 15.2005 137.058 15.1749 137.414 15.0409C137.779 14.9036 138.092 14.6952 138.353 14.4156C138.617 14.1302 138.825 13.8135 138.978 13.4656C139.131 13.1177 139.222 12.753 139.251 12.3715C139.283 11.9843 139.227 11.6099 139.081 11.2485C138.941 10.8897 138.689 10.5789 138.327 10.3162C138.215 10.2254 138.088 10.1452 137.945 10.0758C137.811 10.003 137.689 9.94255 137.579 9.89415L134.23 8.42345L132.053 13.3813ZM139.829 24.2602L146.729 12.4474L148.19 13.3002L141.29 25.113L139.829 24.2602ZM148.28 30.2795C147.528 29.7196 146.955 29.1223 146.559 28.4877C146.172 27.8519 145.928 27.22 145.827 26.592C145.735 25.9628 145.747 25.3725 145.866 24.8211L147.626 24.9711C147.509 25.3819 147.477 25.819 147.526 26.2824C147.581 26.7497 147.746 27.2165 148.022 27.683C148.304 28.1533 148.729 28.6003 149.298 29.024C149.877 29.4553 150.429 29.7277 150.952 29.8413C151.48 29.9497 151.955 29.9209 152.379 29.7549C152.812 29.5875 153.179 29.3007 153.482 28.8943C153.826 28.4321 153.977 27.9915 153.934 27.5723C153.894 27.1481 153.719 26.7415 153.409 26.3524C153.108 25.9619 152.731 25.587 152.28 25.2275C151.931 24.9436 151.68 24.7405 151.526 24.6182C151.372 24.4958 151.267 24.4138 151.211 24.3722C151.16 24.3344 151.112 24.2985 151.066 24.2645L152.031 22.9692C152.076 23.0032 152.173 23.0751 152.32 23.1848C152.468 23.2945 152.622 23.4099 152.785 23.531C152.951 23.647 153.085 23.7384 153.185 23.8052C153.892 24.2766 154.562 24.5068 155.194 24.4959C155.829 24.4798 156.352 24.1975 156.76 23.649C157.184 23.0801 157.31 22.4825 157.137 21.856C156.969 21.2334 156.557 20.6781 155.901 20.19C155.282 19.7284 154.646 19.4797 153.993 19.4439C153.346 19.4118 152.723 19.5279 152.124 19.7921L151.743 18.1232C152.519 17.8242 153.357 17.7265 154.26 17.8299C155.171 17.932 156.051 18.299 156.9 18.9308C157.367 19.2789 157.768 19.6772 158.105 20.1257C158.451 20.573 158.698 21.0485 158.844 21.5521C158.999 22.0545 159.032 22.5724 158.943 23.106C158.857 23.6345 158.618 24.1603 158.229 24.6835C157.809 25.2473 157.318 25.6586 156.753 25.9176C156.189 26.1766 155.624 26.2817 155.061 26.2329C155.462 26.8079 155.659 27.4127 155.652 28.0474C155.645 28.682 155.398 29.3269 154.91 29.9821C154.399 30.6678 153.781 31.1316 153.056 31.3733C152.336 31.6189 151.562 31.6506 150.734 31.4684C149.91 31.2811 149.092 30.8848 148.28 30.2795ZM155.09 35.2618L164.913 25.7412L166.09 26.9555L161.758 31.1538L166.77 36.3248L171.102 32.1264L172.279 33.3407L162.454 42.8613L161.277 41.647L165.616 37.4421L160.604 32.2712L156.267 36.4761L155.09 35.2618ZM167.94 50.6916C167.18 49.5616 166.785 48.4345 166.754 47.3104C166.723 46.1864 167.012 45.1182 167.621 44.1058C168.234 43.0986 169.123 42.2026 170.29 41.418C171.457 40.6335 172.622 40.1475 173.786 39.9602C174.953 39.7782 176.053 39.9134 177.082 40.3661C178.112 40.8187 179.006 41.6099 179.766 42.7399C180.529 43.8751 180.927 45.0048 180.957 46.1289C180.988 47.2529 180.697 48.3187 180.085 49.3259C179.472 50.3331 178.582 51.2289 177.415 52.0135C176.248 52.798 175.083 53.2839 173.919 53.4712C172.755 53.6585 171.658 53.5259 170.629 53.0732C169.6 52.6206 168.703 51.8268 167.94 50.6916ZM169.28 49.7904C169.844 50.6401 170.507 51.217 171.268 51.5214C172.039 51.8275 172.862 51.8883 173.738 51.7039C174.617 51.5248 175.51 51.1313 176.414 50.5234C177.323 49.912 178.024 49.2347 178.516 48.4915C179.012 47.7535 179.261 46.9717 179.263 46.1461C179.269 45.3258 178.99 44.4909 178.426 43.6412C177.862 42.7915 177.198 42.2144 176.438 41.91C175.678 41.6109 174.86 41.5509 173.98 41.7301C173.101 41.9092 172.206 42.3019 171.293 42.908C170.386 43.5106 169.686 44.1836 169.193 44.9268C168.701 45.6701 168.449 46.4536 168.439 47.2775C168.437 48.1031 168.716 48.9407 169.28 49.7904ZM173.315 58.62L185.897 53.2523L186.501 54.6677L178.507 63.6969L190.546 64.1487L191.158 65.5817L178.582 70.9457L177.952 69.469L187.111 65.5624L176.121 65.1998L175.767 64.3697L183.111 56.1864L173.944 60.0967L173.315 58.62ZM179.69 73.7426L194.036 75.2488L194.547 77.549L182.185 84.9827L181.803 83.2677L193.266 76.3347L193.382 76.854L180.07 75.4584L179.69 73.7426ZM183.293 75.2006L184.841 74.8568L186.382 81.7937L184.832 82.1377L183.293 75.2006ZM182.621 87.9567L196.281 87.2267L196.371 88.9157L190.348 89.2377L190.732 96.4277L196.755 96.1068L196.845 97.7947L183.185 98.5247L183.095 96.8357L189.129 96.5137L188.745 89.3227L182.711 89.6458L182.621 87.9567ZM183.221 102.683L196.868 103.625L196.753 105.312L183.104 104.37L183.221 102.683ZM182.008 111.982L193.874 114.22L194.738 109.637L196.316 109.934L194.273 120.763L192.695 120.465L193.56 115.882L181.695 113.643L182.008 111.982ZM178.724 125.385L190.105 129.414L191.663 125.017L193.176 125.552L189.499 135.941L187.986 135.405L189.542 131.008L178.159 126.979L178.724 125.385ZM170.953 142.327L171.757 140.839L176.203 143.24L178.203 139.537L178.602 139.018C179.281 138.175 180.09 137.695 181.031 137.577C181.979 137.462 182.919 137.656 183.849 138.159C184.49 138.505 185.011 138.931 185.415 139.436C185.821 139.951 186.078 140.521 186.186 141.148C186.29 141.78 186.218 142.447 185.97 143.148C185.913 143.319 185.846 143.484 185.767 143.643C185.691 143.81 185.622 143.953 185.559 144.07L182.991 148.826L170.953 142.327ZM174.822 135.163L175.741 133.458L179.684 138.954L178.438 140.182L174.822 135.163ZM177.616 144.003L182.382 146.575L184.118 143.357C184.173 143.257 184.233 143.134 184.297 142.989C184.363 142.852 184.414 142.71 184.449 142.564C184.573 142.134 184.58 141.735 184.47 141.366C184.36 140.997 184.175 140.667 183.915 140.375C183.657 140.092 183.361 139.861 183.027 139.68C182.692 139.499 182.335 139.378 181.951 139.315C181.57 139.26 181.195 139.288 180.826 139.398C180.463 139.512 180.133 139.736 179.836 140.073C179.739 140.186 179.649 140.306 179.565 140.434C179.479 140.567 179.408 140.684 179.354 140.784L177.616 144.003ZM161.956 153.894C162.86 152.875 163.85 152.21 164.931 151.898C166.011 151.587 167.118 151.599 168.251 151.934C169.379 152.274 170.47 152.911 171.522 153.844C172.574 154.776 173.337 155.783 173.81 156.862C174.279 157.947 174.423 159.044 174.243 160.154C174.063 161.264 173.523 162.328 172.62 163.347C171.569 164.532 170.404 165.239 169.126 165.469C167.843 165.703 166.564 165.513 165.289 164.899L166.09 163.309C167.037 163.777 167.968 163.939 168.884 163.794C169.799 163.649 170.641 163.143 171.41 162.276C172.086 161.513 172.477 160.725 172.581 159.911C172.685 159.097 172.539 158.287 172.145 157.481C171.756 156.679 171.153 155.912 170.337 155.18C169.526 154.453 168.697 153.942 167.849 153.647C167.006 153.357 166.183 153.313 165.379 153.513C164.579 153.719 163.84 154.203 163.164 154.966C162.395 155.833 161.995 156.73 161.961 157.656C161.931 158.586 162.202 159.492 162.776 160.373L161.294 161.357C160.536 160.169 160.194 158.922 160.268 157.616C160.343 156.32 160.906 155.079 161.956 153.894ZM155.751 160.943L164.09 171.789L162.87 172.727L152.132 167.238L154.698 179.009L153.464 179.959L145.13 169.121L146.404 168.143L152.471 176.035L150.081 165.304L150.797 164.753L160.553 169.822L154.479 161.922L155.751 160.943ZM142.702 170.891L144.888 185.15L142.793 186.228L132.462 176.158L134.026 175.354L143.642 184.68L143.168 184.924L141.138 171.695L142.702 170.891ZM142.206 174.746L142.931 176.157L136.612 179.407L135.888 177.997L142.206 174.746ZM129.701 177.344L133.969 190.341L132.362 190.869L130.358 184.767L126.675 192.736L124.655 193.4L128.484 185.153L119.925 180.554L122.002 179.873L130.181 184.226L128.094 177.872L129.701 177.344ZM117.188 181.274L119.976 194.667L118.321 195.012L115.534 181.618L117.188 181.274ZM111.42 182.323L112.696 195.943L107.39 196.44C106.577 196.516 105.866 196.414 105.261 196.134C104.65 195.854 104.167 195.454 103.813 194.933C103.453 194.42 103.245 193.848 103.186 193.218C103.117 192.48 103.245 191.816 103.572 191.225C103.898 190.635 104.372 190.206 104.996 189.937L105.059 190.399C104.161 190.248 103.44 189.883 102.896 189.304C102.352 188.725 102.038 188.004 101.957 187.14C101.883 186.346 101.983 185.643 102.257 185.032C102.524 184.422 102.949 183.927 103.53 183.548C104.105 183.17 104.809 182.942 105.642 182.864L111.42 182.323ZM109.868 184.09L106.114 184.442C105.609 184.489 105.166 184.623 104.786 184.843C104.406 185.069 104.119 185.363 103.924 185.725C103.722 186.087 103.644 186.508 103.689 186.987C103.732 187.448 103.876 187.851 104.118 188.197C104.354 188.544 104.668 188.807 105.06 188.987C105.447 189.173 105.883 189.244 106.368 189.198L110.312 188.829L109.868 184.09ZM110.461 190.418L106.876 190.754C106.472 190.792 106.118 190.911 105.812 191.111C105.5 191.318 105.265 191.588 105.105 191.921C104.939 192.255 104.876 192.633 104.916 193.055C104.971 193.642 105.214 194.103 105.646 194.437C106.078 194.772 106.616 194.91 107.259 194.849L110.845 194.514L110.461 190.418ZM82.4975 185.29C82.9385 185.375 83.3205 185.554 83.6425 185.828C83.9575 186.102 84.1905 186.433 84.3415 186.823C84.4855 187.218 84.5155 187.636 84.4305 188.078C84.3465 188.52 84.1645 188.898 83.8855 189.212C83.5995 189.525 83.2605 189.747 82.8675 189.878C82.4675 190.014 82.0465 190.04 81.6055 189.956C81.1945 189.877 80.8345 189.702 80.5255 189.43C80.2155 189.165 79.9915 188.835 79.8545 188.441C79.7105 188.046 79.6805 187.628 79.7655 187.186C79.8495 186.744 80.0315 186.367 80.3105 186.052C80.5825 185.743 80.9125 185.519 81.2995 185.381C81.6875 185.242 82.0865 185.212 82.4975 185.29ZM64.7828 176.406L58.6332 188.625L53.8046 186.195C53.6858 186.136 53.5472 186.059 53.3889 185.965C53.2276 185.877 53.0778 185.78 52.9393 185.675C52.3286 185.24 51.8881 184.735 51.6177 184.159C51.3416 183.58 51.2256 182.966 51.2698 182.314C51.3111 181.669 51.4955 181.02 51.8229 180.37C52.1475 179.725 52.561 179.192 53.0634 178.771C53.5573 178.353 54.1202 178.08 54.7522 177.951C55.3756 177.826 56.0411 177.877 56.7486 178.105C56.9127 178.16 57.0797 178.222 57.2495 178.294C57.4192 178.365 57.5635 178.43 57.6823 178.49L61.0003 180.16L63.2723 175.645L64.7828 176.406ZM60.2786 181.594L57.0115 179.95C56.904 179.896 56.7795 179.84 56.638 179.783C56.4909 179.723 56.348 179.676 56.2093 179.642C55.7734 179.536 55.374 179.541 55.0112 179.656C54.6398 179.774 54.3164 179.966 54.041 180.231C53.7627 180.502 53.5382 180.808 53.3674 181.147C53.1966 181.486 53.0866 181.846 53.0374 182.225C52.9855 182.61 53.0227 182.987 53.1492 183.356C53.2701 183.721 53.5043 184.045 53.852 184.326C53.9593 184.423 54.0823 184.509 54.2209 184.586C54.351 184.666 54.4698 184.733 54.5773 184.787L57.8444 186.431L60.2786 181.594ZM53.0835 170.32L45.5571 181.744L44.145 180.813L51.6715 169.39L53.0835 170.32ZM44.9644 163.86C45.6857 164.459 46.2275 165.085 46.5896 165.74C46.9429 166.395 47.1534 167.039 47.2212 167.671C47.28 168.305 47.2358 168.893 47.0885 169.438L45.3389 169.196C45.4768 168.792 45.533 168.357 45.5078 167.891C45.4776 167.422 45.3368 166.947 45.0853 166.467C44.8288 165.982 44.4277 165.514 43.8819 165.061C43.3263 164.599 42.7901 164.299 42.2732 164.158C41.7524 164.022 41.276 164.025 40.8441 164.169C40.4032 164.313 40.021 164.581 39.6974 164.971C39.3294 165.414 39.1559 165.846 39.177 166.267C39.1941 166.693 39.3474 167.108 39.6369 167.513C39.9175 167.919 40.2734 168.313 40.7048 168.695C41.0387 168.997 41.2792 169.213 41.4262 169.343C41.5732 169.474 41.6736 169.561 41.7272 169.606C41.7759 169.646 41.8222 169.684 41.8661 169.721L40.8347 170.964C40.7908 170.927 40.6982 170.85 40.5569 170.733C40.4156 170.616 40.2669 170.492 40.111 170.363C39.951 170.238 39.8226 170.14 39.726 170.068C39.0446 169.56 38.3881 169.295 37.7563 169.273C37.1205 169.256 36.5842 169.51 36.1474 170.036C35.6944 170.582 35.5379 171.173 35.6778 171.807C35.8129 172.438 36.1948 173.014 36.8235 173.536C37.4181 174.029 38.0402 174.311 38.6899 174.381C39.3347 174.447 39.9633 174.364 40.5759 174.132L40.8676 175.818C40.0775 176.076 39.2347 176.129 38.3391 175.979C37.4347 175.829 36.5755 175.416 35.7616 174.741C35.3132 174.369 34.9325 173.95 34.6193 173.484C34.2973 173.019 34.0766 172.532 33.9571 172.021C33.8288 171.511 33.8233 170.992 33.9406 170.464C34.0539 169.941 34.3188 169.428 34.7354 168.926C35.1844 168.385 35.6973 168 36.2742 167.771C36.8511 167.542 37.4198 167.467 37.9803 167.545C37.6101 166.95 37.4451 166.336 37.4852 165.702C37.5252 165.069 37.8061 164.438 38.3279 163.809C38.8739 163.151 39.5153 162.721 40.252 162.517C40.9838 162.31 41.7583 162.319 42.5753 162.544C43.3883 162.774 44.1847 163.213 44.9644 163.86ZM38.4264 158.527L28.1136 167.516L27.0026 166.241L31.5502 162.277L26.8188 156.849L22.2712 160.812L21.1602 159.537L31.4729 150.549L32.5839 151.824L28.0292 155.794L32.7605 161.222L37.3153 157.252L38.4264 158.527ZM26.399 142.446C27.1 143.613 27.4371 144.759 27.4103 145.883C27.3835 147.008 27.0401 148.06 26.3801 149.04C25.7167 150.014 24.7824 150.863 23.577 151.587C22.3716 152.311 21.1829 152.736 20.011 152.864C18.8358 152.986 17.7458 152.795 16.7409 152.29C15.7361 151.785 14.8832 150.949 14.1822 149.782C13.478 148.609 13.1393 147.46 13.166 146.336C13.1928 145.212 13.5379 144.163 14.2012 143.188C14.8645 142.214 15.7989 141.365 17.0043 140.641C18.2097 139.917 19.3983 139.491 20.5702 139.364C21.7422 139.236 22.8306 139.425 23.8354 139.93C24.8403 140.435 25.6948 141.273 26.399 142.446ZM25.0145 143.277C24.495 142.4 23.8627 141.79 23.1174 141.447C22.3635 141.102 21.5445 140.999 20.6604 141.138C19.7731 141.272 18.8625 141.619 17.9286 142.18C16.9892 142.744 16.2546 143.385 15.7248 144.102C15.1918 144.813 14.9031 145.581 14.8588 146.406C14.8113 147.225 15.0473 148.073 15.5668 148.95C16.0863 149.828 16.7186 150.438 17.4638 150.781C18.2058 151.119 19.0204 151.22 19.9078 151.086C20.7951 150.953 21.7101 150.606 22.6527 150.048C23.5899 149.492 24.3234 148.856 24.8532 148.139C25.383 147.422 25.6743 146.652 25.7273 145.83C25.7716 145.006 25.5339 144.155 25.0145 143.277ZM21.4402 134.252L8.591 138.947L8.0629 137.501L16.524 128.908L4.5255 127.82L3.9908 126.357L16.8311 121.665L17.3821 123.173L8.0307 126.59L18.9853 127.533L19.295 128.381L11.529 136.164L20.8892 132.744L21.4402 134.252ZM15.8736 118.814L1.6249 116.56L1.2354 114.236L13.9703 107.458L14.2608 109.192L2.4517 115.515L2.3637 114.991L15.5831 117.081L15.8736 118.814ZM12.3518 117.17L10.7872 117.432L9.6125 110.424L11.1772 110.161L12.3518 117.17ZM13.6904 104.467L0.0103989 104.48L0.0087986 102.789L6.0413 102.783L6.0342 95.5817L0.00169945 95.5877L0 93.8968L13.68 93.8838L13.6817 95.5747L7.6397 95.5807L7.6468 102.782L13.6888 102.776L13.6904 104.467ZM13.8628 89.7298L0.285 88.0607L0.491299 86.3817L14.0691 88.0508L13.8628 89.7298ZM15.5601 80.5067L3.8253 77.6622L2.7266 82.1957L1.1663 81.8177L3.762 71.1073L5.3224 71.4855L4.2236 76.0188L15.9584 78.8629L15.5601 80.5067ZM19.5308 67.2896L8.3723 62.6766L6.5902 66.9871L5.1065 66.3737L9.3167 56.1898L10.8004 56.8031L9.0183 61.1138L20.1768 65.727L19.5308 67.2896ZM28.1783 50.7785L27.2974 52.2218L22.9834 49.5891L20.791 53.1814L20.3653 53.6785C19.6434 54.4844 18.8092 54.9213 17.8626 54.9891C16.9106 55.0537 15.9832 54.8103 15.0804 54.2594C14.4587 53.8799 13.9597 53.427 13.5835 52.9007C13.2052 52.3656 12.9788 51.7823 12.9043 51.1507C12.833 50.5137 12.9401 49.8519 13.2255 49.1654C13.2909 48.9975 13.367 48.8362 13.454 48.6815C13.5389 48.5181 13.6159 48.3798 13.6852 48.2662L16.5011 43.652L28.1783 50.7785ZM23.9372 57.7281L22.9276 59.3822L19.2818 53.685L20.5907 52.5249L23.9372 57.7281ZM21.6129 48.7527L16.9907 45.9318L15.0854 49.0538C15.026 49.1511 14.9605 49.2707 14.8888 49.4124C14.815 49.5455 14.7564 49.6841 14.713 49.8282C14.5664 50.2507 14.5384 50.6492 14.629 51.0236C14.7196 51.3979 14.887 51.7375 15.1313 52.0424C15.3735 52.3386 15.6567 52.5855 15.9811 52.7835C16.3055 52.9814 16.6574 53.122 17.037 53.2053C17.4144 53.2798 17.7903 53.2719 18.1646 53.1813C18.5335 53.0874 18.8751 52.8803 19.1892 52.5601C19.2921 52.4522 19.3886 52.3366 19.4786 52.2135C19.5719 52.0849 19.6482 51.972 19.7076 51.8747L21.6129 48.7527ZM37.7775 39.7028C36.8225 40.6735 35.7974 41.2864 34.7022 41.5416C33.6071 41.7968 32.5026 41.7274 31.3887 41.3334C30.2793 40.9349 29.2234 40.2426 28.2212 39.2565C27.219 38.2704 26.5096 37.226 26.0931 36.1232C25.681 35.0159 25.5937 33.9126 25.8311 32.8135C26.0685 31.7143 26.6647 30.6794 27.6196 29.7088C28.7301 28.5801 29.9296 27.9344 31.2181 27.7717C32.511 27.6044 33.7782 27.8606 35.0198 28.5402L34.1389 30.0857C33.2166 29.5692 32.2946 29.3595 31.3728 29.4566C30.451 29.5537 29.5837 30.0153 28.7709 30.8414C28.0557 31.5683 27.6253 32.3354 27.4796 33.1427C27.3339 33.95 27.4368 34.7665 27.7884 35.5921C28.1354 36.4134 28.6972 37.2104 29.4738 37.9834C30.2459 38.7519 31.0475 39.3052 31.8788 39.6433C32.7055 39.9769 33.5258 40.0643 34.3396 39.9054C35.1489 39.7421 35.9111 39.297 36.6262 38.5702C37.4391 37.744 37.8865 36.8693 37.9686 35.9461C38.0462 35.0184 37.8215 34.0999 37.2946 33.1906L38.8256 32.2847C39.5208 33.5106 39.7975 34.7735 39.6558 36.0734C39.514 37.3644 38.8879 38.5742 37.7775 39.7028ZM44.3397 32.9855L36.5792 21.7197L37.8466 20.8467L48.284 26.8884L46.335 14.9993L47.6181 14.1155L55.3732 25.3734L54.051 26.2842L48.4031 18.0852L50.2308 28.9274L49.4875 29.4393L40.0086 23.8679L45.6619 32.0747L44.3397 32.9855ZM57.8921 23.7327L56.4592 9.37805L58.608 8.41205L68.3937 19.0115L66.7907 19.7321L57.6788 9.91305L58.164 9.69495L59.4951 23.0121L57.8921 23.7327ZM58.5896 19.909L57.9391 18.462L64.4202 15.5483L65.0707 16.9952L58.5896 19.909ZM71.2147 17.9721L67.6327 4.76945L69.2647 4.32665L70.9463 10.5245L75.0409 2.75955L77.0947 2.20235L72.8372 10.2379L81.1445 15.2781L79.0355 15.8502L71.0955 11.0746L72.8467 17.5293L71.2147 17.9721ZM83.9135 14.6982L81.7885 1.18425L83.4595 0.921648L85.5835 14.4356L83.9135 14.6982ZM89.7265 13.9287L89.0645 0.264849L94.3875 0.00674833C95.2035 -0.0327517 95.9075 0.101148 96.4995 0.408548C97.0975 0.715548 97.5615 1.13695 97.8925 1.67255C98.2285 2.20155 98.4125 2.78235 98.4425 3.41495C98.4785 4.15515 98.3205 4.81275 97.9675 5.38775C97.6155 5.96285 97.1215 6.37045 96.4865 6.61045L96.4445 6.14645C97.3355 6.33785 98.0395 6.73485 98.5565 7.33755C99.0745 7.94025 99.3535 8.67485 99.3955 9.54155C99.4345 10.3385 99.3035 11.036 99.0025 11.6339C98.7085 12.2316 98.2625 12.7066 97.6645 13.0589C97.0725 13.411 96.3595 13.6072 95.5245 13.6477L89.7265 13.9287ZM91.3565 12.2328L95.1235 12.0502C95.6295 12.0257 96.0775 11.9121 96.4665 11.7093C96.8565 11.5002 97.1565 11.2193 97.3675 10.8667C97.5855 10.5138 97.6825 10.0969 97.6595 9.61615C97.6365 9.15435 97.5125 8.74515 97.2855 8.38835C97.0655 8.03125 96.7635 7.75415 96.3795 7.55715C96.0025 7.35355 95.5695 7.26355 95.0825 7.28715L91.1255 7.47895L91.3565 12.2328ZM91.0485 5.88485L94.6445 5.71055C95.0495 5.69085 95.4095 5.58785 95.7235 5.40145C96.0445 5.20835 96.2915 4.94905 96.4655 4.62355C96.6465 4.29775 96.7265 3.92295 96.7065 3.49915C96.6775 2.91085 96.4555 2.43975 96.0385 2.08585C95.6215 1.73185 95.0905 1.57055 94.4455 1.60185L90.8495 1.77615L91.0485 5.88485Z" fill="#FFF1D5"/>
</svg>
