<svg width="200" height="68" viewBox="0 0 200 68" fill="none" xmlns="http://www.w3.org/2000/svg">
<path d="M81.4994 51.0999C81.6994 51.4999 81.9994 51.7999 82.4994 51.8999C83.1994 51.8999 83.7994 51.5999 84.3994 51.0999C85.1994 50.2999 85.4994 49.2999 85.5994 48.1999C85.6994 47.4999 85.5994 46.7999 85.5994 46.0999C85.5994 45.8999 85.6994 45.7999 85.8994 45.7999C86.1994 45.7999 86.3994 45.7999 86.6994 45.7999C86.9994 45.7999 87.0994 45.8999 87.0994 46.1999C87.0994 47.5999 87.0994 49.0999 87.0994 50.4999C87.0994 51.2999 87.5994 51.6999 88.3994 51.6999C89.1994 51.6999 89.6994 51.1999 89.6994 50.4999C89.6994 49.4999 89.6994 48.5999 89.6994 47.5999C89.6994 46.6999 89.6994 45.6999 89.6994 44.7999C89.6994 43.8999 89.2994 43.3999 88.2994 43.3999C86.9994 43.3999 85.5994 43.3999 84.2994 43.3999C83.3994 43.3999 82.9994 43.8999 82.9994 44.6999C82.9994 45.5999 82.9994 46.5999 82.9994 47.4999C82.9994 48.4999 82.6994 49.2999 81.7994 49.7999C81.3994 50.1999 81.2994 50.5999 81.4994 51.0999Z" fill="#EABF98"/>
<path d="M79.8993 43.7998C79.5993 44.0998 79.3993 44.4998 79.2993 44.8998C78.9993 45.5998 78.6993 46.2998 78.3993 47.0998C78.2993 46.8998 78.1993 46.8998 78.1993 46.7998C77.7993 46.0998 77.4993 45.2998 76.9993 44.5998C76.7993 44.2998 76.5993 43.9998 76.3993 43.6998C76.0993 43.3998 75.4993 43.2998 74.9993 43.5998C74.5993 43.7998 74.2993 44.2998 74.3993 44.7998C74.4993 45.0998 74.5993 45.4998 74.6993 45.7998C75.3993 46.9998 76.0993 48.0998 76.6993 49.2998C76.7993 49.3998 76.7993 49.5998 76.7993 49.6998C76.6993 49.6998 76.4993 49.6998 76.3993 49.6998C76.1993 49.6998 75.9993 49.5998 75.6993 49.5998C75.1993 49.5998 74.8993 49.8998 74.6993 50.3998C74.5993 50.8998 74.7993 51.3998 75.1993 51.6998C75.7993 52.0998 76.3993 52.0998 77.0993 51.9998C78.1993 51.7998 78.9993 51.0998 79.5993 50.0998C80.2993 48.8998 80.7993 47.5998 81.3993 46.3998C81.5993 45.9998 81.7993 45.4998 81.9993 44.9998C82.1993 44.3998 81.8993 43.8998 81.3993 43.5998C80.8993 43.1998 80.1993 43.2998 79.8993 43.7998Z" fill="#EABF98"/>
<path d="M84.1998 39.3C85.7998 39.3 87.3998 39.3 88.9998 39.3C89.3998 39.3 89.3998 39.2 89.3998 38.8C89.3998 37.2 89.3998 35.6 89.3998 34C89.3998 33.4 89.3998 33.4 89.9998 33.4C90.6998 33.4 91.3998 33.4 92.1998 33.4C93.3998 33.4 94.6998 33.3 95.7998 32.9C97.7998 32.2 99.3998 31.1 100.3 29.1C100.9 27.7 101 26.2 100.8 24.7C100.5 22.9 99.5998 21.4 98.0998 20.4C96.6998 19.4 95.0998 19 93.3998 19C90.3998 18.9 87.3998 19 84.3998 19C83.8998 19 83.8998 19 83.8998 19.5C83.8998 22.7 83.8998 25.9 83.8998 29.2C83.8998 32.4 83.8998 35.7 83.8998 38.9C83.7998 39.2 83.8998 39.3 84.1998 39.3ZM89.3998 24C89.3998 23.8 89.3998 23.7 89.6998 23.7C90.6998 23.7 91.7998 23.7 92.7998 23.8C94.0998 23.9 94.9998 24.7 95.1998 25.8C95.4998 27.5 94.4998 28.9 92.6998 29C91.6998 29.1 90.6998 29 89.6998 29C89.4998 29 89.3998 28.9 89.3998 28.7C89.3998 27.9 89.3998 27.1 89.3998 26.4C89.3998 25.6 89.3998 24.8 89.3998 24Z" fill="#EABF98"/>
<path d="M164.699 43.5C163.899 43.5 162.999 43.5 162.199 43.5C161.299 43.5 160.299 43.5 159.399 43.5C158.799 43.5 158.399 44 158.399 44.7C158.399 45.3 158.799 45.8 159.399 45.8C159.799 45.8 160.199 45.9 160.499 45.8C160.799 45.8 160.899 45.9 160.899 46.2C160.899 47.6 160.899 49 160.899 50.4C160.899 50.5 160.899 50.7 160.899 50.8C160.999 51.4 161.599 51.8 162.299 51.7C163.099 51.6 163.399 51.2 163.399 50.5C163.399 49.1 163.399 47.7 163.399 46.2C163.399 45.7 163.399 45.7 163.799 45.7C164.099 45.7 164.399 45.7 164.699 45.7C165.199 45.7 165.699 45.5 165.899 44.9C166.199 44.3 165.699 43.5 164.699 43.5Z" fill="#EABF98"/>
<path d="M101.7 51.8001C102.5 51.8001 103 51.3001 103 50.6001C103 49.2001 103 47.7001 103 46.3001C103 46.2001 103 46.1001 103 45.9001C103.4 45.9001 103.7 45.9001 104.1 45.9001C104.3 45.9001 104.4 45.9001 104.6 45.9001C105.2 45.8001 105.6 45.3001 105.6 44.7001C105.6 44.1001 105.1 43.6001 104.5 43.6001C102.7 43.6001 100.9 43.6001 99.2 43.6001C98.5 43.6001 98 44.1001 98 44.8001C98 45.5001 98.5 45.9001 99.2 46.0001C99.5 46.0001 99.8 46.0001 100.1 46.0001C100.4 46.0001 100.5 46.1001 100.5 46.4001C100.5 47.8001 100.5 49.3001 100.5 50.7001C100.4 51.3001 100.9 51.8001 101.7 51.8001Z" fill="#EABF98"/>
<path d="M129.4 49.8997C129.6 49.8997 129.8 49.8997 130 49.8997C130.3 49.8997 130.6 49.8997 130.9 49.8997C131.1 49.8997 131.2 49.9997 131.3 50.1997C131.5 50.5997 131.6 50.9997 131.9 51.2997C132.3 51.7997 133 51.8997 133.5 51.5997C134.1 51.2997 134.3 50.8997 134.1 50.1997C134.1 49.9997 134 49.8997 134 49.6997C133.4 47.9997 132.7 46.2997 132.1 44.5997C131.7 43.5997 131.1 43.1997 130.1 43.1997C129 43.1997 128.4 43.5997 128 44.5997C127.7 45.2997 127.5 45.9997 127.2 46.6997C126.8 47.7997 126.3 48.9997 125.9 50.0997C125.7 50.6997 125.9 51.1997 126.4 51.4997C126.9 51.7997 127.6 51.6997 128 51.1997C128.2 50.9997 128.4 50.6997 128.5 50.3997C128.8 49.7997 128.6 49.8997 129.4 49.8997ZM129.9 46.0997C130.2 46.5997 130.4 47.1997 130.6 47.7997C130.2 47.7997 129.7 47.7997 129.3 47.7997C129.5 47.1997 129.7 46.5997 129.9 46.0997Z" fill="#EABF98"/>
<path d="M93.6992 44.3001C93.5992 44.1001 93.5992 43.8001 93.3992 43.7001C92.9992 43.3001 92.3992 43.2001 91.8992 43.5001C91.3992 43.7001 91.1992 44.1001 91.1992 44.7001C91.1992 45.7001 91.1992 46.6001 91.1992 47.6001C91.1992 48.6001 91.1992 49.6001 91.1992 50.5001C91.1992 51.2001 91.6992 51.7001 92.3992 51.7001C93.2992 51.7001 94.1992 51.7001 95.0992 51.7001C95.5992 51.7001 96.0992 51.6001 96.5992 51.4001C97.7992 51.0001 98.4992 49.9001 98.3992 48.6001C98.3992 47.5001 97.4992 46.5001 96.2992 46.2001C95.7992 46.1001 95.2992 46.0001 94.6992 46.0001C93.6992 46.0001 93.6992 46.0001 93.6992 45.0001C93.6992 44.7001 93.7992 44.5001 93.6992 44.3001ZM94.4992 48.1001C94.6992 48.1001 94.7992 48.1001 94.9992 48.1001C95.3992 48.2001 95.6992 48.4001 95.6992 48.8001C95.6992 49.2001 95.3992 49.5001 94.9992 49.5001C94.7992 49.5001 94.6992 49.5001 94.4992 49.5001C93.6992 49.5001 93.7992 49.6001 93.7992 48.8001C93.6992 48.0001 93.5992 48.1001 94.4992 48.1001Z" fill="#EABF98"/>
<path d="M74.1992 39.3001C75.2992 39.3001 76.3992 39.1001 77.3992 38.7001C79.4992 38.0001 81.0992 36.4001 81.1992 33.9001C81.2992 31.9001 80.5992 30.4001 78.7992 29.4001C78.2992 29.1001 77.7992 28.9001 77.2992 28.7001C77.4992 28.6001 77.6992 28.5001 77.8992 28.4001C80.9992 26.7001 80.9992 22.2001 78.4992 20.4001C77.2992 19.5001 75.8992 19.1001 74.3992 19.1001C70.6992 19.1001 67.0992 19.1001 63.3992 19.1001C63.2992 19.1001 63.2992 19.1001 63.1992 19.1001C63.1992 25.8001 63.1992 32.5001 63.1992 39.3001C63.7992 39.3001 64.3992 39.3001 64.8992 39.3001C68.0992 39.3001 71.1992 39.3001 74.1992 39.3001ZM75.6992 32.8001C75.6992 33.5001 75.4992 34.1001 74.7992 34.3001C74.2992 34.5001 73.6992 34.7001 73.1992 34.7001C71.7992 34.8001 70.4992 34.7001 69.0992 34.7001C68.7992 34.7001 68.6992 34.6001 68.6992 34.3001C68.6992 33.3001 68.6992 32.3001 68.6992 31.3001C68.6992 31.0001 68.7992 30.9001 69.0992 30.9001C69.7992 30.9001 70.4992 30.9001 71.1992 30.9001C71.1992 30.9001 71.1992 30.9001 71.1992 31.0001C72.0992 31.0001 72.8992 31.0001 73.7992 31.0001C74.0992 31.0001 74.3992 31.1001 74.5992 31.2001C75.2992 31.6001 75.5992 32.1001 75.6992 32.8001ZM68.6992 24.4001C68.7992 23.6001 68.7992 23.6001 69.4992 23.6001C70.5992 23.6001 71.7992 23.6001 72.8992 23.7001C73.1992 23.7001 73.3992 23.8001 73.6992 23.9001C74.3992 24.2001 74.7992 24.7001 74.7992 25.4001C74.7992 26.2001 74.4992 26.7001 73.6992 27.0001C73.1992 27.2001 72.6992 27.2001 72.1992 27.3001C71.0992 27.3001 69.9992 27.3001 68.7992 27.3001C68.6992 27.3001 68.6992 27.3001 68.5992 27.3001C68.6992 26.1001 68.6992 25.3001 68.6992 24.4001Z" fill="#EABF98"/>
<path d="M64.0992 51.6997C64.8992 51.9997 65.6992 51.4997 65.8992 50.5997C65.9992 50.2997 65.9992 49.9997 66.0992 49.6997C66.1992 48.9997 66.2992 48.2997 66.4992 47.5997C66.5992 47.6997 66.6992 47.7997 66.6992 47.8997C66.9992 48.5997 67.1992 49.1997 67.4992 49.8997C67.8992 50.7997 68.5992 51.0997 69.3992 50.7997C69.8992 50.5997 70.0992 50.1997 70.2992 49.6997C70.5992 48.9997 70.8992 48.2997 71.0992 47.5997H71.1992V47.6997C71.3992 48.5997 71.4992 49.5997 71.6992 50.4997C71.7992 51.2997 72.3992 51.7997 73.1992 51.6997C73.8992 51.5997 74.2992 51.1997 74.1992 50.2997C74.1992 50.1997 74.1992 49.9997 74.1992 49.8997C73.8992 48.0997 73.5992 46.2997 73.2992 44.5997C73.1992 43.7997 72.4992 43.1997 71.5992 43.1997C70.7992 43.1997 70.1992 43.6997 69.7992 44.5997C69.4992 45.3997 69.1992 46.1997 68.8992 46.9997C68.8992 47.0997 68.7992 47.1997 68.6992 47.3997C68.5992 47.1997 68.5992 47.0997 68.4992 46.9997C68.1992 46.1997 67.8992 45.4997 67.5992 44.6997C67.4992 44.3997 67.3992 44.1997 67.1992 43.8997C66.6992 43.2997 66.0992 43.0997 65.3992 43.2997C64.6992 43.4997 64.2992 43.9997 64.1992 44.6997C63.9992 45.9997 63.6992 47.2997 63.4992 48.6997C63.3992 49.2997 63.2992 49.8997 63.2992 50.4997C63.1992 51.0997 63.4992 51.5997 64.0992 51.6997Z" fill="#EABF98"/>
<path d="M127 38.8C127 39.3 127 39.3 127.4 39.3C129 39.3 130.5 39.3 132.1 39.3C132.4 39.3 132.6 39.2 132.5 38.9C132.5 37.2 132.5 35.6 132.5 33.9C132.5 33.6 132.6 33.5 132.9 33.5C133.5 33.5 134.1 33.5 134.8 33.5C136 33.5 137.3 33.4 138.5 33.1C140.3 32.6 141.8 31.7 142.9 30.2C143.8 28.8 144.1 27.2 144 25.5C143.9 23.7 143.2 22.1 141.8 20.9C140.3 19.6 138.5 19.1 136.5 19C133.5 18.9 130.4 19 127.4 19C127.1 19 127.1 19.2 127.1 19.4C127.1 22.6 127.1 25.9 127.1 29.1C127 32.4 127 35.6 127 38.8ZM132.9 23.7C133.9 23.7 134.9 23.7 135.9 23.8C138 24 139 26.2 137.9 27.8C137.4 28.6 136.6 28.9 135.8 28.9C134.8 29 133.8 28.9 132.8 28.9C132.6 28.9 132.5 28.8 132.5 28.6C132.5 27.8 132.5 27 132.5 26.3C132.5 25.5 132.5 24.8 132.5 24C132.6 23.8 132.6 23.7 132.9 23.7Z" fill="#EABF98"/>
<path d="M137.799 49.1999C138.499 49.1999 139.299 49.0999 139.899 48.9999C141.099 48.6999 141.899 47.6999 141.899 46.5999C141.999 45.1999 141.199 44.0999 139.699 43.6999C138.399 43.3999 137.099 43.4999 135.799 43.4999C135.099 43.4999 134.699 43.9999 134.699 44.7999C134.699 45.6999 134.699 46.6999 134.699 47.5999C134.699 48.5999 134.699 49.5999 134.699 50.5999C134.699 51.1999 134.999 51.5999 135.599 51.7999C136.599 52.0999 137.299 51.4999 137.299 50.4999C137.299 50.1999 137.299 49.9999 137.299 49.6999C137.399 49.2999 137.499 49.1999 137.799 49.1999ZM137.399 46.2999C137.399 45.5999 137.399 45.5999 138.099 45.5999C138.299 45.5999 138.499 45.5999 138.699 45.6999C138.999 45.7999 139.199 45.9999 139.199 46.3999C139.199 46.6999 138.999 46.9999 138.599 47.0999C138.199 47.1999 137.799 47.1999 137.399 47.0999C137.299 47.0999 137.299 46.9999 137.199 46.8999C137.399 46.6999 137.399 46.4999 137.399 46.2999Z" fill="#EABF98"/>
<path d="M150.199 51.3998C150.599 50.9998 150.599 50.4998 150.299 50.0998C150.199 49.7998 149.999 49.5998 149.799 49.3998C149.199 48.5998 148.599 47.8998 148.099 47.1998C148.599 46.5998 149.099 45.9998 149.699 45.4998C150.199 44.9998 150.299 44.1998 149.699 43.6998C149.199 43.2998 148.399 43.2998 147.899 43.7998C147.099 44.5998 146.299 45.2998 145.499 46.0998C145.499 45.4998 145.499 44.9998 145.499 44.4998C145.499 43.7998 144.999 43.2998 144.199 43.2998C143.399 43.2998 142.899 43.7998 142.899 44.4998C142.899 46.4998 142.899 48.4998 142.899 50.4998C142.899 51.0998 143.199 51.3998 143.699 51.5998C144.699 51.9998 145.499 51.3998 145.499 50.3998C145.499 50.1998 145.499 49.9998 145.499 49.7998C145.399 49.2998 145.699 48.8998 146.099 48.6998C146.099 48.7998 146.199 48.7998 146.299 48.8998C146.899 49.5998 147.399 50.3998 147.999 51.0998C148.199 51.2998 148.499 51.4998 148.699 51.6998C149.199 51.8998 149.899 51.7998 150.199 51.3998Z" fill="#EABF98"/>
<path d="M142.699 39.1997C142.799 39.1997 142.799 39.1997 142.799 39.1997C144.599 39.1997 146.499 39.1997 148.299 39.1997C148.399 39.1997 148.599 38.9997 148.599 38.8997C148.999 37.8997 149.399 36.8997 149.799 35.8997C149.899 35.6997 149.999 35.5997 150.299 35.5997C152.599 35.5997 154.999 35.5997 157.299 35.5997C157.599 35.5997 157.699 35.6997 157.799 35.8997C158.199 36.8997 158.599 37.8997 158.999 38.7997C159.099 39.0997 159.199 39.0997 159.499 39.0997C161.199 39.0997 162.999 39.0997 164.699 39.0997C164.799 39.0997 164.899 39.0997 165.099 39.0997C164.999 38.8997 164.999 38.7997 164.999 38.6997C162.199 32.0997 159.499 25.5997 156.699 18.9997C156.599 18.6997 156.499 18.6997 156.199 18.6997C154.599 18.6997 153.099 18.6997 151.499 18.6997C151.199 18.6997 151.099 18.7997 150.999 18.9997C148.199 25.5997 145.499 32.1997 142.699 38.6997C142.799 38.9997 142.799 39.0997 142.699 39.1997ZM153.899 25.6997C154.699 27.4997 155.399 29.3997 156.199 31.1997C154.699 31.1997 153.299 31.1997 151.799 31.1997C152.399 29.3997 153.099 27.4997 153.899 25.6997Z" fill="#EABF98"/>
<path d="M157 49.3001C156.1 49.3001 155.1 49.3001 154.2 49.3001C154.1 49.3001 154 49.3001 153.8 49.3001C153.8 49.1001 153.8 48.9001 153.8 48.7001C154.5 48.7001 155.2 48.7001 155.9 48.7001C156.6 48.7001 157.1 48.3001 157.1 47.7001C157.1 47.1001 156.6 46.6001 155.9 46.6001C155.3 46.6001 154.7 46.6001 154.1 46.6001C154 46.6001 153.9 46.6001 153.7 46.6001C153.6 46.0001 153.6 46.0001 154.2 46.0001C155.1 46.0001 155.9 46.0001 156.8 46.0001C157.5 46.0001 157.9 45.7001 158 45.1001C158.2 44.3001 157.7 43.6001 156.8 43.6001C155.3 43.6001 153.8 43.6001 152.3 43.6001C151.5 43.6001 151.1 44.1001 151.1 44.9001C151.1 46.8001 151.1 48.7001 151.1 50.6001C151.1 51.4001 151.6 51.8001 152.3 51.9001C153.8 51.9001 155.4 51.9001 156.9 51.9001C157.7 51.9001 158.2 51.4001 158.1 50.7001C158.3 49.7001 157.8 49.3001 157 49.3001Z" fill="#EABF98"/>
<path d="M121.2 44.6C120.9 45.4 120.6 46.2 120.3 47C120.3 47.1 120.2 47.2 120.1 47.4C119.9 46.8 119.7 46.3 119.5 45.8C119.2 45.1 119 44.4 118.6 43.8C118.2 43.2 117.5 43 116.8 43.2C116.1 43.4 115.7 43.8 115.6 44.5C115.4 45.6 115.2 46.6 115.1 47.7C115 48.6 114.8 49.4 114.7 50.3C114.6 51 115 51.5 115.5 51.7C116.3 51.9 117 51.5 117.2 50.6C117.3 50 117.4 49.4 117.5 48.7C117.6 48.3 117.6 47.9 117.7 47.5C117.8 47.6 117.9 47.7 117.9 47.8C118.2 48.5 118.4 49.2 118.7 49.8C119 50.6 119.7 51 120.5 50.7C121 50.5 121.3 50.1 121.4 49.7C121.7 49.1 121.9 48.4 122.2 47.7C122.2 47.6 122.3 47.5 122.3 47.4C122.4 47.7 122.5 48.1 122.6 48.4C122.7 49.1 122.8 49.9 123 50.6C123.2 51.3 123.8 51.6 124.6 51.5C125.2 51.4 125.6 50.9 125.5 50.2C125.5 49.6 125.3 48.9 125.2 48.3C125 47 124.8 45.6 124.5 44.3C124.4 43.5 123.7 43 122.9 43C122.2 43.2 121.6 43.7 121.2 44.6Z" fill="#EABF98"/>
<path d="M111.199 50.5998C111.199 51.2998 111.699 51.7998 112.499 51.7998C113.299 51.7998 113.799 51.3998 113.799 50.5998C113.799 48.5998 113.799 46.4998 113.799 44.4998C113.799 43.7998 113.299 43.3998 112.599 43.2998C111.799 43.2998 111.399 43.6998 110.999 44.2998C110.399 45.0998 109.799 45.9998 109.099 46.8998C108.999 46.9998 108.999 47.0998 108.899 47.0998C108.899 47.0998 108.899 47.0998 108.799 47.0998C108.799 46.9998 108.799 46.8998 108.799 46.6998C108.799 45.9998 108.799 45.2998 108.799 44.5998C108.799 43.7998 108.299 43.3998 107.499 43.3998C106.699 43.3998 106.199 43.7998 106.199 44.5998C106.199 46.5998 106.199 48.5998 106.199 50.5998C106.199 51.0998 106.399 51.4998 106.899 51.6998C107.399 51.8998 107.899 51.8998 108.299 51.4998C108.599 51.2998 108.799 50.9998 108.999 50.6998C109.699 49.7998 110.299 48.8998 110.999 47.9998H111.099C111.099 48.0998 111.099 48.1998 111.099 48.3998C111.199 49.0998 111.199 49.8998 111.199 50.5998Z" fill="#EABF98"/>
<path d="M113.399 39.7001C113.799 39.7001 114.399 39.6001 114.999 39.5001C120.599 38.7001 124.499 33.8001 123.999 28.1001C123.699 25.1001 122.399 22.6001 119.899 20.8001C117.099 18.7001 113.899 18.1001 110.599 18.9001C102.599 20.7001 99.9993 29.8001 104.499 35.6001C106.799 38.4001 109.699 39.6001 113.399 39.7001ZM110.099 24.8001C112.599 22.6001 116.599 23.6001 117.899 26.7001C118.199 27.5001 118.399 28.2001 118.399 29.1001C118.299 31.2001 117.599 32.9001 115.699 33.9001C112.799 35.5001 109.299 33.9001 108.399 30.7001C107.799 28.5001 108.199 26.4001 110.099 24.8001Z" fill="#EABF98"/>
<path d="M39.4996 34.2999C42.7996 34.2999 46.0996 34.2999 49.3996 34.2999C49.6996 34.2999 49.7996 34.3999 49.8996 34.5999C50.4996 35.9999 50.9996 37.3999 51.5996 38.7999C51.6996 39.0999 51.7996 39.1999 52.0996 39.1999C54.4996 39.1999 56.9996 39.1999 59.3996 39.1999C59.4996 39.1999 59.5996 39.1999 59.7996 39.1999C59.6996 38.9999 59.6996 38.8999 59.5996 38.7999C58.9996 37.3999 58.3996 35.9999 57.7996 34.5999C54.5996 26.9999 51.3996 19.3999 48.1996 11.7999C48.0996 11.4999 47.9996 11.3999 47.6996 11.3999C45.4996 11.3999 43.3996 11.3999 41.1996 11.3999C40.8996 11.3999 40.6996 11.4999 40.5996 11.7999C37.0996 20.1999 33.5996 28.4999 30.0996 36.8999C29.7996 37.5999 29.4996 38.3999 29.0996 39.1999C29.1996 39.1999 29.2996 39.1999 29.3996 39.1999C31.7996 39.1999 34.2996 39.1999 36.6996 39.1999C36.8996 39.1999 36.9996 39.0999 37.0996 38.8999C37.6996 37.4999 38.1996 35.9999 38.7996 34.5999C39.0996 34.3999 39.1996 34.2999 39.4996 34.2999ZM44.3996 20.4999C45.3996 23.1999 46.3996 25.6999 47.4996 28.3999C45.3996 28.3999 43.3996 28.3999 41.2996 28.3999C42.3996 25.7999 43.3996 23.1999 44.3996 20.4999Z" fill="#EABF98"/>
</svg>
