<svg width="200" height="68" viewBox="0 0 200 68" fill="none" xmlns="http://www.w3.org/2000/svg">
<path d="M89.4997 25.2001C91.6997 25.1001 93.7997 24.1001 93.9997 21.8001C94.0997 20.3001 92.8997 18.7001 90.4997 18.6001C89.2997 18.5001 88.0997 18.8001 87.0997 19.6001C86.3997 20.1001 85.9997 20.9001 85.7997 21.7001C85.5997 22.7001 85.6997 23.5001 86.1997 24.1001C86.7997 24.9001 87.9997 25.3001 89.4997 25.2001Z" fill="#EABF98"/>
<path d="M146.9 16.5C144.7 16.5 128.7 17.1 100.6 18.1C100.3 16.4 99.4997 14.8 98.2997 13.5C96.7997 11.8 93.9997 9.89999 89.1997 10.1C83.7997 10.3 79.9997 14 78.1997 16.2C74.2997 15 70.1997 14.9 66.2997 15.8C62.2997 16.7 56.4997 18.9 52.1997 22.4C44.7997 28.6 40.9997 35.9 41.3997 43.2C41.6997 47.5 43.6997 51.2 47.2997 53.9C53.0997 58.2 62.3997 57.1 66.0997 56.4C69.9997 55.7 133 43.4 141.4 41.6C149.3 40 156.7 37.2 158.1 27.6C158.2 27 158.2 26.4 158.2 25.9C158.2 23.5 157.4 21.2 156 19.6C153.7 16.7 149.7 16.5 146.9 16.5ZM157.2 25.8C157.2 26.3 157.2 26.8 157.1 27.4C155.8 36.1 148.8 38.8 141.4 40.3C133.1 42 70.0997 54.3 66.0997 55.1C62.4997 55.8 53.6997 56.9 48.2997 52.8C44.9997 50.4 43.1997 47 42.8997 43.1C42.4997 36.3 46.0997 29.2 53.1997 23.3C57.1997 19.9 62.7997 17.8 66.6997 17C70.5997 16.1 74.5997 16.3 78.3997 17.5L78.7997 17.6L79.0997 17.3C80.7997 15.2 84.2997 11.6 89.4997 11.4C93.7997 11.2 96.2997 12.9 97.5997 14.4C98.6997 15.6 99.3997 17.2 99.6997 18.8L99.7997 19.4H100.4C104.8 19.3 143.5 17.9 147.2 17.8C149.7 17.8 153.4 18 155.5 20.4C156.5 21.7 157.1 23.7 157.2 25.8Z" fill="#EABF98"/>
<path d="M152.7 28C152.4 28.7 151.8 29.4 151.2 29.5L150.9 29.6C150.9 29.6 151.1 28 151.1 27.6C151.1 25.5 150.6 23.3 147.3 23.5C145.3 23.6 142.3 25.5 141.9 29.3V29.4C141.4 30.7 140.5 32.6 139.9 32.7C139.8 32.7 139.6 32.7 139.5 32.6C139.4 32.5 139.3 32.3 139.3 32.1C139.4 31.5 139.5 30.9 139.7 30.3C140 29.2 140.2 28.2 140.2 27.1C140.4 24.5 138.8 24 137.2 24.2C136.2 24.3 135.3 24.7 134.6 25.4L134 26.1C134 26.1 134.2 24.8 134.3 24.5L130.6 24.7L129.4 30C129 30.6 128.5 31 127.8 31.3L127.6 31.4V31.1C127.6 30.8 127.5 30.6 127.5 30.3C127.4 29.7 126.9 27.7 124.9 27.9C119.8 28.4 120.1 34.7 123.1 33.8L123.5 33.7L123.4 34.1C123 36.6 122 37.9 120.5 38.2C120.3 38.2 120.1 38.2 119.9 38C119.6 37.7 119.5 37.2 119.5 36.8C119.5 35.6 121.8 25.3 121.8 25.3L117.1 25.5C116.9 26.4 116 30.5 116 30.5L115.9 31C115.7 31.7 115.6 32.2 115.5 32.6V32.7C114.8 34.6 113.5 36.7 112.5 36.9C112.3 36.9 112.1 36.9 112 36.7C111.8 36.5 111.8 36.3 111.8 36.1L111.9 35.3C111.9 35.3 114.3 26.1 114.4 25.5C113.8 25.5 109 25.7 109 25.7L108.5 27.4C108.4 26 105.5 24.3 103.3 26.2C101.1 28.3 100.5 31.4 100.2 34.4V34.5C99.8 38.2 99 40.7 96.4 41C95.9 41.1 95.4 41.1 94.9 40.8C95.6 40.3 96.2 39.6 96.7 38.9C97.6 37.3 97.2 36 96.2 35.3C94.2 34 92.1 35.7 91.7 37.7C91.5 38.7 91.8 39.7 92.3 40.6C91.6 41 91.1 41.4 90.2 41.6C89.7 41.7 89.2 41.6 88.9 41.2C88.3 40.5 89 38 89.2 37.7C89.2 37.7 92.5 27.3 92.7 26.6C92.1 26.6 85.7 27 85.4 27C85.2 27.6 84.4 30.2 83.6 32.6C82 37.2 77.4 43.5 72.5 44.9C69.9 45.6 67.9 45.5 66.5 44.7C64.7 43.6 63.7 41 64.3 37.4C64.5 35.7 65.1 34 65.8 32.4C69.8 23.6 76.4 25.5 76 26.1C75.6 26.3 75.1 26.4 74.7 26.7C73.7 27.3 72 29 71.9 31C71.9 32.3 72.3 33.4 73 34.1C73.8 34.8 74.9 35.1 75.9 35C78.6 34.8 80.7 32.5 80.6 29.8C80.6 28.2 80.2 26.9 79.2 26C77.7 24.5 76 23.8 72.1 23.9C66.2 24.2 57.3 28.5 54.9 37.9C54.1 41.1 55.3 44.9 57.2 46.6C59.9 49 63.1 49.8 68.8 48.6C73.9 47.6 78 44 81 40.3C81 40.4 81 40.4 81 40.5C80.3 43.2 81.4 46 85.8 45.4C88.5 44.9 91 43.8 93.2 42.2C94.3 43.1 96.1 43.6 98.1 43.3C98.9 43.2 101.1 42.5 103 39.8C104.5 37.6 105.2 33.4 105.5 31.1C105.6 30.4 105.7 29.7 105.9 29C106 28.7 106.2 28.4 106.6 28.2C107.4 27.8 107.8 28.6 107.7 29.2C107.6 29.8 106.8 32.7 106.8 32.7L106.7 33.2C106.2 34.6 105.7 36.2 105.7 37.9C105.7 39.1 106 40.1 106.7 40.7C107.3 41.3 108.2 41.5 109.2 41.3C112 40.8 114 38 114.9 36.3L115 36.1L115.2 35.8L115.3 36.4C115.8 38.9 117.8 39.8 120.7 39.4C124.5 38.8 126.8 36.8 127.4 33.3V33.2L127.5 33.1C127.9 33 128.2 32.8 128.5 32.5L128.8 32.3L127.5 37.8C128 37.7 131.6 37.1 131.9 37C132 36.6 133.4 30 133.4 30C133.7 28.8 134.4 26.6 135.2 26.6C135.4 26.6 135.5 26.6 135.7 26.8C135.9 27 136 27.4 136 27.7C135.9 28.5 135.8 29.4 135.5 30.2C135.1 31.5 134.9 32.8 134.8 34.1C134.6 36.4 136.6 36.4 137.1 36.3C138.5 36.1 140.3 35.3 141.8 31.9L141.9 32.3C142.3 34.1 144 35.3 145.8 35C147.8 34.7 149.6 33.4 150.3 31.4L150.4 31.2H150.5C151.4 31.1 152.5 30.1 152.8 28.9C152.9 28.3 152.8 28.1 152.7 28ZM93.6 39.5C92.6 38 93.5 36.2 94.5 36.2C95.3 36.2 95.6 36.7 95.2 37.7C94.8 38.4 94.2 39 93.6 39.5ZM123.6 31.6C123.4 31.9 123 32.1 122.6 32.1C122.1 32.2 122 31.9 121.9 31.8C121.8 31.3 122.3 30.6 122.7 30.4C122.9 30.3 123.1 30.3 123.3 30.4C123.8 30.7 123.6 31.6 123.6 31.6ZM148.2 29.5C147.7 29.2 147.7 28.3 148 28C148.1 27.9 148.3 27.8 148.4 27.9C148.5 28.4 148.4 28.9 148.2 29.5ZM148.5 26.3C148.5 26.4 147 26.5 146.9 28.7C146.9 29.5 147.3 30.3 148 30.7L147.9 31C147.6 32 147.2 33 146.3 33.1C146 33.2 145.8 33.1 145.6 32.9C145.3 32.6 145.2 32.4 145.2 31.5C145.2 29.5 146.2 24.4 147.6 24.3C147.8 24.3 148 24.4 148.1 24.5C148.4 24.9 148.6 25.5 148.5 26.3Z" fill="#EABF98"/>
</svg>
