<svg width="200" height="68" viewBox="0 0 200 68" fill="none" xmlns="http://www.w3.org/2000/svg">
<path d="M108 16.9001C108 16.7001 108 16.4001 108 16.2001C106.3 16.2001 104.6 16.2001 102.9 16.2001C102.9 16.5001 102.9 16.7001 102.9 16.9001C102.9 26.1001 102.9 35.3001 102.9 44.5001C102.9 44.8001 102.9 45.1001 102.8 45.4001C102.6 46.4001 101.7 47.3001 100.7 47.4001C99.0002 47.6001 97.7002 46.5001 97.7002 44.7001C97.7002 35.5001 97.7002 26.4001 97.7002 17.2001C97.7002 17.0001 97.7002 16.7001 97.7002 16.5001C97.7002 16.3001 97.5002 16.1001 97.4002 16.1001C95.9002 16.1001 94.3002 16.1001 92.7002 16.1001C92.7002 16.4001 92.7002 16.7001 92.7002 16.9001C92.7002 19.2001 92.7002 21.5001 92.7002 23.8001C92.7002 30.7001 92.7002 37.7001 92.7002 44.6001C92.7002 49.0001 95.8002 52.3001 100.2 52.4001C104.5 52.5001 108 49.0001 108 44.7001C108 35.6001 108 26.2001 108 16.9001Z" fill="#EABF98"/>
<path d="M128.3 38.7001C128.3 33.7001 128.3 28.7001 128.3 23.6001C128.3 19.9001 125.7 16.7001 122 16.3001C119 16.0001 116 16.2001 113 16.2001C113 28.1001 113 40.1001 113 52.1001C115.9 52.1001 118.7 52.3001 121.5 52.1001C125.6 51.8001 128.4 48.3001 128.3 44.6001C128.2 42.7001 128.3 40.7001 128.3 38.7001ZM123.2 44.3001C123.2 46.3001 122.2 47.3001 120.2 47.3001C119.5 47.3001 118.8 47.3001 118.1 47.3001C118.1 38.5001 118.1 29.8001 118.1 21.0001C119.1 21.0001 120 20.9001 120.9 21.0001C122.3 21.1001 123.1 22.1001 123.2 23.5001C123.2 23.7001 123.2 23.9001 123.2 24.1001C123.2 30.8001 123.2 37.6001 123.2 44.3001Z" fill="#EABF98"/>
<path d="M52.2 42.9999C52.2 43.9999 51.9 44.7999 51.1 45.2999C50.3 45.8999 49.4 45.8999 48.5 45.3999C47.5 44.8999 47.1 44.0999 47.1 42.9999C47.1 36.3999 47.1 29.8999 47.1 23.2999C47.1 22.4999 47 21.7999 46.8 20.9999C46 17.5999 42.3 15.0999 38.8 15.3999C34.7 15.7999 31.8 19.2999 31.9 23.1999C32 32.4999 31.9 41.7999 31.9 51.0999C31.9 51.2999 31.9 51.4999 31.9 51.6999C33.6 51.6999 35.2 51.6999 36.9 51.6999C36.9 51.3999 36.9 51.1999 36.9 50.9999C36.9 41.7999 36.9 32.5999 36.9 23.3999C36.9 23.1999 36.9 22.9999 36.9 22.7999C37 21.2999 38.4 20.1999 39.9 20.4999C41.2 20.6999 42 21.7999 42 23.2999C42 29.7999 42 36.2999 42 42.7999C42 43.3999 42 44.0999 42.2 44.6999C42.9 48.1999 46.2 51.0999 50.2 50.6999C54.4 50.2999 57.2 47.0999 57.2 42.8999C57.2 36.4999 57.2 29.9999 57.2 23.5999C57.2 23.2999 57.2 23.0999 57.2 22.7999C57.3 21.5999 58.2 20.5999 59.3 20.4999C61 20.1999 62.3 21.3999 62.3 23.1999C62.3 32.4999 62.3 41.6999 62.3 50.9999C62.3 51.2999 62.3 51.4999 62.3 51.7999C64 51.7999 65.6 51.7999 67.3 51.7999C67.3 51.4999 67.3 51.2999 67.3 50.9999C67.3 41.6999 67.3 32.3999 67.3 23.0999C67.3 18.1999 62.9 14.5999 58.1 15.5999C54.6 16.2999 52.1 19.3999 52.1 23.0999C52.1 29.6999 52.1 36.3999 52.2 42.9999Z" fill="#EABF98"/>
<path d="M160 47.2997C158.9 46.7997 158.5 45.8997 158.5 44.6997C158.5 35.4997 158.5 26.1997 158.5 16.9997C158.5 16.6997 158.5 16.4997 158.5 16.1997C156.8 16.1997 155.2 16.1997 153.5 16.1997C153.5 16.4997 153.5 16.6997 153.5 16.9997C153.5 19.3997 153.5 21.6997 153.5 24.0997C153.5 31.0997 153.5 38.0997 153.5 45.0997C153.5 49.1997 156.9 52.5997 161 52.5997C165.6 52.5997 168.7 48.7997 168.7 44.9997C168.6 35.5997 168.7 26.2997 168.7 16.8997C168.7 16.6997 168.7 16.4997 168.7 16.1997C167 16.1997 165.4 16.1997 163.7 16.1997C163.7 16.5997 163.7 16.8997 163.7 17.1997C163.7 26.1997 163.7 35.1997 163.7 44.0997C163.7 44.3997 163.7 44.7997 163.7 45.0997C163.6 46.9997 161.6 48.0997 160 47.2997Z" fill="#EABF98"/>
<path d="M87.7 50.7001C87.7 42.3001 87.7 34.0001 87.7 25.6001C87.7 24.6001 87.7 23.6001 87.7 22.6001C87.5 18.6001 84.2 15.4001 80.2 15.4001C75.9 15.3001 72.5 18.7001 72.5 23.0001C72.5 32.4001 72.5 41.9001 72.5 51.3001C72.5 51.5001 72.5 51.6001 72.5 51.8001C74.2 51.8001 75.8 51.8001 77.5 51.8001C77.5 51.5001 77.5 51.3001 77.5 51.1001C77.5 48.2001 77.5 45.3001 77.5 42.4001C77.5 41.8001 77.7 41.6001 78.2 41.7001C79 41.7001 79.8 41.7001 80.6 41.7001C81.3 41.7001 81.9 41.7001 82.6 41.7001C82.6 45.1001 82.6 48.5001 82.6 51.8001C84.3 51.8001 85.9 51.8001 87.6 51.8001C87.7 51.4001 87.7 51.1001 87.7 50.7001ZM82.7 36.4001C82.7 36.5001 82.7 36.5001 82.7 36.7001C81.1 36.7001 79.5 36.7001 77.9 36.7001C77.5 36.7001 77.6 36.3001 77.6 36.1001C77.6 33.6001 77.6 31.1001 77.6 28.6001C77.6 26.8001 77.6 25.0001 77.6 23.2001C77.6 22.0001 78.4 21.0001 79.5 20.7001C80.6 20.4001 81.8 20.8001 82.4 21.9001C82.6 22.3001 82.8 22.8001 82.8 23.2001C82.7 27.5001 82.7 31.9001 82.7 36.4001Z" fill="#EABF98"/>
<path d="M138.7 15.7998C135.3 16.7998 133.2 19.6998 133.2 23.3998C133.2 32.6998 133.2 41.8998 133.2 51.1998C133.2 51.3998 133.2 51.5998 133.2 51.8998C134.9 51.8998 136.6 51.8998 138.3 51.8998C138.3 48.4998 138.3 45.1998 138.3 41.7998C138.6 41.7998 138.8 41.7998 139 41.7998C140.2 41.7998 141.5 41.7998 142.7 41.7998C143.2 41.7998 143.4 41.8998 143.4 42.4998C143.4 45.3998 143.4 48.2998 143.4 51.1998C143.4 51.3998 143.4 51.6998 143.4 51.8998C145.1 51.8998 146.7 51.8998 148.4 51.8998C148.4 51.6998 148.4 51.4998 148.4 51.3998C148.4 41.8998 148.4 32.3998 148.4 22.8998C148.4 17.8998 143.4 14.2998 138.7 15.7998ZM143.4 36.0998C143.4 36.2998 143.2 36.5998 143.1 36.5998C141.5 36.5998 139.9 36.5998 138.3 36.5998C138.3 36.2998 138.3 36.0998 138.3 35.8998C138.3 31.6998 138.3 27.3998 138.3 23.1998C138.3 21.5998 139.4 20.4998 140.9 20.4998C142.3 20.4998 143.5 21.6998 143.5 23.1998C143.4 27.4998 143.4 31.7998 143.4 36.0998Z" fill="#EABF98"/>
</svg>
