<svg width="200" height="68" viewBox="0 0 200 68" fill="none" xmlns="http://www.w3.org/2000/svg">
<path d="M104.4 13.1001C100.7 13.1001 98.4004 16.2001 98.4004 19.2001V47.7001C98.4004 51.0001 101.1 53.7001 104.4 53.7001C107.3 53.7001 110.4 51.4001 110.4 47.7001V19.2001C110.4 16.2001 108.1 13.1001 104.4 13.1001ZM106.9 47.7001C106.9 49.0001 105.8 50.1001 104.4 50.1001C103.1 50.1001 102 49.1001 102 47.7001V19.2001C102 17.9001 103.1 16.7001 104.4 16.7001C105.7 16.7001 106.9 17.8001 106.9 19.2001V47.7001Z" fill="#EABF98"/>
<path d="M94.3002 13.2998H87.9002C87.6002 13.2998 87.2002 13.3998 87.0002 13.5998C86.5002 13.8998 86.2002 14.2998 86.2002 14.8998C86.2002 14.9998 86.2002 14.9998 86.2002 15.0998V15.1998V51.9998C86.2002 52.9998 87.0002 53.7998 88.0002 53.7998C89.0002 53.7998 89.8002 52.9998 89.8002 51.9998C89.8002 51.9998 89.8002 28.4998 89.8002 27.7998H93.9002C94.9002 27.7998 95.6002 27.0998 95.6002 26.0998C95.6002 24.9998 94.9002 24.1998 93.9002 24.1998H89.8002V16.9998H94.4002C95.4002 16.9998 96.1002 16.1998 96.1002 15.1998C96.0002 14.0998 95.3002 13.2998 94.3002 13.2998Z" fill="#EABF98"/>
<path d="M154.8 13.4C154.4 13.1 153.9 13 153.4 13.1C153 13.2 152.6 13.5 152.3 13.9C152.3 13.9 149.8 18.2 148.6 20.1C147.5 18.2 144.9 13.9 144.9 13.9C144.6 13.5 144.3 13.2 143.8 13.1C143.3 13 142.9 13.1 142.4 13.4C141.8 13.8 141.5 14.3 141.5 14.9C141.5 15.2 141.6 15.5 141.8 15.8C141.8 15.8 142.1 16.2 142.5 16.8L146.8 23.5V52.1C146.8 53.1 147.6 53.9 148.6 53.9C149.6 53.9 150.4 53.1 150.4 52.1V23.6L154.7 16.9C155.1 16.3 155.4 15.9 155.4 15.9C155.6 15.6 155.7 15.3 155.7 15C155.7 14.3 155.4 13.8 154.8 13.4Z" fill="#EABF98"/>
<path d="M124.4 13.2998H115.4C115 13.2998 113.8 13.8998 113.8 15.1998C113.8 16.2998 114.7 16.8998 115.4 16.8998C115.4 16.8998 120.9 16.8998 121.8 16.8998C119.9 24.4998 113.6 49.4998 113.1 51.1998C113.1 51.3998 113 51.4998 113 51.6998C113 52.4998 113.5 53.1998 114.3 53.3998H114.4H123.3C124.7 53.3998 125.2 52.3998 125.2 51.5998C125.2 50.6998 124.6 49.7998 123.3 49.7998H117C117.2 48.8998 125.7 15.3998 125.7 15.3998C125.7 15.1998 125.8 15.0998 125.8 14.8998C125.8 14.4998 125.7 14.1998 125.5 13.8998C125.2 13.5998 124.8 13.3998 124.4 13.2998Z" fill="#EABF98"/>
<path d="M138.6 13.2998H129.6C129.2 13.2998 128 13.8998 128 15.1998C128 16.2998 128.9 16.8998 129.6 16.8998C129.6 16.8998 135.1 16.8998 136 16.8998C134.1 24.4998 127.8 49.4998 127.3 51.2998C127.3 51.4998 127.2 51.5998 127.2 51.7998C127.2 52.5998 127.7 53.2998 128.5 53.4998H128.6H137.5C138.9 53.4998 139.4 52.4998 139.4 51.6998C139.4 50.7998 138.8 49.8998 137.5 49.8998C137.5 49.8998 132.2 49.8998 131.3 49.8998C131.5 48.9998 140 15.4998 140 15.4998C140 15.2998 140.1 15.1998 140.1 14.9998C140.1 14.6998 140 14.2998 139.8 13.9998C139.5 13.6998 139.1 13.3998 138.6 13.2998Z" fill="#EABF98"/>
<path d="M73.8 22.3999C73.5 21.9999 73.1 21.7999 72.6 21.7999H51.4L50.5 17.0999C50.4 16.3999 49.7 15.8999 49 15.8999H40.5C39.7 15.8999 39 16.5999 39 17.3999C39 18.1999 39.7 18.8999 40.5 18.8999C40.5 18.8999 46 18.8999 47.8 18.8999C48.2 20.8999 52.3 41.9999 53.1 46.3999H48.8C48.3 45.3999 47.2 44.5999 45.9 44.5999C44.1 44.5999 42.6 46.0999 42.6 47.8999C42.6 49.6999 44.1 51.1999 45.9 51.1999C47.2 51.1999 48.2 50.4999 48.8 49.3999H65.3C65.8 50.3999 66.9 51.1999 68.2 51.1999C70 51.1999 71.5 49.6999 71.5 47.8999C71.5 46.0999 70 44.5999 68.2 44.5999C66.9 44.5999 65.9 45.2999 65.3 46.3999H56.2L53.9 34.6999H70.5C71.2 34.6999 71.8 34.1999 72 33.4999L74.1 23.6999C74.2 23.2999 74.1 22.7999 73.8 22.3999ZM69.3 31.6999C67.5 31.6999 56.6 31.6999 53.3 31.6999L52 24.8999C56.5 24.8999 68.2 24.8999 70.7 24.8999C70.3 26.9999 69.6 30.2999 69.3 31.6999Z" fill="#EABF98"/>
</svg>
