<svg width="123" height="101" viewBox="0 0 123 101" fill="none" xmlns="http://www.w3.org/2000/svg">
<path d="M22.92 83.6131C23.38 79.183 21.77 73.9626 17 72.9126C20.37 70.0825 21.38 66.0424 19.86 61.8722C16.93 53.812 6.47 56.6922 0 57.2022C1.58 59.4222 1.65 61.4922 1.91 64.1023C2.65 71.5725 3.64 80.4731 3.83 87.8833C3.88 89.8133 3.55 91.6534 2.97 92.8834C9.85 92.4534 21.94 92.9232 22.91 83.6229L22.92 83.6131ZM16.11 84.6732C14.89 86.6333 12.41 87.0133 10.3 87.1533C9.86 87.1833 10.02 87.1532 9.98 86.8432L9.13 76.2526C9.13 76.2526 11.72 75.9426 12.85 76.1027C16.38 76.6027 17.81 81.9231 16.11 84.6732ZM14.45 65.3723C14.86 69.4425 12.68 71.5228 8.72 71.6328L8.08 61.6525C11.22 60.9725 14.09 61.8122 14.45 65.3723Z" fill="#633510"/>
<path d="M54.0504 78.6627C54.6304 78.6627 54.9303 79.1226 54.9303 79.1226L60.5804 88.3632C60.8604 88.9232 61.3804 89.1932 62.9704 89.1732C64.8704 89.1532 68.2003 89.1732 68.2003 89.1732L58.9303 74.8925L67.0504 61.8321L62.2704 61.7222C61.1004 61.7222 60.4304 62.0623 60.1404 62.5323L53.3804 74.2626L53.3004 58.8623C53.3304 57.4222 53.1604 56.2418 51.9904 55.9618C50.8004 55.6818 45.6104 55.932 45.6104 55.932C47.4604 58.1921 46.9703 60.5619 47.0303 63.192C47.1903 69.6722 47.4903 76.2724 47.4503 82.7326C47.4403 84.9427 47.4203 87.063 46.8703 89.203L54.1003 89.1532C53.8203 88.4432 53.6103 87.2628 53.5303 86.2728C53.4503 85.1627 53.5003 79.6125 53.5103 78.6925C53.5103 78.6925 53.7304 78.6429 54.0504 78.6529V78.6627Z" fill="#633510"/>
<path d="M25.4398 80.0425C23.8898 86.2027 28.0698 91.2829 34.5198 89.5428C35.8698 89.1828 36.8998 88.283 38.0098 87.513C38.3198 88.363 39.1598 89.2831 40.7698 89.2831H44.9098C44.9098 89.2831 45.0398 86.5627 44.6598 85.5427C44.4798 85.0727 43.3698 84.8429 43.2198 84.0129C41.6798 75.6026 45.8898 60.672 32.6898 61.602C28.6098 61.892 25.1198 64.7924 25.5898 69.1526C25.8598 71.6726 28.7498 72.4427 30.9098 71.9227C30.8898 70.0526 30.6898 66.2721 33.7698 66.3121C36.0498 66.3421 36.1298 69.0624 36.4198 70.7224C32.4398 72.6625 26.6198 75.3424 25.4398 80.0425ZM36.6298 75.4125L36.9598 82.8527C36.0898 84.6727 33.0298 85.7029 31.7798 83.7629C29.5398 80.2928 33.7298 76.6726 36.6298 75.4125Z" fill="#633510"/>
<path d="M86.0003 70.3027C87.2003 60.6324 74.1103 58.1322 69.5603 66.1824C64.8603 74.4827 66.2303 91.6533 79.4503 89.2432C84.9603 88.2332 89.1703 79.3628 80.7203 79.1428C81.0303 84.903 74.4403 86.553 73.7403 80.3528C77.4503 77.9327 85.3803 75.3826 86.0103 70.3125L86.0003 70.3027ZM80.3603 69.9623C79.8703 71.7124 75.1803 74.0729 73.4903 74.8829C73.4103 72.5328 73.9903 68.1625 76.2403 66.9124C78.5703 65.6224 81.0603 67.4523 80.3603 69.9623Z" fill="#633510"/>
<path d="M112.95 71.4129C112.37 68.0528 116.25 67.1726 117.14 69.2727C117.92 71.1128 117.33 74.143 117.33 74.143C121.04 75.043 123.07 73.003 122.92 69.2029C122.61 61.3726 107.64 60.5327 106.94 70.263C106.48 76.6232 111.93 77.913 114.78 81.8331C118.46 86.8833 110.71 89.5737 110.13 84.4035C110 83.1935 110.25 80.4034 110.25 80.4034C107.01 79.9534 104.58 81.5531 104.61 85.0632C104.67 94.3135 122.3 95.2537 121.65 83.4333C121.31 77.3131 113.62 75.2633 112.95 71.4232V71.4129Z" fill="#633510"/>
<path d="M105.15 71.1917C107.7 65.1816 101.74 58.6414 96.1098 63.6915C95.7298 64.0315 95.3398 64.6518 95.0898 64.6818C95.0498 62.7417 93.7498 62.2917 92.1898 62.2217C90.7698 62.1617 88.0098 62.1216 88.0098 62.1216C88.1398 62.3116 89.1698 62.9919 89.1498 65.612C89.1498 65.612 89.0898 68.3321 89.0698 69.6321C88.9998 74.7823 88.9998 80.2524 88.6698 85.3626C88.5898 86.5726 88.4298 88.9124 88.0798 89.7924L95.2198 90.1728C94.7198 89.2428 94.6498 87.0826 94.6298 86.0325C94.5798 81.7924 94.7898 74.7421 95.0898 70.492C95.1898 69.032 96.3298 66.902 98.1998 67.3821C100.58 67.9921 99.0498 73.552 98.9598 73.912C103.58 74.4521 104.75 72.142 105.15 71.182V71.1917Z" fill="#633510"/>
<path d="M24.9497 58.3215C33.5497 62.2016 43.5997 52.2912 36.0197 45.201C34.2097 43.5009 29.1096 41.091 28.7596 38.671C28.2596 35.1509 32.5397 31.7103 35.7397 31.4403C39.8297 31.0903 39.1497 35.3108 36.6997 37.1509C35.5997 37.9809 34.0097 37.7507 34.0797 39.2208C34.1397 40.6008 35.5897 40.4107 36.5897 40.1207C41.9997 38.5607 43.8296 28.1106 35.5696 28.9207C30.5096 29.4207 24.5997 34.7106 26.3397 40.1207C28.0397 45.4009 37.4897 45.751 35.6997 52.4512C34.2997 57.7113 22.8496 58.3914 23.9296 51.5112C24.3596 48.7511 27.1297 48.9009 27.4097 47.9808C28.0497 45.9508 25.5696 46.1409 24.2596 46.8909C19.8096 49.441 20.2996 56.2514 24.9296 58.3415L24.9497 58.3215Z" fill="#633510"/>
<path d="M62.1004 93.2529C30.8104 93.2529 5.44043 96.0034 5.44043 99.4035C5.44043 99.8535 5.90042 100.303 6.76042 100.723C12.3404 98.8233 35.0004 97.4034 62.1004 97.4034C89.2004 97.4034 111.86 98.8233 117.44 100.723C118.3 100.293 118.76 99.8535 118.76 99.4035C118.76 96.0034 93.3904 93.2529 62.1004 93.2529Z" fill="#633510"/>
<path d="M89.4998 36.9809C89.4998 37.0009 89.5098 37.031 89.5098 37.061C89.5398 37.191 89.6898 37.521 90.3198 37.541C91.0998 37.561 91.8198 37.4813 92.5898 37.5913C92.5998 37.5913 92.6098 37.5913 92.6198 37.5913C92.6398 37.5913 92.6498 37.5913 92.6698 37.5913C93.4698 37.7113 94.4298 37.8911 95.3798 38.1211C95.3998 38.1211 95.4098 38.1214 95.4298 38.1314L95.6798 38.2012L95.7398 38.2212C95.6898 38.4012 95.6298 38.581 95.5798 38.771C94.6798 41.8311 93.6698 44.8215 93.6698 44.8215C92.7098 47.7716 91.3898 50.5315 88.5998 52.1215C85.7398 53.7516 81.8698 53.8917 81.3198 50.0316C84.3298 49.9216 88.4498 48.7017 90.0198 45.9016C93.1698 40.2814 87.3198 37.7613 82.8198 40.8814C78.8298 43.6415 79.2698 49.0013 74.6298 51.7114C71.9798 53.2614 67.9398 53.1518 67.6898 49.4017C70.7998 49.3017 74.1998 48.4015 75.9898 45.7014C79.2598 40.7613 75.0598 37.161 70.0998 39.7711C67.4698 41.1511 66.1898 43.5515 65.0098 46.1316L62.2198 46.1912C63.0098 44.1511 64.7598 38.0913 61.6998 37.3213C57.9398 36.3712 57.1298 41.1212 57.8998 43.9113C58.1398 44.7814 58.9798 45.7815 59.0998 46.3216C59.4498 47.8616 53.5598 55.2915 52.9498 49.9613C52.6198 47.0412 54.0498 44.7012 54.2498 42.2111C54.3898 40.501 52.9798 39.7715 51.9198 40.9215C51.3698 41.5215 50.1698 45.5416 49.4298 46.8816C48.8898 47.8617 45.3098 53.6217 44.1198 51.0116C43.0798 48.7216 46.5998 43.4115 46.9698 40.8414C47.3798 38.0413 45.2798 36.7809 42.8398 38.211C41.8998 38.761 38.8398 42.2312 40.4698 42.8112C42.0498 43.3712 42.7098 39.6814 44.5498 39.8814C43.3598 43.7915 40.1098 48.0015 41.6598 52.2617C42.4798 54.5117 45.0798 54.4916 46.9098 53.3916C48.5498 52.4116 49.8698 50.8018 50.5398 49.4217C50.5298 58.432 59.2098 53.4115 61.0398 48.2513L64.5298 48.2215C64.8698 56.9218 74.2398 56.5119 78.7998 51.1117C79.4798 54.5818 82.5798 55.8516 85.6398 55.5215C85.6998 55.5215 85.7498 55.5115 85.8098 55.5015C86.5698 55.3915 87.2598 55.2015 87.8998 54.9815C90.6998 53.9815 92.2998 52.1314 92.5998 51.7714C92.7398 55.9916 96.4898 57.2818 99.7698 54.4717C101.26 53.1917 104.1 48.6115 102.89 47.7015C101.27 47.0915 100.34 50.0513 99.6598 51.2114C98.7398 52.7714 95.4998 55.3415 95.2298 51.9814C94.8798 47.7113 98.1398 38.9214 98.1398 38.9214C98.2498 38.9514 98.4398 39.0111 98.6498 39.0611C98.7298 39.0811 98.8198 39.1011 98.9098 39.1211C99.0498 39.1511 99.1998 39.181 99.3598 39.211C99.7498 39.291 100.13 39.3612 100.51 39.4112C103.06 39.7912 106.61 39.9414 107.02 38.0713C107.23 37.0913 106.53 36.7311 105.95 36.8911C105.59 36.9811 105.25 37.221 104.25 37.311C104.21 37.311 104.16 37.3213 104.12 37.3213C104.03 37.3213 103.91 37.331 103.78 37.331C103.67 37.331 103.55 37.331 103.43 37.331C101.83 37.321 100.63 37.1512 98.8898 36.7212C99.0898 36.1911 99.3098 35.6409 99.4798 35.2109C99.9098 34.0608 100.69 32.5209 99.2298 32.0408C98.9798 31.9708 98.4498 31.8908 98.0498 32.2908C97.6798 32.6609 97.0698 34.191 96.4198 36.121L96.2998 36.0913C94.3798 35.7112 92.5998 35.5912 92.5698 35.5912C90.8998 35.5212 89.3398 35.7412 89.4598 37.0112L89.4998 36.9809ZM87.9998 42.5412C89.7498 44.8512 83.5598 48.4716 81.4298 47.8216C81.2598 45.6515 86.2798 40.2611 87.9998 42.5412ZM74.2098 41.7711C76.3198 43.7712 69.9398 48.1617 67.7898 47.1717C67.7298 45.1116 72.2498 39.9111 74.2098 41.7711ZM60.4998 43.9113C59.4098 43.3513 59.8398 39.3711 60.7698 39.3711C61.0898 39.3711 61.1898 40.1212 61.2098 40.4513C61.2698 41.6213 60.8498 42.8113 60.4998 43.9113Z" fill="#633510"/>
<path d="M48.2003 28.1315C48.2003 28.1315 47.1503 33.0816 47.0903 33.6116C47.0403 34.0616 47.0503 34.3113 47.3903 34.4813C47.7803 34.6813 48.3204 34.3416 48.3804 34.3216C48.4304 34.3016 48.4303 34.3016 48.4303 34.3016C51.3603 33.2315 59.9004 31.0315 72.8804 35.3417C73.0004 35.3817 73.2803 35.5013 73.5703 35.4613C73.7203 35.4413 73.9003 35.3916 74.0703 35.2816C74.4403 35.0316 74.5503 34.6813 74.6003 34.4613C74.6003 34.3813 74.6204 34.3015 74.6304 34.2215C74.6804 33.8615 74.7403 33.5114 74.8203 33.1814C75.4303 30.7614 77.3303 29.6512 80.5703 29.3512C84.9803 28.9412 94.0603 23.5411 90.3603 13.1808C88.6103 8.29066 83.3404 6.13051 79.3004 5.85051C78.6404 4.26046 76.2803 0.040229 69.2203 0.000227734C65.5003 -0.0197729 62.9404 1.28035 60.5504 2.83039C56.6904 0.530322 48.9003 -0.949743 43.1503 6.06047C38.9103 11.2206 39.2603 18.5508 41.0803 22.0009C43.3603 26.321 48.1903 28.1412 48.1903 28.1412L48.2003 28.1315ZM71.9403 32.7112C67.9203 31.2312 58.0404 28.4111 48.7704 32.2512C48.9704 31.1512 49.2003 30.1314 49.4403 29.2013C54.6403 25.5512 62.1403 26.2511 66.3303 27.0611C66.3303 27.0611 71.1203 30.1215 72.4803 30.3215L71.9303 32.7215L71.9403 32.7112ZM40.9203 17.991C40.8003 17.521 40.7204 17.0609 40.6604 16.6209C40.1604 11.9207 43.2303 6.16054 47.9603 3.87046C53.2003 1.33039 58.9003 3.87046 58.9003 3.87046V3.93052C57.6703 4.77055 56.4203 5.60067 55.0103 6.2807C53.8103 6.86071 52.8104 7.06048 51.9904 7.04048C51.6704 7.04048 51.3703 6.99085 51.1103 6.92085C50.7503 6.83085 50.4003 6.89052 50.2203 7.08052C50.0203 7.28053 49.9003 7.85061 50.6403 8.14062C50.6603 8.14062 50.6903 8.16064 50.7103 8.16064C51.4403 8.40064 52.4304 8.43059 53.7704 8.10058C59.0904 6.80054 61.8603 2.45028 69.9403 2.23028C71.5203 2.19028 74.7003 2.4404 76.4503 4.10045C77.3503 4.95048 77.3204 5.97061 76.5504 5.95061C72.7704 5.7106 70.7603 7.13082 70.7603 7.13082C69.0703 8.24085 70.7603 9.49076 70.7603 9.49076C72.5003 6.71067 79.0003 7.61042 79.6203 7.71043C87.0203 9.52048 88.3003 14.961 88.3303 16.8611C88.3503 18.3611 88.9703 25.9214 80.2903 27.8414C73.0003 29.4515 68.0603 25.7213 66.6703 24.4912C65.8903 23.8412 65.6603 23.5713 65.0703 23.8213C64.4803 24.0713 64.7803 24.9711 64.9303 25.3711C61.5803 25.0011 58.2003 25.301 56.5403 25.5411C52.9203 26.0611 50.7103 27.211 49.8203 27.9611C51.4903 22.2709 53.5703 20.181 53.5703 20.181C54.2503 20.161 54.8904 20.1211 55.4904 20.0511C55.6904 20.0311 55.8903 20.0111 56.0803 19.9711C57.3803 19.7311 58.3003 19.0909 58.3903 18.5408C58.5003 17.8208 57.9003 17.5309 57.2503 17.6209C56.4003 17.7309 55.5003 17.7507 54.5103 17.6907C52.9603 17.6107 51.7403 17.3512 50.6803 16.9212C48.2003 15.7011 47.4503 13.2906 47.4203 13.1906C47.0503 11.7905 47.3303 10.6807 47.3303 10.6807C47.3303 10.6807 46.2803 10.8406 46.0103 12.3107C45.9103 12.8607 45.9303 13.3808 46.0303 13.8708C46.3503 16.8309 50.3804 19.6908 50.3804 19.6908C49.0604 22.6209 46.4104 22.7011 46.4104 22.7011C44.6804 22.7911 43.5903 22.0109 42.7303 21.2108C41.8103 20.3508 41.2703 19.2209 40.9703 18.1009C40.9703 18.0709 40.9504 18.0308 40.9404 18.0008L40.9203 17.991Z" fill="#633510"/>
</svg>
