<svg width="200" height="68" viewBox="0 0 200 68" fill="none" xmlns="http://www.w3.org/2000/svg">
<path d="M154.8 39.6001C154.9 39.6001 154.9 39.7001 155 39.7001C155.1 39.7001 155.1 39.7001 155.2 39.7001H155.6H155.7H155.8C155.8 39.7001 155.8 39.7001 155.9 39.7001C155.9 39.7001 155.9 39.7001 156 39.7001C156.1 39.7001 156.2 39.6001 156.3 39.4001C156.3 39.4001 156.3 39.4001 156.3 39.3001L157 34.3001C157.1 34.0001 156.8 33.6001 156.4 33.6001H156C155.6 33.6001 155.3 33.9001 155.2 34.2001L154.7 39.4001C154.7 39.4001 154.7 39.5001 154.8 39.6001Z" fill="#EABF98"/>
<path d="M154.8 31.8999C154.9 31.9999 155.2 32.1999 155.4 31.9999C155.6 31.8999 155.7 31.5999 155.5 31.3999C155.4 31.0999 155.1 31.0999 154.9 31.1999C154.8 31.2999 154.7 31.3999 154.7 31.4999C154.7 31.4999 154.7 31.4999 154.7 31.5999C154.7 31.6999 154.7 31.7999 154.8 31.8999Z" fill="#EABF98"/>
<path d="M127.9 41.6999V13.8999H47.3002C40.3002 13.8999 34.7002 19.4999 34.7002 26.5999V54.2999H115.3C122.2 54.2999 127.9 48.6999 127.9 41.6999ZM70.0002 35.3999C70.0002 37.0999 69.4002 38.5999 68.1002 39.7999C66.8002 40.9999 65.2002 41.5999 63.4002 41.5999H63.3002C62.3002 41.5999 61.4002 41.3999 60.6002 41.0999V42.6999C60.6002 43.0999 60.3002 43.3999 60.0002 43.7999C59.7002 44.1999 59.2002 44.2999 58.7002 44.2999C58.2002 44.2999 57.7002 44.0999 57.3002 43.7999C57.0002 43.3999 56.8002 42.8999 56.8002 42.3999V41.0999C55.9002 41.3999 55.0002 41.5999 54.1002 41.5999H54.0002C52.2002 41.5999 50.6002 40.9999 49.3002 39.7999C48.0002 38.5999 47.4002 37.0999 47.4002 35.3999V32.6999C47.4002 30.9999 48.0002 29.4999 49.3002 28.2999C50.6002 27.0999 52.2002 26.4999 54.0002 26.4999C55.1002 26.4999 56.1002 26.7999 57.1002 27.1999C57.4002 26.6999 58.0002 26.4999 58.7002 26.4999C59.4002 26.4999 59.9002 26.7999 60.3002 27.1999C61.3002 26.6999 62.3002 26.4999 63.4002 26.4999H63.5002C65.3002 26.4999 66.9002 27.0999 68.3002 28.3999C69.6002 29.5999 70.2002 31.0999 70.2002 32.7999V35.3999H70.0002ZM85.2002 35.2999C85.2002 36.9999 84.5002 38.4999 83.2002 39.6999C81.8002 40.8999 80.2002 41.4999 78.3002 41.4999H78.2002C76.3002 41.4999 74.7002 40.8999 73.3002 39.6999C71.9002 38.4999 71.3002 36.9999 71.3002 35.2999V32.5999C71.3002 30.8999 72.0002 29.3999 73.3002 28.1999C74.7002 26.9999 76.3002 26.3999 78.2002 26.3999H78.3002C80.1002 26.3999 81.8002 26.9999 83.2002 28.1999C84.6002 29.3999 85.2002 30.8999 85.2002 32.5999V35.2999ZM100.3 35.3999C100.3 37.0999 99.6002 38.5999 98.3002 39.7999C96.9002 40.9999 95.3002 41.5999 93.4002 41.5999H93.3002C92.3002 41.5999 91.4002 41.3999 90.5002 41.0999V42.3999C90.5002 42.8999 90.3002 43.3999 89.9002 43.6999C89.5002 44.0999 89.0002 44.1999 88.5002 44.1999C88.0002 44.1999 87.5002 43.9999 87.1002 43.6999C86.7002 43.2999 86.5002 42.7999 86.5002 42.2999V28.2999C86.5002 27.7999 86.7002 27.2999 87.1002 26.9999C87.4002 26.6999 88.0002 26.4999 88.5002 26.4999C89.2002 26.4999 89.8002 26.7999 90.1002 27.1999C91.1002 26.6999 92.1002 26.4999 93.3002 26.4999H93.4002C95.2002 26.4999 96.9002 27.0999 98.3002 28.3999C99.7002 29.5999 100.3 31.0999 100.3 32.7999V35.3999ZM113.3 41.5999C112.6 41.5999 112 41.2999 111.7 40.8999C110.7 41.3999 109.7 41.5999 108.5 41.5999H108.4C106.5 41.5999 104.9 40.9999 103.5 39.7999C102.1 38.5999 101.5 37.0999 101.5 35.3999V32.6999C101.5 30.9999 102.2 29.4999 103.5 28.2999C104.9 27.0999 106.5 26.4999 108.4 26.4999H108.5C109.7 26.4999 110.7 26.7999 111.7 27.1999C112 26.6999 112.6 26.4999 113.3 26.4999C113.8 26.4999 114.3 26.6999 114.7 26.9999C115 27.2999 115.3 27.7999 115.3 28.3999V39.7999C115.3 40.2999 115.1 40.7999 114.7 41.1999C114.4 41.3999 113.9 41.5999 113.3 41.5999Z" fill="#EABF98"/>
<path d="M145.6 39.7H145.7H146H146.1C146.1 39.7 146.1 39.7 146.2 39.7C146.5 39.7 146.7 39.6 146.8 39.3L146.1 34.1C146 33.8 145.7 33.5 145.3 33.5H145.2H144.9H144.8C144.4 33.5 144.2 33.9 144.2 34.2L145.1 39.2C145.1 39.5 145.3 39.7 145.6 39.7Z" fill="#EABF98"/>
<path d="M108.4 30.1001H108.3C107.6 30.1001 106.9 30.4001 106.3 30.8001C105.8 31.3001 105.5 31.9001 105.5 32.6001V35.3001C105.5 36.0001 105.8 36.7001 106.3 37.1001C106.8 37.6001 107.5 37.8001 108.3 37.8001H108.4C109.2 37.8001 109.8 37.5001 110.4 37.1001C110.9 36.6001 111.2 35.9001 111.2 35.3001V32.6001C111.2 31.9001 110.9 31.2001 110.4 30.8001C109.9 30.4001 109.2 30.1001 108.4 30.1001Z" fill="#EABF98"/>
<path d="M53.9006 30.1001H53.8006C53.1006 30.1001 52.4006 30.4001 51.9006 30.8001C51.4006 31.3001 51.1006 31.9001 51.1006 32.6001V35.3001C51.1006 36.0001 51.4006 36.7001 51.9006 37.1001C52.4006 37.6001 53.1006 37.8001 53.8006 37.8001H53.9006C54.6006 37.8001 55.3006 37.5001 55.8006 37.1001C56.3006 36.6001 56.6006 36.0001 56.6006 35.3001V32.6001C56.6006 31.9001 56.3006 31.2001 55.8006 30.8001C55.3006 30.4001 54.7006 30.1001 53.9006 30.1001Z" fill="#EABF98"/>
<path d="M152 39.7H152.1H152.4C152.5 39.7 152.6 39.7 152.6 39.7H152.7C152.8 39.7 152.9 39.6 152.9 39.5C152.9 39.5 152.9 39.5 152.9 39.4C152.9 39.4 152.9 39.4 152.9 39.3L153.2 34.1C153.2 33.8 152.9 33.5 152.5 33.5H152.2C151.8 33.5 151.5 33.8 151.5 34.1L151.4 39.3V39.4C151.5 39.6 151.7 39.7 152 39.7Z" fill="#EABF98"/>
<path d="M148.9 39.7H149.2H149.3C149.6 39.7 149.9 39.5 149.9 39.3L149.7 34.1C149.6 33.8 149.2 33.5 148.9 33.5H148.8H148.5H148.4C148.4 33.5 148.4 33.5 148.3 33.5C148.2 33.5 148.1 33.5 148.1 33.6C148.1 33.6 148 33.6 148 33.7C148 33.7 147.9 33.7 147.9 33.8C147.8 33.9 147.7 34 147.7 34.2L148.1 39.4C148.3 39.5 148.6 39.7 148.9 39.7Z" fill="#EABF98"/>
<path d="M146.3 31.8997C146.3 31.7997 146.4 31.7997 146.4 31.6997C146.4 31.6997 146.4 31.6997 146.4 31.5997C146.4 31.3997 146.3 31.2997 146.2 31.1997C146.2 31.1997 146.2 31.1997 146.1 31.1997H146H145.9C145.8 31.1997 145.6 31.2997 145.6 31.3997C145.5 31.5997 145.6 31.7997 145.7 31.9997C145.9 32.0997 146.2 32.0997 146.3 31.8997Z" fill="#EABF98"/>
<path d="M143 54.2999H158C164.9 54.2999 170.7 48.5999 170.7 41.5999V26.5999C170.8 19.6999 165.1 13.8999 158.1 13.8999H130.4V41.5999C130.4 48.4999 136 54.2999 143 54.2999ZM141.1 30.2999H145.5L148.4 25.4999C148.6 25.0999 149.1 24.9999 149.5 25.1999L149.8 25.3999C150.2 25.5999 150.3 26.0999 150.1 26.4999L148.8 28.5999L147.8 30.1999L146.4 32.3999C146.6 32.2999 146.7 32.0999 146.9 31.9999L148.4 30.1999H152.5L154 31.9999C154.1 32.0999 154.3 32.2999 154.5 32.3999L153.1 30.1999L152.1 28.5999L150.8 26.4999C150.6 26.0999 150.7 25.5999 151.1 25.3999L151.4 25.1999C151.8 24.9999 152.3 25.0999 152.5 25.4999L155.4 30.2999H159.8C160.1 30.2999 160.5 30.5999 160.5 30.8999V32.2999C160.5 32.5999 160.2 32.7999 159.8 32.7999H159.5L158.3 40.0999C157.9 41.4999 157.3 41.5999 156 41.5999H145.3C143.9 41.5999 143 41.5999 142.6 40.1999L141.4 32.7999H141.1C140.8 32.7999 140.4 32.5999 140.4 32.2999L140.3 30.9999C140.5 30.5999 140.8 30.2999 141.1 30.2999Z" fill="#EABF98"/>
<path d="M63.4006 30.1001H63.3006C62.6006 30.1001 61.9006 30.3001 61.4006 30.8001C60.9006 31.3001 60.6006 31.9001 60.6006 32.6001V35.3001C60.6006 36.0001 60.9006 36.7001 61.4006 37.1001C61.9006 37.5001 62.6006 37.8001 63.3006 37.8001H63.4006C64.2006 37.8001 64.8006 37.5001 65.4006 37.1001C65.9006 36.6001 66.2006 36.0001 66.2006 35.3001V32.6001C66.2006 31.9001 65.9006 31.2001 65.4006 30.8001C64.7006 30.4001 64.1006 30.1001 63.4006 30.1001Z" fill="#EABF98"/>
<path d="M93.3004 30.1001H93.2004C92.5004 30.1001 91.8004 30.4001 91.2004 30.8001C90.7004 31.3001 90.4004 31.9001 90.4004 32.6001V35.3001C90.4004 36.0001 90.7004 36.7001 91.2004 37.1001C91.7004 37.6001 92.4004 37.8001 93.2004 37.8001H93.3004C94.0004 37.8001 94.7004 37.5001 95.3004 37.1001C95.8004 36.6001 96.1004 35.9001 96.1004 35.3001V32.6001C96.1004 31.9001 95.8004 31.2001 95.3004 30.8001C94.8004 30.4001 94.1004 30.1001 93.3004 30.1001Z" fill="#EABF98"/>
<path d="M78.1998 30.1001H78.0998C77.3998 30.1001 76.6998 30.4001 76.0998 30.8001C75.5998 31.3001 75.2998 31.9001 75.2998 32.6001V35.3001C75.2998 36.0001 75.5998 36.7001 76.0998 37.1001C76.5998 37.6001 77.2998 37.8001 78.0998 37.8001H78.1998C78.8998 37.8001 79.5998 37.5001 80.1998 37.1001C80.6998 36.6001 80.9998 35.9001 80.9998 35.3001V32.6001C80.9998 31.9001 80.6998 31.2001 80.1998 30.8001C79.5998 30.4001 78.9998 30.1001 78.1998 30.1001Z" fill="#EABF98"/>
</svg>
