<svg width="131" height="112" viewBox="0 0 131 112" fill="none" xmlns="http://www.w3.org/2000/svg">
<path d="M126.804 86.6926C126.684 84.589 126.067 82.816 125.211 81.3234C127.132 79.4502 128.118 76.6754 127.989 73.4299C127.74 67.3194 122.603 62.8117 115.753 62.7115C113.105 62.6514 110.676 63.3025 108.645 64.4946C108.246 64.1039 107.828 63.7333 107.37 63.4027C106.882 63.0521 106.385 62.7616 105.867 62.5112C107.609 60.4376 109.71 56.9416 109.61 53.9465C109.571 52.7043 109.182 51.5424 108.515 50.5807C111.651 49.5189 112.726 47.2149 113.085 45.5521C113.563 43.3583 112.926 41.1646 111.382 39.692C110.088 38.4599 108.286 37.8789 106.514 38.0893C106.425 37.7587 106.305 37.4282 106.146 37.0976C105.419 35.5349 104.075 34.3629 102.372 33.7919C102.293 33.7619 102.203 33.7418 102.114 33.7118C99.8537 33.0907 97.544 33.6817 95.9411 35.2945C95.5429 35.6952 95.1844 36.146 94.7961 36.8572C94.7862 36.8572 94.7763 36.8572 94.7663 36.8572C94.4776 36.8472 94.0395 36.8271 93.5019 36.8472C94.4676 35.9356 95.3537 34.8838 96.1003 33.6918C97.9521 30.7567 99.6844 25.8884 97.3548 19.3372C95.284 13.5072 90.0871 10.492 85.3581 9.42015C83.4167 6.77562 79.6335 3.53005 72.7541 3.5C69.3392 3.5 66.6213 4.36148 64.3912 5.49342C58.2386 3.2095 50.1744 4.02089 44.4 11.103C39.4918 17.1133 39.1832 25.3074 41.3336 30.6265C41.1744 30.6265 41.0251 30.6365 40.8757 30.6566C36.4155 31.0973 31.8956 33.8921 29.3669 37.7788C27.2761 40.9843 26.7286 44.6105 27.8138 47.9963C27.8536 48.1265 27.8933 48.2467 27.9431 48.3669C24.9564 50.2301 23.0748 53.4156 22.796 56.9617C18.5648 55.8698 13.8856 56.4508 10.6799 56.8515C9.6345 56.9817 8.64887 57.1019 7.81259 57.172C5.9409 57.3223 4.28822 58.4742 3.49175 60.1872C2.69529 61.9001 2.87454 63.9136 3.96967 65.4562C4.45751 66.1374 4.55703 66.7384 4.74619 68.7819L5.11455 72.5083C5.73181 78.6288 6.42873 85.5707 6.56811 91.3205C6.59798 92.5126 6.37897 93.3841 6.26945 93.6245C5.47299 95.3074 5.62234 97.2808 6.65774 98.8234C7.08584 99.4545 7.64336 99.9654 8.27057 100.356C8.14115 100.867 8.05151 101.408 8.05151 101.999C8.05151 103.451 8.58915 106.156 12.1832 107.949C13.4277 108.57 14.8712 108.66 16.1854 108.22C19.6201 107.048 37.3812 105.385 66.0936 105.385C94.8061 105.385 112.567 107.037 116.002 108.22C116.549 108.41 117.117 108.5 117.684 108.5C118.481 108.5 119.277 108.32 120.004 107.959C123.598 106.166 124.136 103.461 124.136 102.009C124.136 100.186 123.499 98.7533 122.254 97.5913C125.41 95.077 127.063 91.2003 126.814 86.7327L126.804 86.6926Z" fill="white" stroke="white" stroke-width="5.25" stroke-miterlimit="10"/>
<path d="M29.5563 87.1629C29.9844 83.0158 28.491 78.1073 24.0408 77.1257C27.1768 74.4711 28.1226 70.6846 26.7089 66.7679C23.981 59.2049 14.2344 61.9096 8.20117 62.3804C9.67463 64.4539 9.74429 66.4073 9.98323 68.8515C10.6702 75.8535 11.5961 84.2078 11.7753 91.1497C11.825 92.9528 11.5164 94.6858 10.9788 95.8377C17.3903 95.437 28.6602 95.8678 29.5662 87.1528L29.5563 87.1629ZM23.2144 88.1546C22.0795 89.9977 19.7698 90.3483 17.7985 90.4785C17.3904 90.5086 17.5396 90.4785 17.4998 90.188L16.7133 80.261C16.7133 80.261 19.1326 79.9705 20.1779 80.1208C23.4633 80.5916 24.7974 85.5802 23.2144 88.1546ZM21.6613 70.0535C22.0396 73.8701 20.0087 75.8134 16.3151 75.9336L15.7178 66.5676C18.6448 65.9265 21.3228 66.7178 21.6613 70.0535Z" fill="#633510"/>
<path d="M58.5779 82.5141C59.1255 82.5141 59.4043 82.9448 59.4043 82.9448L64.6708 91.6097C64.9297 92.1406 65.4176 92.391 66.891 92.371C68.6631 92.351 71.7693 92.371 71.7693 92.371L63.1277 78.978L70.6941 66.727L66.2439 66.6269C65.1587 66.6269 64.5315 66.9374 64.2527 67.3882L57.9507 78.397L57.881 63.9523C57.9109 62.6 57.7516 61.4881 56.6565 61.2276C55.5514 60.9672 50.7129 61.1976 50.7129 61.1976C52.4352 63.3212 51.9772 65.545 52.037 68.0092C52.1863 74.0796 52.4651 80.2803 52.4253 86.3306C52.4153 88.4042 52.4054 90.3976 51.8877 92.4011L58.6277 92.361C58.3688 91.6998 58.1697 90.5879 58.1001 89.6563C58.0204 88.6146 58.0702 83.4056 58.0801 82.5542C58.0801 82.5542 58.2792 82.5141 58.5879 82.5141H58.5779Z" fill="#633510"/>
<path d="M31.9063 83.818C30.4628 89.5979 34.3654 94.366 40.3687 92.7332C41.6232 92.3927 42.5888 91.5512 43.6242 90.83C43.913 91.6314 44.6995 92.4828 46.2028 92.4828H50.0657C50.0657 92.4828 50.1851 89.9284 49.8267 88.9768C49.6674 88.536 48.622 88.3157 48.4827 87.5443C47.049 79.6608 50.9716 65.6468 38.6663 66.5183C34.8632 66.7888 31.6077 69.5134 32.0457 73.6004C32.2946 75.9645 34.9926 76.6857 37.0037 76.2049C36.9838 74.4519 36.7946 70.9058 39.6718 70.9459C41.7924 70.9759 41.872 73.5303 42.1408 75.083C38.4273 76.8961 33.0114 79.4204 31.9063 83.818ZM42.34 79.4705L42.6486 86.4525C41.8422 88.1654 38.9849 89.1271 37.8201 87.3039C35.7294 84.0584 39.632 80.6525 42.34 79.4705Z" fill="#633510"/>
<path d="M88.3657 74.6711C89.4807 65.5955 77.2849 63.2515 73.0438 70.8044C68.6632 78.5878 69.9376 94.6954 82.2628 92.4315C87.4 91.4899 91.3226 83.1656 83.4376 82.9553C83.7263 88.3645 77.5836 89.9072 76.9265 84.0872C80.3911 81.8133 87.7783 79.4292 88.3657 74.6711ZM83.1091 74.3605C82.6511 76.0033 78.2805 78.2171 76.7075 78.9784C76.6279 76.7747 77.1655 72.6776 79.2661 71.4956C81.4365 70.2835 83.7562 71.9965 83.0991 74.3605H83.1091Z" fill="#633510"/>
<path d="M113.485 75.7134C112.937 72.568 116.561 71.7365 117.397 73.6999C118.124 75.4329 117.576 78.2677 117.576 78.2677C121.041 79.1092 122.923 77.1959 122.783 73.6398C122.494 66.2872 108.537 65.5059 107.889 74.6315C107.461 80.6017 112.539 81.8038 115.197 85.4801C118.622 90.2182 111.404 92.7425 110.866 87.8842C110.737 86.7523 110.976 84.1378 110.976 84.1378C107.959 83.7171 105.689 85.2196 105.719 88.5053C105.779 97.1802 122.206 98.0617 121.598 86.9727C121.28 81.2328 114.112 79.3095 113.494 75.7033L113.485 75.7134Z" fill="#633510"/>
<path d="M106.216 75.5137C108.595 69.874 103.04 63.7435 97.7832 68.4716C97.4347 68.7922 97.0663 69.3732 96.8274 69.4032C96.7876 67.5801 95.5829 67.1594 94.1194 67.0993C92.7953 67.0392 90.2168 67.0091 90.2168 67.0091C90.3363 67.1894 91.292 67.8305 91.2821 70.2847C91.2821 70.2847 91.2223 72.8391 91.2124 74.0612C91.1526 78.8895 91.1526 84.0183 90.834 88.8165C90.7644 89.9484 90.615 92.1522 90.2865 92.9736L96.9369 93.3342C96.469 92.4627 96.3993 90.4393 96.3893 89.4476C96.3395 85.4708 96.5387 78.8594 96.8175 74.8726C96.917 73.5002 97.9723 71.5068 99.7146 71.9576C101.935 72.5286 100.501 77.7475 100.421 78.0781C104.722 78.589 105.817 76.4152 106.196 75.5237L106.216 75.5137Z" fill="#633510"/>
<path d="M31.4579 63.4436C39.4823 67.0798 48.8407 57.7839 41.7721 51.1425C40.0796 49.5497 35.3307 47.2859 35.0121 45.022C34.5442 41.7263 38.5265 38.4908 41.5232 38.2403C45.3362 37.9198 44.6991 41.8666 42.4192 43.5995C41.3938 44.3809 39.9203 44.1605 39.98 45.5329C40.0398 46.8251 41.3838 46.6448 42.3196 46.3743C47.3672 44.9118 49.0697 35.105 41.3639 35.8663C36.6548 36.3271 31.1294 41.2956 32.7621 46.3643C34.3451 51.3128 43.1559 51.6433 41.4933 57.9241C40.1891 62.8626 29.5165 63.4936 30.5221 57.0426C30.9302 54.4481 33.4988 54.5984 33.7676 53.7369C34.365 51.8337 32.0552 52.014 30.8307 52.7152C26.6791 55.1093 27.1371 61.4902 31.4479 63.4536L31.4579 63.4436Z" fill="#633510"/>
<path d="M66.084 96.1992C36.9136 96.1992 13.2686 98.7837 13.2686 101.969C13.2686 102.4 13.6966 102.811 14.5031 103.211C19.7 101.428 40.8261 100.106 66.0939 100.106C91.3616 100.106 112.478 101.438 117.685 103.211C118.491 102.811 118.919 102.4 118.919 101.969C118.919 98.7837 95.2742 96.1992 66.1038 96.1992H66.084Z" fill="#633510"/>
<path d="M91.6308 43.4276C91.6308 43.4477 91.6308 43.4777 91.6407 43.4977C91.6706 43.6179 91.81 43.9285 92.3974 43.9485C93.1241 43.9685 93.7912 43.8984 94.5179 43.9986C94.5279 43.9986 94.5378 43.9986 94.5478 43.9986C94.5677 43.9986 94.5776 43.9986 94.5975 43.9986C95.3442 44.1188 96.2403 44.2791 97.1264 44.4995C97.1463 44.4995 97.1562 44.4995 97.1761 44.5095L97.415 44.5696L97.4748 44.5896C97.425 44.7599 97.3752 44.9302 97.3254 45.1005C96.4891 47.9754 95.5533 50.7702 95.5533 50.7702C94.6573 53.545 93.4328 56.1294 90.8343 57.622C88.1761 59.1446 84.5522 59.2748 84.0544 55.6586C86.862 55.5484 90.7048 54.4165 92.1683 51.7819C95.1053 46.5129 89.6495 44.1489 85.4582 47.0739C81.7447 49.6683 82.1429 54.6969 77.8221 57.2313C75.3431 58.6838 71.5898 58.5836 71.3509 55.0576C74.248 54.9574 77.4139 54.126 79.0865 51.5816C82.133 46.9436 78.2203 43.5679 73.5909 46.0221C71.1418 47.3143 69.9471 49.5682 68.842 51.9923L66.2435 52.0424C66.9803 50.1291 68.6031 44.4494 65.7557 43.7281C62.2513 42.8366 61.4947 47.2943 62.2115 49.9087C62.4305 50.7201 63.217 51.6617 63.3265 52.1726C63.6451 53.6151 58.1595 60.587 57.592 55.5885C57.2833 52.8538 58.6174 50.66 58.8066 48.316C58.936 46.7032 57.6218 46.0221 56.6362 47.1039C56.1185 47.6649 55.0035 51.4414 54.3166 52.6935C53.8088 53.6151 50.4736 59.0143 49.3685 56.5702C48.3928 54.4265 51.6782 49.4379 52.0267 47.0338C52.405 44.4093 50.4437 43.2273 48.1738 44.5596C47.2977 45.0704 44.4504 48.336 45.9736 48.877C47.4471 49.4079 48.0643 45.9419 49.7767 46.1323C48.6617 49.7985 45.6451 53.7453 47.0787 57.7422C47.8353 59.8558 50.2645 59.8257 51.9669 58.794C53.4902 57.8724 54.7247 56.3698 55.3519 55.0676C55.342 63.5121 63.4261 58.814 65.1385 53.9757L68.394 53.9457C68.7026 62.0996 77.4438 61.719 81.6949 56.6603C82.3321 59.9159 85.2192 61.1079 88.0666 60.7974C88.1163 60.7974 88.1662 60.7874 88.2259 60.7774C88.9328 60.6672 89.5798 60.4969 90.1772 60.2865C92.7856 59.3449 94.279 57.6119 94.5577 57.2814C94.6872 61.2382 98.1817 62.4502 101.238 59.8157C102.632 58.6137 105.27 54.3163 104.145 53.4648C102.632 52.8938 101.776 55.6686 101.138 56.7505C100.282 58.213 97.2657 60.6271 97.0069 57.4717C96.6883 53.4648 99.7148 45.2207 99.7148 45.2207C99.8144 45.2507 99.9936 45.3008 100.193 45.3509C100.272 45.371 100.352 45.391 100.432 45.411C100.561 45.4411 100.7 45.4711 100.85 45.5012C101.218 45.5713 101.577 45.6414 101.925 45.6915C104.304 46.0521 107.61 46.1924 107.998 44.4293C108.197 43.5078 107.54 43.1772 107.002 43.3275C106.674 43.4076 106.345 43.638 105.419 43.7181C105.38 43.7181 105.34 43.7281 105.3 43.7281C105.21 43.7281 105.101 43.7281 104.981 43.7382C104.882 43.7382 104.772 43.7382 104.653 43.7382C103.16 43.7281 102.035 43.5679 100.422 43.1572C100.611 42.6563 100.81 42.1354 100.969 41.7347C101.367 40.6629 102.094 39.2104 100.73 38.7596C100.501 38.6995 100.004 38.6194 99.6252 38.99C99.2767 39.3406 98.7093 40.7731 98.112 42.5862L98.0025 42.5561C96.2104 42.2055 94.5577 42.0853 94.5279 42.0853C92.9648 42.0152 91.5212 42.2256 91.6308 43.4176V43.4276ZM90.227 48.6365C91.8598 50.8003 86.0854 54.2061 84.0942 53.5951C83.9349 51.5616 88.6142 46.5129 90.227 48.6365ZM77.3741 47.9153C79.3354 49.7885 73.4017 53.9056 71.3907 52.984C71.3409 51.0507 75.5522 46.1723 77.3741 47.9153ZM64.5909 49.9288C63.5754 49.4079 63.9736 45.6715 64.8497 45.6715C65.1484 45.6715 65.248 46.3727 65.2579 46.6932C65.3177 47.7851 64.9294 48.907 64.5909 49.9388V49.9288Z" fill="#633510"/>
<path d="M53.1215 35.1238C53.1215 35.1238 52.1359 39.7617 52.0861 40.2626C52.0363 40.6833 52.0562 40.9137 52.3649 41.084C52.7233 41.2743 53.231 40.9538 53.2908 40.9337C53.3405 40.9137 53.3405 40.9137 53.3405 40.9137C56.0684 39.912 64.033 37.8484 76.1293 41.8853C76.2388 41.9254 76.5076 42.0356 76.7764 41.9955C76.9158 41.9755 77.085 41.9354 77.2443 41.8252C77.5928 41.5848 77.6923 41.2643 77.7421 41.0539C77.7421 40.9738 77.7621 40.9037 77.772 40.8235C77.8218 40.4829 77.8716 40.1524 77.9512 39.8519C78.5187 37.578 80.2908 36.5462 83.3074 36.2557C87.4192 35.865 95.8815 30.8064 92.4269 21.0897C90.7941 16.5118 85.876 14.4784 82.1127 14.2179C81.4955 12.7254 79.3052 8.76858 72.7145 8.73852C69.2499 8.71849 66.8605 9.94058 64.6304 11.3931C61.0264 9.23938 53.7786 7.847 48.4125 14.4183C44.46 19.2666 44.7886 26.1384 46.481 29.3739C48.6016 33.4208 53.1116 35.1338 53.1116 35.1338L53.1215 35.1238ZM75.2532 39.4211C71.4999 38.0287 62.2908 35.3842 53.6591 38.9904C53.8483 37.9586 54.0573 37.007 54.2863 36.1255C59.1348 32.6996 66.1237 33.3607 70.0364 34.112C70.0364 34.112 74.4966 36.9869 75.7709 37.1673L75.2631 39.4111L75.2532 39.4211ZM46.3416 25.6074C46.2321 25.1667 46.1525 24.7359 46.1027 24.3252C45.6348 19.9177 48.502 14.5184 52.9025 12.3647C57.7907 9.98065 63.0972 12.3647 63.0972 12.3647V12.4248C61.9424 13.2062 60.7775 13.9875 59.4633 14.6286C58.3483 15.1695 57.4124 15.3599 56.6458 15.3398C56.3472 15.3398 56.0684 15.2898 55.8195 15.2296C55.491 15.1495 55.1625 15.1996 54.9832 15.3799C54.7941 15.5702 54.6846 16.1011 55.3715 16.3716C55.3914 16.3716 55.4213 16.3816 55.4313 16.3916C56.1083 16.612 57.0341 16.6521 58.2886 16.3416C63.2465 15.1195 65.8251 11.0425 73.3616 10.8321C74.8351 10.792 77.8019 11.0325 79.4246 12.5851C80.2609 13.3865 80.2311 14.3381 79.5143 14.3181C75.9899 14.0977 74.1182 15.42 74.1182 15.42C72.5452 16.4618 74.1182 17.6338 74.1182 17.6338C75.731 15.0193 81.7941 15.8708 82.3716 15.9609C89.2709 17.6638 90.4656 22.7626 90.4955 24.5456C90.5154 25.948 91.0928 33.0402 82.9988 34.8433C76.199 36.3559 71.5994 32.8499 70.3052 31.6979C69.5784 31.0868 69.3594 30.8364 68.8118 31.0668C68.2543 31.2972 68.5331 32.1487 68.6824 32.5293C65.5662 32.1787 62.4103 32.4592 60.8572 32.6896C57.4822 33.1804 55.4213 34.2523 54.585 34.9535C56.1381 29.6143 58.0795 27.661 58.0795 27.661C58.7166 27.6409 59.314 27.6009 59.8715 27.5307C60.0607 27.5107 60.2498 27.4907 60.429 27.4606C61.6436 27.2402 62.4999 26.6392 62.5795 26.1183C62.689 25.4372 62.1215 25.1767 61.5142 25.2468C60.7178 25.347 59.8815 25.367 58.9556 25.3169C57.512 25.2468 56.3771 24.9964 55.3815 24.5957C53.0618 23.4537 52.3748 21.1899 52.3449 21.0997C52.0064 19.7875 52.2554 18.7457 52.2554 18.7457C52.2554 18.7457 51.2797 18.8959 51.0209 20.2783C50.9213 20.7892 50.9412 21.28 51.0407 21.7408C51.3394 24.5156 55.0927 27.2002 55.0927 27.2002C53.8582 29.9449 51.3992 30.025 51.3992 30.025C49.7864 30.1152 48.7709 29.3739 47.9744 28.6326C47.1182 27.8212 46.6104 26.7594 46.3317 25.7176C46.3317 25.6876 46.3118 25.6575 46.3118 25.6275L46.3416 25.6074Z" fill="#633510"/>
</svg>
